<?xml version="1.0" standalone="no"?>
<!DOCTYPE svg PUBLIC "-//W3C//DTD SVG 1.1//EN" "http://www.w3.org/Graphics/SVG/1.1/DTD/svg11.dtd" >
<svg>
<metadata>
Created by FontForge 20090914 at Tue Sep 28 18:25:03 2021
 By www-data
Copyright 2017 The Playfair Display Project Authors (https://github.com/clauseggers/Playfair-Display), with Reserved Font Name "Playfair Display".
</metadata>
<defs>
<font id="PlayfairDisplay-ExtraBold" horiz-adv-x="0" >
  <font-face 
    font-family="Playfair Display ExtraBold"
    font-weight="800"
    font-stretch="normal"
    units-per-em="1000"
    panose-1="0 0 0 0 0 0 0 0 0 0"
    ascent="800"
    descent="-200"
    x-height="518"
    cap-height="708"
    bbox="-271 -243.003 1284 1164"
    underline-thickness="20"
    underline-position="-90"
    unicode-range="U+000D-U+FB02"
  />
<missing-glyph horiz-adv-x="562" 
d="M502 772v-772h-442v772h442zM466 742h-370v-712h370v712z" />
    <glyph glyph-name="IJ" unicode="IJ" horiz-adv-x="768" 
d="M358 708l0.000976562 -20c-20.667 -0.666992 -36.334 -3.16699 -47.001 -7.5s-17.667 -12.333 -21 -24s-5 -29.834 -5 -54.501v-496c0 -24 1.83301 -42 5.5 -54s10.667 -20 21 -24s25.833 -6.66699 46.5 -8v-20c-18.667 1.33301 -42.5 2.16602 -71.5 2.49902
s-58.167 0.5 -87.5 0.5c-34 0 -66 -0.166992 -96 -0.5s-54 -1.16602 -72 -2.49902v20c20.667 1.33301 36.167 4 46.5 8s17.333 12 21 24s5.5 30 5.5 54v496c0 24.667 -1.83301 42.834 -5.5 54.501s-10.667 19.667 -21 24s-25.833 6.83301 -46.5 7.5v20
c18 -0.666992 42 -1.33398 72 -2.00098s62 -1 96 -1c29.333 0 58.5 0.333008 87.5 1s52.833 1.33398 71.5 2.00098zM367.001 -188l0.00195312 20.999c25.333 2.66699 47.166 10.334 65.499 23.001s32.5 34.667 42.5 66s15 75.333 15 132v548
c0 24.667 -1.83301 42.834 -5.5 54.501s-10.834 19.667 -21.501 24s-26 6.83301 -46 7.5v20c16.667 -0.666992 39.334 -1.33398 68.001 -2.00098s58.667 -1 90 -1c32 0 63.167 0.333008 93.5 1s55.5 1.33398 75.5 2.00098v-20
c-20.667 -0.666992 -36.334 -3.16699 -47.001 -7.5s-17.667 -12.333 -21 -24s-5 -29.834 -5 -54.501v-366v-88.5c0 -31.667 -1.16699 -62.5 -3.5 -92.5s-6.83301 -56.667 -13.5 -80c-14 -46 -44.667 -84.667 -92 -116s-112.333 -47 -195 -47z" />
    <glyph glyph-name="ij" unicode="ij" horiz-adv-x="600" 
d="M535 529l-0.000976562 -439.998c0 -59.333 -7.66699 -109.833 -23 -151.5s-41.333 -73 -78 -94s-87.334 -31.5 -152.001 -31.5c-40 0 -73.5 5.83301 -100.5 17.5s-40.5 31.5 -40.5 59.5c0 17.333 7.83301 32.5 23.5 45.5s38.834 19.5 69.501 19.5
c26.667 0 48.834 -5.16699 66.501 -15.5s26.5 -25.5 26.5 -45.5c0 -15.333 -5.66699 -28.333 -17 -39s-26 -18.334 -44 -23.001c5.33301 -0.666992 9.66602 -1 12.999 -1h9c32 0 54.167 10 66.5 30s18.5 51.667 18.5 95v116c-15.333 -28.667 -36.5 -50 -63.5 -64
s-59.167 -21 -96.5 -21c-29.333 0 -52.833 3.66699 -70.5 11s-31.167 17 -40.5 29c-10.667 12 -18.334 28.167 -23.001 48.5s-7 47.166 -7 80.499v254c0 30 -4.33301 52.167 -13 66.5s-24.334 21.5 -47.001 21.5v21c21.333 -2 42 -3 62 -3
c30.667 0 59.334 1.16699 86.001 3.5s51.334 5.83301 74.001 10.5v-422c0 -15.333 1.66699 -28.333 5 -39s9 -19 17 -25s18.667 -9 32 -9c23.333 0 43.333 9 60 27s25 40.333 25 67v281c0 30 -4.33301 52.167 -13 66.5s-24.334 21.5 -47.001 21.5v21c21.333 -2 42 -3 62 -3
c30.667 0 59.334 1.16699 86.001 3.5s51.334 5.83301 74.001 10.5zM144.999 779.002c31.333 0 55.833 -7 73.5 -21s26.5 -34.333 26.5 -61s-8.83301 -47 -26.5 -61s-42.167 -21 -73.5 -21c-30.667 0 -55 7 -73 21s-27 34.333 -27 61s9 47 27 61s42.333 21 73 21z
M447.999 779.002c31.333 0 55.833 -7 73.5 -21s26.5 -34.333 26.5 -61s-8.83301 -47 -26.5 -61s-42.167 -21 -73.5 -21s-55.833 7 -73.5 21s-26.5 34.333 -26.5 61s8.83301 47 26.5 61s42.167 21 73.5 21z" />
    <glyph glyph-name="fi" unicode="fi" horiz-adv-x="661" 
d="M380 782c46 0 81.1631 -3.66699 105.496 -11s45.5 -16.333 63.5 -27c10.667 -6.66699 20.334 -16.5 29.001 -29.5s13 -27.167 13 -42.5c0 -25.333 -8.5 -45.166 -25.5 -59.499s-43.167 -21.5 -78.5 -21.5c-33.333 0 -59 7 -77 21s-27 33.333 -27 58
c0 41.333 25.667 68.333 77 81c-5.33301 3.33301 -13.666 6.16602 -24.999 8.49902s-23.333 3.5 -36 3.5c-30 0 -55.167 -6.66699 -75.5 -20s-36.5 -31 -48.5 -53c-9.33301 -16.667 -16.166 -37.5 -20.499 -62.5s-6.5 -61.833 -6.5 -110.5h105
c37.333 0 69.166 0.333008 95.499 1s50 1.83398 71 3.50098s42.167 4.16699 63.5 7.5v-436c0 -28 5.16699 -47 15.5 -57s27.833 -15 52.5 -15v-21c-14 0.666992 -34.667 1.5 -62 2.5s-55 1.5 -83 1.5c-27.333 0 -54.833 -0.5 -82.5 -1.5s-48.5 -1.83301 -62.5 -2.5v21
c22 0 37.5 5 46.5 15s13.5 29 13.5 57v316c0 30 -4.83301 52.167 -14.5 66.5s-27.5 21.5 -53.5 21.5h-105v-404c0 -28.667 6.83301 -47.834 20.5 -57.501s32.834 -14.5 57.501 -14.5v-21c-16 0.666992 -38.333 1.5 -67 2.5s-58 1.5 -88 1.5c-31.333 0 -61 -0.5 -89 -1.5
s-49.333 -1.83301 -64 -2.5v21c24.667 0 42.167 5 52.5 15s15.5 29 15.5 57v404h-72v20h72c0 42 7 79.167 21 111.5s34.333 60.833 61 85.5c24.667 24 56.334 41.333 95.001 52s77.667 16 117 16z" />
    <glyph glyph-name="fl" unicode="fl" horiz-adv-x="665" 
d="M583 784l-0.00292969 -691c0 -28 5.16699 -47 15.5 -57s27.833 -15 52.5 -15v-21c-14 0.666992 -34.667 1.5 -62 2.5s-55 1.5 -83 1.5c-27.333 0 -54.833 -0.5 -82.5 -1.5s-48.5 -1.83301 -62.5 -2.5v21c22 0 37.5 5 46.5 15s13.5 29 13.5 57v592
c0 16 -1.33301 28.5 -4 37.5s-7 16.167 -13 21.5c-4.66699 5.33301 -11.334 9.83301 -20.001 13.5s-18 5.5 -28 5.5c-19.333 0 -34.833 -2.83301 -46.5 -8.5s-22.5 -14.5 -32.5 -26.5c-12.667 -15.333 -20.667 -35.666 -24 -60.999s-5 -61.333 -5 -108v-42h98v-20h-98v-404
c0 -28.667 6.83301 -47.834 20.5 -57.501s32.834 -14.5 57.501 -14.5v-21c-16 0.666992 -38.333 1.5 -67 2.5s-58 1.5 -88 1.5c-31.333 0 -61 -0.5 -89 -1.5s-49.333 -1.83301 -64 -2.5v21c24.667 0 42.167 5 52.5 15s15.5 29 15.5 57v404h-72v20h72
c0 50.667 6.33301 92.667 19 126s31.334 60.666 56.001 81.999c24.667 20.667 52.5 35.334 83.5 44.001s61.5 13 91.5 13c22 0 44.5 -1 67.5 -3s47.5 -3 73.5 -3c14.667 0 31.834 0.833008 51.501 2.5s37.834 3.5 54.501 5.5z" />
    <glyph glyph-name="f_f" unicode="ff" horiz-adv-x="688" 
d="M323 742c36.667 0 69.667 -8.33398 99 -25.001s49 -41 59 -73l-20 -10c-7.33301 24.667 -21.5 44.834 -42.5 60.501s-46.167 23.5 -75.5 23.5c-32.667 0 -56.667 -9.66699 -72 -29s-23 -50.333 -23 -93v-79h127v-20h-127v-404c0 -28 4.5 -47 13.5 -57s24.5 -15 46.5 -15
v-21c-14 0.666992 -33.5 1.5 -58.5 2.5s-50.833 1.5 -77.5 1.5c-29.333 0 -58.666 -0.5 -87.999 -1.5s-51.333 -1.83301 -66 -2.5v21c24.667 0 42.167 5 52.5 15s15.5 29 15.5 57v404h-72v20h72c0 35.333 6 68 18 98s29.667 54.667 53 74c18.667 16 42.167 28.833 70.5 38.5
s60.166 14.5 95.499 14.5zM622 781.999c24.667 0 46.167 -3.16797 64.5 -9.50098s34.5 -14.833 48.5 -25.5c9.33301 -7.33301 17.666 -17.833 24.999 -31.5s11 -29.5 11 -47.5c0 -19.333 -7.16699 -36.666 -21.5 -51.999s-32.833 -23 -55.5 -23
c-24.667 0 -44.667 6.83301 -60 20.5s-23 32.5 -23 56.5c0 18 5.33301 34.5 16 49.5s26.667 25.5 48 31.5c-2 3.33301 -5.66699 6.16602 -11 8.49902s-12.333 3.5 -21 3.5c-12 0 -22 -2 -30 -6s-14.667 -9.66699 -20 -17c-6.66699 -8.66699 -11.5 -21 -14.5 -37
s-4.5 -40.333 -4.5 -73v-113h107v-20h-107v-394c0 -32.667 8 -54.5 24 -65.5s38 -16.5 66 -16.5v-21c-18 0.666992 -43.167 1.5 -75.5 2.5s-66.5 1.5 -102.5 1.5c-26 0 -51.667 -0.5 -77 -1.5s-44.333 -1.83301 -57 -2.5v21c22 0 37.5 5 46.5 15s13.5 29 13.5 57v404h-64v20
h64c0 59.333 5 104.333 15 135s27.333 57.334 52 80.001c14.667 14 34.834 25.833 60.501 35.5s53.167 14.5 82.5 14.5z" />
    <glyph glyph-name="f_f_i" unicode="ffi" horiz-adv-x="1003" 
d="M733 782c38.667 0 70.3301 -3.66895 94.9971 -11.002s46 -16.666 64 -27.999c11.333 -6.66699 21 -16.167 29 -28.5s12 -26.5 12 -42.5c0 -25.333 -8.5 -45.166 -25.5 -59.499s-43.167 -21.5 -78.5 -21.5c-33.333 0 -59 7 -77 21s-27 33.333 -27 58
c0 41.333 25.667 68.333 77 81c-5.33301 3.33301 -13.666 6.16602 -24.999 8.49902s-23.666 3.5 -36.999 3.5c-24 0 -44.5 -4.5 -61.5 -13.5s-30.5 -18.833 -40.5 -29.5c-14 -14 -24.5 -29.833 -31.5 -47.5s-11.5 -38.667 -13.5 -63s-3 -55.166 -3 -92.499h105
c37.333 0 69.166 0.333008 95.499 1s50 1.83398 71 3.50098s42.167 4.16699 63.5 7.5v-436c0 -28 5.16699 -47 15.5 -57s27.833 -15 52.5 -15v-21c-14 0.666992 -34.667 1.5 -62 2.5s-55 1.5 -83 1.5c-27.333 0 -54.833 -0.5 -82.5 -1.5s-48.5 -1.83301 -62.5 -2.5v21
c22 0 37.5 5 46.5 15s13.5 29 13.5 57v316c0 30 -4.83301 52.167 -14.5 66.5s-27.5 21.5 -53.5 21.5h-105v-404c0 -28.667 6.83301 -47.834 20.5 -57.501s32.834 -14.5 57.501 -14.5v-21c-16 0.666992 -38.333 1.5 -67 2.5s-58 1.5 -88 1.5c-31.333 0 -61 -0.5 -89 -1.5
s-49.333 -1.83301 -64 -2.5v21c24.667 0 42.167 5 52.5 15s15.5 29 15.5 57v404h-72v20h72c0 42 6.83301 79.333 20.5 112s33.834 61 60.501 85c26 22.667 58.5 39.667 97.5 51s81.167 17 126.5 17zM340.996 749.998c42 0 76.3311 -6.49902 102.998 -19.499
s50 -29.833 70 -50.5l-14 -16c-12.667 15.333 -30.667 29.666 -54 42.999s-52.666 20 -87.999 20c-36.667 0 -64.167 -10.667 -82.5 -32s-27.5 -57 -27.5 -107v-71h127v-20h-127v-404c0 -28 4.5 -47 13.5 -57s24.5 -15 46.5 -15v-21c-14 0.666992 -33.5 1.5 -58.5 2.5
s-50.833 1.5 -77.5 1.5c-29.333 0 -58.666 -0.5 -87.999 -1.5s-51.333 -1.83301 -66 -2.5v21c24.667 0 42.167 5 52.5 15s15.5 29 15.5 57v404h-72v20h72c0 35.333 6.16699 67.833 18.5 97.5s29.833 54.5 52.5 74.5c22 20.667 48.833 36 80.5 46s66.167 15 103.5 15z" />
    <glyph glyph-name="f_f_l" unicode="ffl" horiz-adv-x="1007" 
d="M925 784l-0.000976562 -690.999c0 -28 5.16699 -47 15.5 -57s27.833 -15 52.5 -15v-21c-14 0.666992 -34.667 1.5 -62 2.5s-55 1.5 -83 1.5c-27.333 0 -54.833 -0.5 -82.5 -1.5s-48.5 -1.83301 -62.5 -2.5v21c22 0 37.5 5 46.5 15s13.5 29 13.5 57v592
c0 16 -1.5 28.5 -4.5 37.5s-7.16699 16.167 -12.5 21.5c-4.66699 5.33301 -11.334 9.83301 -20.001 13.5s-18.334 5.5 -29.001 5.5c-18.667 0 -34 -2.83301 -46 -8.5s-22.667 -14.5 -32 -26.5c-12.667 -15.333 -20.667 -35.333 -24 -60s-5 -59.667 -5 -105v-46h98v-20h-98
v-404c0 -28.667 6.83301 -47.834 20.5 -57.501s32.834 -14.5 57.501 -14.5v-21c-16 0.666992 -38.333 1.5 -67 2.5s-58 1.5 -88 1.5c-31.333 0 -61 -0.5 -89 -1.5s-49.333 -1.83301 -64 -2.5v21c24.667 0 42.167 5 52.5 15s15.5 29 15.5 57v404h-72v20h72
c0 50.667 6.33301 92.667 19 126s31.334 60.666 56.001 81.999c24.667 20.667 52.5 35.334 83.5 44.001s61.5 13 91.5 13c22 0 44.333 -1 67 -3s47 -3 73 -3c15.333 0 32.833 0.833008 52.5 2.5s37.834 3.5 54.501 5.5zM340.999 750.001c42 0 76.333 -6.49902 103 -19.499
s50 -29.833 70 -50.5l-14 -16c-12.667 15.333 -30.667 29.666 -54 42.999s-52.666 20 -87.999 20c-36.667 0 -64.167 -10.667 -82.5 -32s-27.5 -57 -27.5 -107v-71h127v-20h-127v-404c0 -28 4.5 -47 13.5 -57s24.5 -15 46.5 -15v-21
c-12.667 0.666992 -31.834 1.5 -57.501 2.5s-51.834 1.5 -78.501 1.5c-29.333 0 -58.666 -0.5 -87.999 -1.5s-51.333 -1.83301 -66 -2.5v21c24.667 0 42.167 5 52.5 15s15.5 29 15.5 57v404h-72v20h72c0 35.333 6.16699 67.833 18.5 97.5s29.833 54.5 52.5 74.5
c22 20.667 48.833 36 80.5 46s66.167 15 103.5 15z" />
    <glyph glyph-name="f_b.liga" unicode="fb" horiz-adv-x="944" 
d="M579 784l-0.00292969 -774.998c-19.333 6 -39.166 8.5 -59.499 7.5s-38.833 -4.33301 -55.5 -10s-29.667 -13.167 -39 -22.5l-15 9c3.33301 9.33301 5.33301 18.666 6 27.999s1 18.666 1 27.999v636c0 16 -1.5 28.5 -4.5 37.5s-7.16699 16.167 -12.5 21.5
c-4 5.33301 -10.167 9.83301 -18.5 13.5s-17.833 5.5 -28.5 5.5c-18 0 -32.833 -2.83301 -44.5 -8.5s-22.167 -14.167 -31.5 -25.5c-13.333 -16 -21.5 -36.667 -24.5 -62s-4.5 -60.666 -4.5 -105.999v-44h98v-20h-98v-404c0 -28.667 6.83301 -47.834 20.5 -57.501
s32.834 -14.5 57.501 -14.5v-21c-16 0.666992 -38.333 1.5 -67 2.5s-58 1.5 -88 1.5c-31.333 0 -61 -0.5 -89 -1.5s-49.333 -1.83301 -64 -2.5v21c24.667 0 42.167 5 52.5 15s15.5 29 15.5 57v404h-72v20h72c0 50.667 6.33301 92.667 19 126s31.334 60.666 56.001 81.999
c24.667 20.667 52.334 35.334 83.001 44.001s61 13 91 13c21.333 0 43.166 -1 65.499 -3s46.833 -3 73.5 -3c14.667 0 31.667 0.833008 51 2.5s37.333 3.5 54 5.5zM731.997 532.002c50 0 91.998 -20.834 125.998 -62.501s51 -105.834 51 -192.501
c0 -72 -10.5 -129.5 -31.5 -172.5s-49.167 -73.5 -84.5 -91.5s-73.666 -27 -114.999 -27c-24.667 0 -47.667 3 -69 9s-40.333 17 -57 33l13 10c10 -10.667 21.833 -18.5 35.5 -23.5s26.834 -7.5 39.501 -7.5c34 0 59.167 20.833 75.5 62.5s24.5 104.834 24.5 189.501
c0 58 -3.33301 103.333 -10 136s-15.667 55.834 -27 69.501s-25 20.5 -41 20.5c-21.333 0 -40.5 -8.16699 -57.5 -24.5s-25.833 -38.5 -26.5 -66.5l-3 42c14 32 34.667 56 62 72s59 24 95 24z" />
    <glyph glyph-name="f_f_b.liga" unicode="ffb" horiz-adv-x="1286" 
d="M921 784l-0.00292969 -774.997c-19.333 6 -39.166 8.5 -59.499 7.5s-38.833 -4.33301 -55.5 -10s-30 -13.167 -40 -22.5l-14 9c3.33301 9.33301 5.33301 18.666 6 27.999s1 18.666 1 27.999v636c0 16 -1.5 28.5 -4.5 37.5s-7.16699 16.167 -12.5 21.5
c-4.66699 5.33301 -11.167 9.83301 -19.5 13.5s-17.5 5.5 -27.5 5.5c-18 0 -32.833 -2.83301 -44.5 -8.5s-22.167 -14.167 -31.5 -25.5c-13.333 -16 -21.5 -37.167 -24.5 -63.5s-4.5 -63.5 -4.5 -111.5v-37h98v-20h-98v-404c0 -28.667 6.83301 -47.834 20.5 -57.501
s32.834 -14.5 57.501 -14.5v-21c-16 0.666992 -38.333 1.5 -67 2.5s-58 1.5 -88 1.5c-31.333 0 -61 -0.5 -89 -1.5s-49.333 -1.83301 -64 -2.5v21c24.667 0 42.167 5 52.5 15s15.5 29 15.5 57v404h-72v20h72c0 50.667 6.33301 92.667 19 126s31.334 60.666 56.001 81.999
c24 20.667 51.5 35.334 82.5 44.001s61.167 13 90.5 13c22 0 44.167 -1 66.5 -3s46.833 -3 73.5 -3c14.667 0 31.667 0.833008 51 2.5s37.333 3.5 54 5.5zM340.997 750.003c42 0 76.3311 -6.49902 102.998 -19.499s50 -29.833 70 -50.5l-14 -16
c-12.667 15.333 -30.667 29.666 -54 42.999s-52.666 20 -87.999 20c-34 0 -59.5 -10.667 -76.5 -32s-25.5 -57 -25.5 -107v-71h119v-20h-119v-404c0 -28 4.5 -47 13.5 -57s24.5 -15 46.5 -15v-21c-14 0.666992 -34.5 1.5 -61.5 2.5s-54.5 1.5 -82.5 1.5
c-29.333 0 -58.666 -0.5 -87.999 -1.5s-51.333 -1.83301 -66 -2.5v21c24.667 0 42.167 5 52.5 15s15.5 29 15.5 57v404h-72v20h72c0 35.333 6.16699 67.833 18.5 97.5s29.833 54.5 52.5 74.5c22 20.667 48.833 36 80.5 46s66.167 15 103.5 15zM1074 532.004
c50 0 92.001 -20.834 126.001 -62.501s51 -105.834 51 -192.501c0 -72 -10.667 -129.5 -32 -172.5s-49.5 -73.5 -84.5 -91.5s-73.167 -27 -114.5 -27c-24.667 0 -47.667 3 -69 9s-40.333 17 -57 33l13 10c10 -10.667 21.667 -18.5 35 -23.5s26.333 -7.5 39 -7.5
c34 0 59.333 20.833 76 62.5s25 104.834 25 189.501c0 58 -3.33301 103.333 -10 136s-15.834 55.834 -27.501 69.501s-25.167 20.5 -40.5 20.5c-21.333 0 -40.5 -8.16699 -57.5 -24.5s-26.167 -38.5 -27.5 -66.5l-2 42c14 32 34.5 56 61.5 72s58.833 24 95.5 24z" />
    <glyph glyph-name="f_f_h.liga" unicode="ffh" horiz-adv-x="1296" 
d="M921 784l0.00195312 -336.002c16 30.667 38 52.334 66 65.001s59.667 19 95 19c29.333 0 52.833 -3.66699 70.5 -11s31.5 -16.666 41.5 -27.999c10 -12.667 17.5 -29 22.5 -49s7.5 -47 7.5 -81v-270c0 -28 4.5 -47 13.5 -57s24.5 -15 46.5 -15v-21
c-13.333 0.666992 -33 1.5 -59 2.5s-51.667 1.5 -77 1.5c-26.667 0 -52.834 -0.5 -78.501 -1.5s-44.834 -1.83301 -57.501 -2.5v21c18.667 0 31.667 5 39 15s11 29 11 57v318c0 15.333 -1.66699 28.5 -5 39.5s-9 19.333 -17 25s-19.333 8.5 -34 8.5
c-22.667 0 -42.5 -8.66699 -59.5 -26s-25.5 -40 -25.5 -68v-297c0 -28 3.83301 -47 11.5 -57s20.5 -15 38.5 -15v-21c-12.667 0.666992 -30.834 1.5 -54.501 2.5s-48.167 1.5 -73.5 1.5c-26.667 0 -53.834 -0.5 -81.501 -1.5s-48.5 -1.83301 -62.5 -2.5v21
c22 0 37.5 5 46.5 15s13.5 29 13.5 57v592c0 16 -1.5 28.5 -4.5 37.5s-7.16699 16.167 -12.5 21.5c-4.66699 5.33301 -11.167 9.83301 -19.5 13.5s-17.5 5.5 -27.5 5.5c-18 0 -32.833 -2.83301 -44.5 -8.5s-22.167 -14.167 -31.5 -25.5
c-12.667 -15.333 -20.667 -35.166 -24 -59.499s-5 -58.5 -5 -102.5v-50h98v-20h-98v-404c0 -28.667 6.83301 -47.834 20.5 -57.501s32.834 -14.5 57.501 -14.5v-21c-16 0.666992 -38.333 1.5 -67 2.5s-58 1.5 -88 1.5c-31.333 0 -61 -0.5 -89 -1.5
s-49.333 -1.83301 -64 -2.5v21c24.667 0 42.167 5 52.5 15s15.5 29 15.5 57v404h-72v20h72c0 50.667 6.33301 92.667 19 126s31.334 60.666 56.001 81.999c24 20.667 51.5 35.334 82.5 44.001s61.167 13 90.5 13c22 0 44.167 -1 66.5 -3s46.833 -3 73.5 -3
c14.667 0 31.667 0.833008 51 2.5s37.333 3.5 54 5.5zM341.002 749.998c42 0 76.3311 -6.49902 102.998 -19.499s50 -29.833 70 -50.5l-14 -16c-12.667 15.333 -30.667 29.666 -54 42.999s-52.666 20 -87.999 20c-36.667 0 -64.167 -10.667 -82.5 -32s-27.5 -57 -27.5 -107
v-71h127v-20h-127v-404c0 -28 4.5 -47 13.5 -57s24.5 -15 46.5 -15v-21c-14 0.666992 -33.5 1.5 -58.5 2.5s-50.833 1.5 -77.5 1.5c-29.333 0 -58.666 -0.5 -87.999 -1.5s-51.333 -1.83301 -66 -2.5v21c24.667 0 42.167 5 52.5 15s15.5 29 15.5 57v404h-72v20h72
c0 35.333 6.16699 67.833 18.5 97.5s29.833 54.5 52.5 74.5c22 20.667 48.833 36 80.5 46s66.167 15 103.5 15z" />
    <glyph glyph-name="f_f_j.liga" unicode="ffj" horiz-adv-x="988" 
d="M722 782c46 0 81.167 -3.66602 105.5 -10.999s45.166 -16.333 62.499 -27c11.333 -6.66699 21.333 -16.5 30 -29.5s13 -27.167 13 -42.5c0 -25.333 -8.5 -45.166 -25.5 -59.499s-43.167 -21.5 -78.5 -21.5c-33.333 0 -59 7 -77 21s-27 33.333 -27 58
c0 41.333 25.667 68.333 77 81c-5.33301 3.33301 -13.666 6.16602 -24.999 8.49902s-23.666 3.5 -36.999 3.5c-29.333 0 -54.166 -6.66699 -74.499 -20s-36.5 -31 -48.5 -53c-9.33301 -16.667 -16.166 -37.5 -20.499 -62.5s-6.5 -61.833 -6.5 -110.5h105
c37.333 0 69.166 0.333008 95.499 1s50 1.83398 71 3.50098s42.167 4.16699 63.5 7.5v-442c0 -56 -5 -101 -15 -135s-27.667 -63.333 -53 -88c-14.667 -15.333 -35.334 -27.833 -62.001 -37.5s-65 -14.5 -115 -14.5c-20 0 -38 1.33301 -54 4s-29.333 5.66699 -40 9
c-16.667 6 -29.667 14.167 -39 24.5s-14 22.166 -14 35.499c0 16.667 7.66699 32.167 23 46.5s38.333 21.5 69 21.5c26 0 47.833 -5.33301 65.5 -16s26.5 -25.667 26.5 -45c0 -14.667 -5.16699 -26.834 -15.5 -36.501s-23.833 -17.167 -40.5 -22.5
c6.66699 0 12.834 0.166992 18.501 0.5s10.167 0.833008 13.5 1.5c15.333 0.666992 27.666 5.16699 36.999 13.5s16.666 18.833 21.999 31.5c4 10 6.83301 24.833 8.5 44.5s2.5 41 2.5 64v62.5v358c0 30 -4.83301 52.167 -14.5 66.5s-27.5 21.5 -53.5 21.5h-105v-402
c0 -29.333 7.16699 -49 21.5 -59s34.5 -15 60.5 -15v-21c-16.667 0.666992 -39.667 1.5 -69 2.5s-59.666 1.5 -90.999 1.5c-30.667 0 -60 -0.5 -88 -1.5s-49.333 -1.83301 -64 -2.5v21c24.667 0 42.167 5 52.5 15s15.5 29 15.5 57v404h-72v20h72c0 42 7 79.167 21 111.5
s34 60.833 60 85.5c25.333 24 57.166 41.333 95.499 52s77.5 16 117.5 16zM341 750.001c42 0 76.332 -6.49805 102.999 -19.498s50 -29.833 70 -50.5l-14 -16c-12.667 15.333 -30.667 29.666 -54 42.999s-52.666 20 -87.999 20c-34 0 -59.5 -10.667 -76.5 -32
s-25.5 -57 -25.5 -107v-71h119v-20h-119v-404c0 -28 4.5 -47 13.5 -57s24.5 -15 46.5 -15v-21c-14 0.666992 -34.5 1.5 -61.5 2.5s-54.5 1.5 -82.5 1.5c-29.333 0 -58.666 -0.5 -87.999 -1.5s-51.333 -1.83301 -66 -2.5v21c24.667 0 42.167 5 52.5 15s15.5 29 15.5 57v404
h-72v20h72c0 35.333 6.33301 67.666 19 96.999s30 54.333 52 75c22.667 20.667 49.667 36 81 46s65.666 15 102.999 15z" />
    <glyph glyph-name="f_f_k.liga" unicode="ffk" horiz-adv-x="1277" 
d="M921 784l-0.00195312 -691c0 -28 5 -47 15 -57s27 -15 51 -15v-21c-14 0.666992 -34.5 1.5 -61.5 2.5s-54.167 1.5 -81.5 1.5s-54.833 -0.5 -82.5 -1.5s-48.5 -1.83301 -62.5 -2.5v21c22 0 37.5 5 46.5 15s13.5 29 13.5 57v592c0 16 -1.5 28.5 -4.5 37.5
s-7.16699 16.167 -12.5 21.5c-4.66699 5.33301 -11.167 9.83301 -19.5 13.5s-17.5 5.5 -27.5 5.5c-18 0 -32.833 -2.83301 -44.5 -8.5s-22.167 -14.167 -31.5 -25.5c-13.333 -16 -21.5 -36.667 -24.5 -62s-4.5 -60.666 -4.5 -105.999v-44h98v-20h-98v-404
c0 -28.667 6.83301 -47.834 20.5 -57.501s32.834 -14.5 57.501 -14.5v-21c-16 0.666992 -38.333 1.5 -67 2.5s-58 1.5 -88 1.5c-31.333 0 -61 -0.5 -89 -1.5s-49.333 -1.83301 -64 -2.5v21c24.667 0 42.167 5 52.5 15s15.5 29 15.5 57v404h-72v20h72
c0 50.667 6.33301 92.667 19 126s31.334 60.666 56.001 81.999c24 20.667 51.5 35.334 82.5 44.001s61.167 13 90.5 13c22 0 44.167 -1 66.5 -3s46.833 -3 73.5 -3c14.667 0 31.667 0.833008 51 2.5s37.333 3.5 54 5.5zM340.998 750c42 0 76.3311 -6.49902 102.998 -19.499
s50 -29.833 70 -50.5l-14 -16c-12.667 15.333 -30.667 29.666 -54 42.999s-52.666 20 -87.999 20c-34 0 -59.5 -10.667 -76.5 -32s-25.5 -57 -25.5 -107v-71h119v-20h-119v-404c0 -28 4.5 -47 13.5 -57s24.5 -15 46.5 -15v-21c-14 0.666992 -34.5 1.5 -61.5 2.5
s-54.5 1.5 -82.5 1.5c-29.333 0 -58.666 -0.5 -87.999 -1.5s-51.333 -1.83301 -66 -2.5v21c24.667 0 42.167 5 52.5 15s15.5 29 15.5 57v404h-72v20h72c0 35.333 6.16699 67.833 18.5 97.5s29.833 54.5 52.5 74.5c22 20.667 48.833 36 80.5 46s66.167 15 103.5 15z
M1250 518.001l0.00292969 -19.998c-22.667 -5.33301 -45.334 -15.5 -68.001 -30.5s-45.334 -34.167 -68.001 -57.5l-57 -57l9 16l166 -296c6.66699 -11.333 13.334 -21.666 20.001 -30.999s15.334 -16.333 26.001 -21v-21c-10.667 0.666992 -26.834 1.5 -48.501 2.5
s-43.167 1.5 -64.5 1.5c-25.333 0 -51 -0.5 -77 -1.5s-45.333 -1.83301 -58 -2.5v21c13.333 0 22.166 3 26.499 9s3.83301 14.333 -1.5 25l-94 182c-6 11.333 -12.5 18.666 -19.5 21.999s-15.5 5 -25.5 5v19c12 0.666992 22.5 2.33398 31.5 5.00098s17.167 7.66699 24.5 15
l77 73c22.667 22 34.167 41.833 34.5 59.5s-6.83398 32.167 -21.501 43.5s-34 17.666 -58 18.999v20c19.333 -0.666992 40 -1.33398 62 -2.00098s41 -1 57 -1c13.333 0 28.333 0.166992 45 0.5s32.5 0.666016 47.5 0.999023s26.5 0.833008 34.5 1.5z" />
    <glyph glyph-name="f_h.liga" unicode="fh" horiz-adv-x="954" 
d="M579 784l-0.000976562 -336.001c16 30.667 38 52.334 66 65.001s59.667 19 95 19c30 0 53.667 -3.66699 71 -11s31 -16.666 41 -27.999c10.667 -12.667 18.334 -29 23.001 -49s7 -47 7 -81v-270c0 -28 4.5 -47 13.5 -57s24.5 -15 46.5 -15v-21
c-12.667 0.666992 -32.167 1.5 -58.5 2.5s-52.166 1.5 -77.499 1.5c-26.667 0 -52.834 -0.5 -78.501 -1.5s-44.834 -1.83301 -57.501 -2.5v21c18.667 0 31.667 5 39 15s11 29 11 57v318c0 15.333 -1.66699 28.5 -5 39.5s-9 19.333 -17 25s-19 8.5 -33 8.5
c-23.333 0 -43.5 -8.66699 -60.5 -26s-25.5 -40 -25.5 -68v-297c0 -28 3.83301 -47 11.5 -57s20.5 -15 38.5 -15v-21c-12 0.666992 -30 1.5 -54 2.5s-48.667 1.5 -74 1.5c-26.667 0 -53.834 -0.5 -81.501 -1.5s-48.5 -1.83301 -62.5 -2.5v21c22 0 37.5 5 46.5 15
s13.5 29 13.5 57v592c0 16 -1.5 28.5 -4.5 37.5s-7.16699 16.167 -12.5 21.5c-4 5.33301 -10.167 9.83301 -18.5 13.5s-17.833 5.5 -28.5 5.5c-18 0 -32.833 -2.83301 -44.5 -8.5s-22.167 -14.167 -31.5 -25.5c-13.333 -16 -21.5 -37 -24.5 -63s-4.5 -63.333 -4.5 -112v-37
h98v-20h-98v-404c0 -28.667 6.83301 -47.834 20.5 -57.501s32.834 -14.5 57.501 -14.5v-21c-16 0.666992 -38.333 1.5 -67 2.5s-58 1.5 -88 1.5c-31.333 0 -61 -0.5 -89 -1.5s-49.333 -1.83301 -64 -2.5v21c24.667 0 42.167 5 52.5 15s15.5 29 15.5 57v404h-72v20h72
c0 50.667 6.33301 92.667 19 126s31.334 60.666 56.001 81.999c24.667 20.667 52.334 35.334 83.001 44.001s61 13 91 13c21.333 0 43.166 -1 65.499 -3s46.833 -3 73.5 -3c14.667 0 31.667 0.833008 51 2.5s37.333 3.5 54 5.5z" />
    <glyph glyph-name="f_idieresis.liga" unicode="f&#xef;" horiz-adv-x="661" 
d="M317 782c40.667 0 71.834 -4.8291 93.501 -14.4961s36.667 -22 45 -37s12.5 -30.167 12.5 -45.5l-32 6c-2.66699 25.333 -13.834 43.833 -33.501 55.5s-43.834 17.5 -72.501 17.5c-32.667 0 -54.167 -9.33301 -64.5 -28s-15.833 -52.334 -16.5 -101.001
c0 -10.667 -0.166992 -22.834 -0.5 -36.501s-0.5 -27.334 -0.5 -41.001v-40.5h105c37.333 0 69.166 0.333008 95.499 1s50 1.83398 71 3.50098s42.167 4.16699 63.5 7.5v-436c0 -28 5.16699 -47 15.5 -57s27.833 -15 52.5 -15v-21c-14 0.666992 -34.667 1.5 -62 2.5
s-55 1.5 -83 1.5c-27.333 0 -54.833 -0.5 -82.5 -1.5s-48.5 -1.83301 -62.5 -2.5v21c22 0 37.5 5 46.5 15s13.5 29 13.5 57v316c0 30 -4.83301 52.167 -14.5 66.5s-27.5 21.5 -53.5 21.5h-105v-404c0 -28.667 6.83301 -47.834 20.5 -57.501s32.834 -14.5 57.501 -14.5v-21
c-16 0.666992 -38.333 1.5 -67 2.5s-58 1.5 -88 1.5c-31.333 0 -61.166 -0.5 -89.499 -1.5s-49.5 -1.83301 -63.5 -2.5v21c24.667 0 42.167 5 52.5 15s15.5 29 15.5 57v404h-72v20h72c0 45.333 4.5 84.666 13.5 117.999s24.833 61 47.5 83c22.667 22.667 48.5 39 77.5 49
s59.833 15 92.5 15zM620 766.004c21.333 0 40.167 -8.16699 56.5 -24.5s24.5 -35.166 24.5 -56.499c0 -22.667 -8.16699 -41.834 -24.5 -57.501s-35.5 -23.5 -57.5 -23.5s-41 8 -57 24s-24 35 -24 57s8 41 24 57s35.333 24 58 24zM387.001 766.004
c21.333 0 40.166 -8.16699 56.499 -24.5s24.5 -35.166 24.5 -56.499c0 -22.667 -8.16699 -41.834 -24.5 -57.501s-35.166 -23.5 -56.499 -23.5c-22.667 0 -42 8 -58 24s-24 35 -24 57s8 41 24 57s35.333 24 58 24z" />
    <glyph glyph-name="f_igrave.liga" unicode="f&#xec;" horiz-adv-x="661" 
d="M294 753c28.667 0 53.665 -4.49902 74.998 -13.499s40.333 -19.5 57 -31.5l-2 -19c-18.667 12.667 -35.167 22.5 -49.5 29.5s-30.5 10.5 -48.5 10.5c-26.667 0 -46.667 -11.333 -60 -34c-5.33301 -9.33301 -9.66602 -21.5 -12.999 -36.5s-5 -33.5 -5 -55.5v-86h105
c37.333 0 69.166 0.333008 95.499 1s50 1.83398 71 3.50098s42.167 4.16699 63.5 7.5v-436c0 -28 5.16699 -47 15.5 -57s27.833 -15 52.5 -15v-21c-14 0.666992 -34.667 1.5 -62 2.5s-55 1.5 -83 1.5c-27.333 0 -54.833 -0.5 -82.5 -1.5s-48.5 -1.83301 -62.5 -2.5v21
c22 0 37.5 5 46.5 15s13.5 29 13.5 57v316c0 30 -4.83301 52.167 -14.5 66.5s-27.5 21.5 -53.5 21.5h-105v-404c0 -28.667 6.83301 -47.834 20.5 -57.501s32.834 -14.5 57.501 -14.5v-21c-16 0.666992 -38.333 1.5 -67 2.5s-58 1.5 -88 1.5c-31.333 0 -61 -0.5 -89 -1.5
s-49.333 -1.83301 -64 -2.5v21c24.667 0 42.167 5 52.5 15s15.5 29 15.5 57v404h-72v20h72c0 40 4.5 75.667 13.5 107s24.833 57.666 47.5 78.999c20.667 20.667 43.834 34.167 69.501 40.5s51.5 9.5 77.5 9.5zM371.998 819.001c14 12 30.002 16.499 48.002 13.499
s32.333 -10.833 43 -23.5c11.333 -13.333 20 -28.666 26 -45.999l22 -63c8.66699 -24.667 22.667 -55.334 42 -92.001l-11 -9c-30.667 26.667 -56.834 47.334 -78.501 62.001l-55 37.5c-15 10.333 -28.167 21.833 -39.5 34.5c-10.667 14 -15.834 29.167 -15.501 45.5
s6.5 29.833 18.5 40.5z" />
    <glyph glyph-name="f_j.liga" unicode="fj" horiz-adv-x="646" 
d="M380 782c46 0 81.1621 -3.66504 105.495 -10.998s45.5 -16.333 63.5 -27c10.667 -6.66699 20.334 -16.5 29.001 -29.5s13 -27.167 13 -42.5c0 -25.333 -8.5 -45.166 -25.5 -59.499s-43.167 -21.5 -78.5 -21.5c-33.333 0 -59 7 -77 21s-27 33.333 -27 58
c0 41.333 25.667 68.333 77 81c-5.33301 3.33301 -13.666 6.16602 -24.999 8.49902s-23.333 3.5 -36 3.5c-30 0 -55.167 -6.66699 -75.5 -20s-36.5 -31 -48.5 -53c-9.33301 -16.667 -16.166 -37.5 -20.499 -62.5s-6.5 -61.833 -6.5 -110.5h105
c37.333 0 69.166 0.333008 95.499 1s50 1.83398 71 3.50098s42.167 4.16699 63.5 7.5v-442c0 -56 -5 -101 -15 -135s-27.333 -63.333 -52 -88c-15.333 -15.333 -36.333 -27.833 -63 -37.5s-65 -14.5 -115 -14.5c-20 0 -38 1.33301 -54 4s-29.333 5.66699 -40 9
c-16.667 6 -29.667 14.167 -39 24.5s-14 22.166 -14 35.499c0 16.667 7.66699 32.167 23 46.5s38.333 21.5 69 21.5c26.667 0 48.834 -5.33301 66.501 -16s26.5 -25.667 26.5 -45c0 -14.667 -5.33301 -26.834 -16 -36.501s-24.334 -17.167 -41.001 -22.5h18
c5.33301 0 10 0.333008 14 1c14.667 0.666992 26.834 5.16699 36.501 13.5s17.167 19.166 22.5 32.499c4 10 6.83301 24.833 8.5 44.5s2.5 41 2.5 64v62.5v358c0 30 -4.83301 52.167 -14.5 66.5s-27.5 21.5 -53.5 21.5h-105v-402c0 -29.333 7.16699 -49 21.5 -59
s34.5 -15 60.5 -15v-21c-16.667 0.666992 -39.667 1.5 -69 2.5s-59.666 1.5 -90.999 1.5c-30.667 0 -60 -0.5 -88 -1.5s-49.333 -1.83301 -64 -2.5v21c24.667 0 42.167 5 52.5 15s15.5 29 15.5 57v404h-72v20h72c0 42 7 79.167 21 111.5s34.333 60.833 61 85.5
c24.667 24 56.334 41.333 95.001 52s77.667 16 117 16z" />
    <glyph glyph-name="f_k.liga" unicode="fk" horiz-adv-x="935" 
d="M579 784l-0.00195312 -691c0 -28 5 -47 15 -57s27 -15 51 -15v-21c-14 0.666992 -34.333 1.5 -61 2.5s-54 1.5 -82 1.5c-27.333 0 -54.833 -0.5 -82.5 -1.5s-48.5 -1.83301 -62.5 -2.5v21c22 0 37.5 5 46.5 15s13.5 29 13.5 57v592c0 16 -1.5 28.5 -4.5 37.5
s-7.16699 16.167 -12.5 21.5c-4 5.33301 -10.167 9.83301 -18.5 13.5s-17.833 5.5 -28.5 5.5c-18 0 -32.833 -2.83301 -44.5 -8.5s-22.167 -14.167 -31.5 -25.5c-13.333 -16 -21.5 -36.667 -24.5 -62s-4.5 -61.666 -4.5 -108.999v-41h98v-20h-98v-404
c0 -28.667 6.83301 -47.834 20.5 -57.501s32.834 -14.5 57.501 -14.5v-21c-16 0.666992 -38.333 1.5 -67 2.5s-58 1.5 -88 1.5c-31.333 0 -61 -0.5 -89 -1.5s-49.333 -1.83301 -64 -2.5v21c24.667 0 42.167 5 52.5 15s15.5 29 15.5 57v404h-72v20h72
c0 50.667 6.33301 92.667 19 126s31.334 60.666 56.001 81.999c24.667 20.667 52.334 35.334 83.001 44.001s61 13 91 13c21.333 0 43.166 -1 65.499 -3s46.833 -3 73.5 -3c14.667 0 31.667 0.833008 51 2.5s37.333 3.5 54 5.5zM907.998 518l0.00390625 -19.998
c-22.667 -5.33301 -45.334 -15.5 -68.001 -30.5s-45.334 -34.167 -68.001 -57.5l-56 -57l8 16l166 -296c6.66699 -11.333 13.334 -21.666 20.001 -30.999s15.334 -16.333 26.001 -21v-21c-10.667 0.666992 -26.667 1.5 -48 2.5s-43 1.5 -65 1.5c-25.333 0 -51 -0.5 -77 -1.5
s-45.333 -1.83301 -58 -2.5v21c13.333 0 22.333 3 27 9s4 14.333 -2 25l-93 182c-6.66699 11.333 -13.334 18.666 -20.001 21.999s-15.334 5 -26.001 5v19c12 0.666992 22.5 2.33398 31.5 5.00098s17.5 7.66699 25.5 15l76 73c22.667 22 34.167 41.833 34.5 59.5
s-6.83398 32.167 -21.501 43.5s-33.667 17.666 -57 18.999v20c18.667 -0.666992 39.167 -1.33398 61.5 -2.00098s41.166 -1 56.499 -1c13.333 0 28.333 0.166992 45 0.5s32.5 0.666016 47.5 0.999023s26.5 0.833008 34.5 1.5z" />
    <glyph glyph-name=".notdef" horiz-adv-x="562" 
d="M502 772v-772h-442v772h442zM466 742h-370v-712h370v712z" />
    <glyph glyph-name="CR" unicode="&#xd;" 
 />
    <glyph glyph-name="space" unicode=" " horiz-adv-x="228" 
 />
    <glyph glyph-name="exclam" unicode="!" horiz-adv-x="297" 
d="M149 782c24 0 45.6709 -10 65.0039 -30s29 -47.333 29 -82c0 -30 -4 -62.333 -12 -97s-17.333 -72.167 -28 -112.5s-20.334 -82.5 -29.001 -126.5s-14 -90 -16 -138v0h-18c-2.66699 48 -8.33398 94 -17.001 138s-18.334 86.167 -29.001 126.5
s-19.834 77.833 -27.501 112.5s-11.5 67 -11.5 97c0 34.667 8.83301 62 26.5 82s40.167 30 67.5 30zM149.004 149c28 0 50.333 -7 67 -21s25 -34 25 -60c0 -26.667 -8.33301 -47 -25 -61s-39 -21 -67 -21c-29.333 0 -52 7 -68 21s-24 34.333 -24 61c0 26 8 46 24 60
s38.667 21 68 21z" />
    <glyph glyph-name="quotedbl" unicode="&#x22;" horiz-adv-x="393" 
d="M108 730c20.667 0 37.832 -6.50098 51.499 -19.501s20.5 -30.833 20.5 -53.5c0 -19.333 -3.16699 -37.333 -9.5 -54s-14.5 -35.167 -24.5 -55.5s-20.333 -46.833 -31 -79.5h-14c-10 30.667 -20.167 56.334 -30.5 77.001s-18.666 39.5 -24.999 56.5s-9.5 35.167 -9.5 54.5
c0 22.667 7 40.667 21 54s31 20 51 20zM285.998 729.999c20.667 0 37.832 -6.50098 51.499 -19.501s20.5 -30.833 20.5 -53.5c0 -19.333 -3.16699 -37.333 -9.5 -54s-14.5 -35.167 -24.5 -55.5s-20.333 -46.833 -31 -79.5h-14c-10 30.667 -20.167 56.334 -30.5 77.001
s-18.666 39.5 -24.999 56.5s-9.5 35.167 -9.5 54.5c0 22.667 7 40.667 21 54s31 20 51 20z" />
    <glyph glyph-name="numbersign" unicode="#" horiz-adv-x="615" 
d="M460 602l-97 -501h-20l97 501h20zM542 267l-4 -20h-501l4 20h501zM273 602l-97 -501h-20l97 501h20zM578 454l-3 -20h-501l3 20h501z" />
    <glyph glyph-name="dollar" unicode="$" horiz-adv-x="591" 
d="M289 721c41.333 0 73.333 -4.16797 96 -12.501s42 -17.166 58 -26.499c8 -4.66699 14.5 -8.16699 19.5 -10.5s9.83301 -3.5 14.5 -3.5c10.667 0 18 14.667 22 44h23c-0.666992 -13.333 -1.5 -29 -2.5 -47s-1.66699 -41.833 -2 -71.5s-0.5 -68.834 -0.5 -117.501h-23
c-5.33301 44.667 -14.666 83.667 -27.999 117s-32.5 59.166 -57.5 77.499s-58.5 27.5 -100.5 27.5c-41.333 0 -71.5 -8.16699 -90.5 -24.5s-28.5 -36.833 -28.5 -61.5c0 -12.667 1.83301 -24.834 5.5 -36.501s12 -24.667 25 -39s33.167 -31.833 60.5 -52.5
s64.333 -46 111 -76c31.333 -19.333 59.5 -39.5 84.5 -60.5s44.667 -44.667 59 -71s21.5 -57.833 21.5 -94.5c0 -44 -11.833 -80.5 -35.5 -109.5s-55.334 -50.667 -95.001 -65s-82.834 -21.5 -129.501 -21.5c-43.333 0 -77 4.5 -101 13.5s-42.667 16.5 -56 22.5
c-9.33301 4.66699 -17.666 8.33398 -24.999 11.001s-14.333 4 -21 4c-10.667 0 -18 -14.667 -22 -44h-23c1.33301 16.667 2.16602 36.167 2.49902 58.5s0.666016 51.166 0.999023 86.499s0.5 80.333 0.5 135h23c6 -67.333 17 -120.166 33 -158.499s39 -65.5 69 -81.5
s69 -24 117 -24c50.667 0 86.167 8.83301 106.5 26.5s30.5 39.834 30.5 66.501c0 12 -2 23.5 -6 34.5s-12.5 23.333 -25.5 37s-32.833 30.667 -59.5 51s-63 46.5 -109 78.5c-31.333 20.667 -60.666 41.834 -87.999 63.501s-49.166 46 -65.499 73s-24.5 59.167 -24.5 96.5
c0 42.667 11.167 77.667 33.5 105s51.5 47.5 87.5 60.5s74.333 19.5 115 19.5zM264 839.999v-972h-20v972h20zM366 839.999v-972h-20v972h20z" />
    <glyph glyph-name="percent" unicode="%" horiz-adv-x="724" 
d="M200 761c49.333 0 89.5 -14.332 120.5 -42.999s46.5 -68.667 46.5 -120c0 -50.667 -15.833 -91.334 -47.5 -122.001s-71.5 -46 -119.5 -46c-49.333 0 -89.5 14.333 -120.5 43s-46.5 68.667 -46.5 120c0 50 16 90.5 48 121.5s71.667 46.5 119 46.5zM522 299.001
c-40.667 0 -61 -49.666 -61 -148.999c0 -48.667 5.83301 -85.167 17.5 -109.5s27.5 -36.5 47.5 -36.5c40 0 60 49.333 60 148c0 49.333 -5.5 86.166 -16.5 110.499s-26.833 36.5 -47.5 36.5zM524 317.002c49.333 0 89.5 -14.332 120.5 -42.999s46.5 -68.667 46.5 -120
c0 -50.667 -15.833 -91.334 -47.5 -122.001s-71.5 -46 -119.5 -46c-49.333 0 -89.5 14.333 -120.5 43s-46.5 68.667 -46.5 120c0 50 16 90.5 48 121.5s71.667 46.5 119 46.5zM198 743.003c-40.667 0 -61 -49.666 -61 -148.999c0 -48.667 5.83301 -85.167 17.5 -109.5
s27.5 -36.5 47.5 -36.5c40 0 60 49.333 60 148c0 49.333 -5.5 86.166 -16.5 110.499s-26.833 36.5 -47.5 36.5zM649 824.004l19 -13l-585 -866l-19 13z" />
    <glyph glyph-name="ampersand" unicode="&#x26;" horiz-adv-x="918" 
d="M338 712c26 0 46.834 -1.50195 62.501 -4.50195s29.5 -7.16699 41.5 -12.5c16 -6 31.333 -15.833 46 -29.5s22 -32.167 22 -55.5c0 -21.333 -8.16699 -38.5 -24.5 -51.5s-36.166 -19.5 -59.499 -19.5c-21.333 0 -39.833 5.33301 -55.5 16s-23.5 27.334 -23.5 50.001
c0 18 6.16699 34.167 18.5 48.5s28.833 23.833 49.5 28.5c-6 4 -14.833 7.16699 -26.5 9.5s-23.834 3.5 -36.501 3.5c-34.667 0 -64.667 -11.167 -90 -33.5s-38 -56.166 -38 -101.499c0 -14 2.33301 -29.5 7 -46.5s14 -34.167 28 -51.5c11.333 3.33301 21.5 5.5 30.5 6.5
s16.833 1.5 23.5 1.5c24 0 36 -9 36 -27c0 -6.66699 -2.66699 -12 -8 -16s-12 -6 -20 -6c-10.667 0 -21.667 3.33301 -33 10l-28 17c-28.667 -17.333 -52.167 -38.333 -70.5 -63s-27.5 -57.334 -27.5 -98.001c0 -43.333 11.833 -78.666 35.5 -105.999
s58 -47.666 103 -60.999s98.5 -20 160.5 -20c32.667 0 65.5 3.5 98.5 10.5s63.167 17.667 90.5 32s49.333 32.166 66 53.499s25 46.333 25 75c0 10 -1.16699 22.5 -3.5 37.5s-8.33301 30.333 -18 46s-25.834 28.834 -48.501 39.501l5 8
c31.333 -9.33301 56.166 -29.5 74.499 -60.5s27.5 -67.167 27.5 -108.5c0 -48.667 -15.167 -91.5 -45.5 -128.5s-72.5 -66 -126.5 -87s-116 -31.5 -186 -31.5c-78.667 0 -146.667 10 -204 30s-101.5 48.667 -132.5 86s-46.5 81.666 -46.5 132.999c0 37.333 8 69.333 24 96
s35.667 48.5 59 65.5s46.666 30.333 69.999 40s42 16.167 56 19.5c-31.333 12 -58.666 27.667 -81.999 47s-35 45.333 -35 78c0 23.333 6.16699 43.333 18.5 60s28.833 30.167 49.5 40.5s43.334 18 68.001 23s49 7.5 73 7.5zM741.001 721.998
c48.667 0 87.9971 -12.4971 117.997 -37.4971s45 -60.167 45 -105.5c0 -56.667 -21.333 -99.334 -64 -128.001s-101 -49.667 -175 -63l-27 -7c-10 -2.66699 -20.167 -5.16699 -30.5 -7.5s-20.333 -4.83301 -30 -7.5s-18.5 -5 -26.5 -7c-60.667 -12 -107 -25.167 -139 -39.5
s-48 -34.5 -48 -60.5c0 -16 5.66699 -30.167 17 -42.5s25.833 -21.833 43.5 -28.5s35.5 -10 53.5 -10c6 0 12.167 0.5 18.5 1.5s11.5 2.5 15.5 4.5c-18.667 6.66699 -32 16.334 -40 29.001s-12 26.334 -12 41.001c0 23.333 8.5 41 25.5 53s37.833 18 62.5 18
c26.667 0 47.5 -6.66699 62.5 -20s22.5 -31 22.5 -53c0 -21.333 -6.33301 -38.833 -19 -52.5s-30.167 -23.667 -52.5 -30s-48.166 -9.5 -77.499 -9.5c-28.667 0 -55 5 -79 15s-43 24.667 -57 44s-21 43.666 -21 72.999c0 58 22.833 102 68.5 132s106.834 51.667 183.501 65
c12 2 24.5 4.5 37.5 7.5l40.5 9.5c14 3.33301 27.333 6.66602 40 9.99902c52.667 10 94.5 22.333 125.5 37s46.5 35.667 46.5 63c0 26 -11.833 47 -35.5 63s-49.167 24 -76.5 24c-5.33301 0 -10.5 -0.333008 -15.5 -1s-9.16699 -1.33398 -12.5 -2.00098
c18.667 -7.33301 32.5 -17.333 41.5 -30s13.5 -26 13.5 -40c0 -22 -8.16699 -39 -24.5 -51s-37.166 -18 -62.499 -18c-26 0 -46.833 6.5 -62.5 19.5s-23.5 30.5 -23.5 52.5c0 18 4.83301 33.667 14.5 47s24.167 23.666 43.5 30.999s43.333 11 72 11z" />
    <glyph glyph-name="quotesingle" unicode="'" horiz-adv-x="215" 
d="M108 730c20.667 0 37.832 -6.50098 51.499 -19.501s20.5 -30.833 20.5 -53.5c0 -19.333 -3.16699 -37.333 -9.5 -54s-14.5 -35.167 -24.5 -55.5s-20.333 -46.833 -31 -79.5h-14c-10 30.667 -20.167 56.334 -30.5 77.001s-18.666 39.5 -24.999 56.5s-9.5 35.167 -9.5 54.5
c0 22.667 7 40.667 21 54s31 20 51 20z" />
    <glyph glyph-name="parenleft" unicode="(" horiz-adv-x="326" 
d="M292 806c-83.333 -57.333 -147.5 -126.17 -192.5 -206.503s-67.5 -176.166 -67.5 -287.499s22.5 -207.166 67.5 -287.499s109.167 -149.166 192.5 -206.499l15 12c-41.333 72.667 -71.5 147.167 -90.5 223.5s-28.5 162.5 -28.5 258.5s9.66699 182.667 29 260
s49.333 151.333 90 222z" />
    <glyph glyph-name="parenright" unicode=")" horiz-adv-x="326" 
d="M34 806c83.333 -57.333 147.5 -126.17 192.5 -206.503s67.5 -176.166 67.5 -287.499s-22.5 -207.166 -67.5 -287.499s-109.167 -149.166 -192.5 -206.499l-15 12c41.333 72.667 71.5 147.167 90.5 223.5s28.5 162.5 28.5 258.5s-9.66699 182.667 -29 260
s-49.333 151.333 -90 222z" />
    <glyph glyph-name="asterisk" unicode="*" horiz-adv-x="477" 
d="M348 643c17.333 10 32.3311 12.167 44.998 6.5s22 -14.167 28 -25.5c6.66699 -12 9.33398 -24.667 8.00098 -38s-10.666 -25 -27.999 -35c-16.667 -9.33301 -38 -15.5 -64 -18.5s-58.333 -8.16699 -97 -15.5l-2 3c24.667 28.667 45.167 54 61.5 76s32.5 37.667 48.5 47z
M239.998 520c36.667 -6.66699 68.667 -11.667 96 -15s49 -9.66602 65 -18.999c17.333 -10 26.833 -21.833 28.5 -35.5s-0.833008 -26.167 -7.5 -37.5c-6.66699 -12 -16.167 -20.667 -28.5 -26s-27.166 -3 -44.499 7c-16.667 9.33301 -32.834 24.666 -48.501 45.999
s-36.167 47 -61.5 77zM240.998 518c12 -35.333 23.501 -65.5 34.501 -90.5s16.5 -47.167 16.5 -66.5c0 -20 -5.66699 -34 -17 -42s-23.333 -12 -36 -12c-13.333 0 -25.333 4 -36 12s-16 22 -16 42c0 19.333 5.16699 41 15.5 65s22.166 54.333 35.499 91zM237.999 518
l1.99902 -2c-24.667 -28.667 -45.167 -54 -61.5 -76s-32.5 -37.667 -48.5 -47c-17.333 -10 -32.333 -12.167 -45 -6.5s-22 14.167 -28 25.5c-7.33301 12 -10.166 24.5 -8.49902 37.5s11.167 24.833 28.5 35.5c16.667 9.33301 38 15.5 64 18.5s58.333 7.83301 97 14.5z
M128.998 642c16.667 -9.33301 32.833 -24.502 48.5 -45.502s36.167 -46.833 61.5 -77.5l-1 -3c-36.667 6.66699 -68.667 11.834 -96 15.501s-49 9.83398 -65 18.501c-17.333 10 -26.666 21.833 -27.999 35.5s1 26.167 7 37.5c6.66699 12 16.167 20.667 28.5 26
s27.166 3 44.499 -7zM238.997 728.998c12.667 0 24.502 -4 35.502 -12s16.5 -22 16.5 -42c0 -18.667 -5.33301 -40.167 -16 -64.5s-22.334 -55.166 -35.001 -92.499h-3c-12.667 35.333 -24.334 65.666 -35.001 90.999s-16 47.333 -16 66c0 20 5.5 34 16.5 42
s23.167 12 36.5 12z" />
    <glyph glyph-name="plus" unicode="+" horiz-adv-x="569" 
d="M303 606v-236h232v-30h-232v-235h-36v235h-233v30h233v236h36z" />
    <glyph glyph-name="comma" unicode="," horiz-adv-x="275" 
d="M133 149c16.667 0 31.502 -3.16797 44.502 -9.50098s23.167 -15.166 30.5 -26.499c7.33301 -9.33301 13.166 -22 17.499 -38s6.5 -33 6.5 -51c0 -33.333 -8.66699 -64.5 -26 -93.5s-44 -51.833 -80 -68.5l-9 18c18 8 34.167 19.833 48.5 35.5s23.166 32.167 26.499 49.5
c5.33301 16.667 6 32.667 2 48c-16 -18 -38 -27 -66 -27c-24.667 0 -44.667 7.16699 -60 21.5s-23 34.5 -23 60.5c0 24 8.16699 43.5 24.5 58.5s37.5 22.5 63.5 22.5z" />
    <glyph glyph-name="hyphen" unicode="-" horiz-adv-x="475" 
d="M418 316v-90h-361v90h361z" />
    <glyph glyph-name="period" unicode="." horiz-adv-x="276" 
d="M138 149c28.667 0 51.167 -7 67.5 -21s24.5 -34 24.5 -60c0 -26.667 -8.16699 -47 -24.5 -61s-38.833 -21 -67.5 -21c-29.333 0 -52 7 -68 21s-24 34.333 -24 61c0 26 8 46 24 60s38.667 21 68 21z" />
    <glyph glyph-name="slash" unicode="/" horiz-adv-x="367" 
d="M337 722l-272 -736h-33l272 736h33z" />
    <glyph glyph-name="zero" unicode="0" horiz-adv-x="660" 
d="M335 532c55.333 0 104.168 -10.8311 146.501 -32.498s75.5 -52.334 99.5 -92.001s36 -86.167 36 -139.5s-12.167 -101.333 -36.5 -144s-58.5 -76.334 -102.5 -101.001s-95.333 -37 -154 -37c-53.333 0 -101.333 11 -144 33s-76.334 52.833 -101.001 92.5
s-37 86.5 -37 140.5c0 52.667 12.167 100 36.5 142s58.5 75.5 102.5 100.5s95.333 37.5 154 37.5zM327.002 514.002c-34 0 -61.833 -22.832 -83.5 -68.499s-32.5 -109.167 -32.5 -190.5c0 -60 5.66699 -108.5 17 -145.5s26.333 -63.833 45 -80.5s38.667 -25 60 -25
c34 0 61.667 23.167 83 69.5s32 110.166 32 191.499c0 60 -5.66699 108.167 -17 144.5s-26 62.833 -44 79.5s-38 25 -60 25z" />
    <glyph glyph-name="one" unicode="1" horiz-adv-x="388" 
d="M292 529l-0.00195312 -433.999c0 -28.667 4.83301 -48.167 14.5 -58.5s26.167 -15.5 49.5 -15.5v-21c-13.333 0.666992 -32.833 1.5 -58.5 2.5s-52.167 1.5 -79.5 1.5c-35.333 0 -69.333 -0.5 -102 -1.5s-58 -1.83301 -76 -2.5v21c28.667 0 50.834 5.5 66.501 16.5
s23.5 32.833 23.5 65.5v245c0 32 -2.66699 55.667 -8 71s-14.666 25.333 -27.999 30s-32 7 -56 7v22c60.667 1.33301 110.667 5.66602 150 12.999s74 20 104 38z" />
    <glyph glyph-name="two" unicode="2" horiz-adv-x="538" 
d="M285 532c53.333 0 95.5029 -11.002 126.503 -33.002s46.5 -53.333 46.5 -94c0 -32 -10.167 -60.5 -30.5 -85.5s-45.5 -47.833 -75.5 -68.5s-60.333 -40.5 -91 -59.5s-56.334 -38.5 -77.001 -58.5h221c27.333 0 44.666 3.16699 51.999 9.5s12.333 17.5 15 33.5h22
c0 -47.333 0.333008 -84.333 1 -111s1.66699 -50 3 -70c-8.66699 2 -28.167 3.33301 -58.5 4s-60.5 1 -90.5 1h-310v20c18.667 18.667 41.5 39.834 68.5 63.501s53.667 50.167 80 79.5s48.5 61 66.5 95s27 70.667 27 110c0 34.667 -7.66699 60 -23 76s-38 24 -68 24
c-28.667 0 -53.834 -6.16699 -75.501 -18.5s-41.167 -30.166 -58.5 -53.499l-17 11c22 34.667 52 64.167 90 88.5s90 36.5 156 36.5z" />
    <glyph glyph-name="three" unicode="3" horiz-adv-x="500" 
d="M253 532c51.333 0 94.166 -10.1611 128.499 -30.4941s51.5 -48.5 51.5 -84.5c0 -25.333 -8.66699 -49 -26 -71s-42.5 -41.333 -75.5 -58s-72.833 -28.667 -119.5 -36c50 2 94.333 -2.5 133 -13.5s69 -28.333 91 -52s33 -52.834 33 -87.501
c0 -38.667 -13.167 -73.334 -39.5 -104.001s-61.166 -56.834 -104.499 -78.501s-91 -38.334 -143 -50.001s-103.667 -17.5 -155 -17.5v20c30 1.33301 61 7 93 17s61.833 24.667 89.5 44s50 43 67 71s25.5 60.333 25.5 97c0 39.333 -9.33301 71.5 -28 96.5
s-44.334 38.833 -77.001 41.5l-27.5 -11c-8.33301 -3.33301 -16.833 -5 -25.5 -5c-12.667 0 -19 5 -19 15c0 8 3.33301 13.667 10 17s14.667 5 24 5c5.33301 0 10.833 -0.333008 16.5 -1s11.834 -1.33398 18.501 -2.00098c28.667 20 48.667 41.167 60 63.5
s17 44.833 17 67.5c0 29.333 -8 51.166 -24 65.499s-38 21.5 -66 21.5c-25.333 0 -49.5 -6.16699 -72.5 -18.5s-42.167 -30.833 -57.5 -55.5l-17 9c12.667 22 28.167 42.5 46.5 61.5s41.5 34.333 69.5 46s62.333 17.5 103 17.5z" />
    <glyph glyph-name="four" unicode="4" horiz-adv-x="539" 
d="M394 532l4.00098 -25.998l-322 -401l18 40h323c27.333 0 44.666 3.16699 51.999 9.5s12.333 17.5 15 33.5h22c0 -42.667 0.333008 -75.834 1 -99.501s1.66699 -44.834 3 -63.501c-6 1.33301 -19.667 2.33301 -41 3s-45 1.16699 -71 1.5s-49 0.5 -69 0.5h-324v21z
M410.001 532.002v-673h-128v520l112 153h16z" />
    <glyph glyph-name="five" unicode="5" horiz-adv-x="474" 
d="M402 552c0 -46 0.334961 -81.8311 1.00195 -107.498s1.66699 -48.167 3 -67.5c-8.66699 2 -27 3.33301 -55 4s-56 1 -84 1h-170l-18 -164c17.333 12 39.5 22.167 66.5 30.5s59.167 12.5 96.5 12.5c69.333 0 120.166 -15.5 152.499 -46.5s48.5 -68.5 48.5 -112.5
c0 -38.667 -12.167 -73.334 -36.5 -104.001s-56.833 -57 -97.5 -79s-85.667 -38.667 -135 -50s-99 -17 -149 -17v18c42 0.666992 82 9.66699 120 27s69.333 43 94 77s37 75 37 123c0 41.333 -9.33301 73.166 -28 95.499s-46.334 33.5 -83.001 33.5
c-20 0 -37.167 -3 -51.5 -9s-28.166 -14 -41.499 -24l-15 10l36 318c7.33301 -1.33301 15.833 -2.33301 25.5 -3s19.167 -1 28.5 -1h182c17.333 0 29.666 2.66699 36.999 8s12 14.333 14 27h22z" />
    <glyph glyph-name="six" unicode="6" horiz-adv-x="576" 
d="M464 723l4.00195 -19.9971c-31.333 -10 -62 -23.167 -92 -39.5s-57.167 -39.833 -81.5 -70.5s-43.833 -72.5 -58.5 -125.5s-22 -121.167 -22 -204.5c0 -64.667 4.33301 -115.834 13 -153.501s19.667 -64.334 33 -80.001s26.666 -23.5 39.999 -23.5
c20.667 0 39.167 16.167 55.5 48.5s24.5 86.166 24.5 161.499c0 71.333 -7.66699 121.833 -23 151.5s-33.666 44.5 -54.999 44.5c-10 0 -21.5 -3.33301 -34.5 -10s-25 -17.334 -36 -32.001s-18.833 -34.667 -23.5 -60l-10 7c4.66699 30.667 14.334 55 29.001 73
s32.5 31 53.5 39s43.167 12 66.5 12c37.333 0 71.166 -8.66699 101.499 -26s54.666 -42.166 72.999 -74.499s27.5 -70.833 27.5 -115.5c0 -51.333 -12 -94.833 -36 -130.5s-55.667 -62.667 -95 -81s-82.333 -27.5 -129 -27.5c-76 0 -135.667 24.833 -179 74.5
s-65 119.834 -65 210.501c0 60 9 113.333 27 160s42 87.167 72 121.5s63.333 63.166 100 86.499s74.167 41.833 112.5 55.5s74.166 23.167 107.499 28.5z" />
    <glyph glyph-name="seven" unicode="7" horiz-adv-x="472" 
d="M22 522c9.33301 -2 28.999 -3.33301 58.999 -4s60 -1 90 -1h302v-21c-12.667 -28.667 -28.834 -60 -48.501 -94s-39.5 -71 -59.5 -111s-36.5 -83 -49.5 -129s-19.5 -95.333 -19.5 -148c0 -2 0.5 -8.5 1.5 -19.5s1.83301 -22.5 2.5 -34.5s1 -21 1 -27
c0 -20 -6.66699 -38.5 -20 -55.5s-34 -25.5 -62 -25.5s-48.667 9.16699 -62 27.5s-20 41.833 -20 70.5c0 34.667 6.83301 69 20.5 103s31.834 67.667 54.501 101s46.667 66 72 98l74.5 91.5c24.333 29 44.833 55.833 61.5 80.5l-20 -41h-285
c-27.333 0 -44.666 -3.16699 -51.999 -9.5s-12.333 -17.5 -15 -33.5h-22c0 47.333 -0.333008 84.5 -1 111.5s-1.66699 50.5 -3 70.5z" />
    <glyph glyph-name="eight" unicode="8" horiz-adv-x="574" 
d="M294 722c61.333 0 111.164 -13.1709 149.497 -39.5039s57.5 -60.166 57.5 -101.499c0 -34 -13.167 -63.333 -39.5 -88s-63.5 -48.334 -111.5 -71.001l-8 14c12 18.667 20.167 41.834 24.5 69.501s6.5 50.5 6.5 68.5c0 41.333 -7.66699 73.333 -23 96s-36.333 34 -63 34
c-20.667 0 -36.5 -7 -47.5 -21s-16.5 -32 -16.5 -54c0 -27.333 7.66699 -53.5 23 -78.5s34.833 -49.167 58.5 -72.5s48.834 -46.5 75.501 -69.5s51.834 -46.667 75.501 -71s43.167 -49.833 58.5 -76.5s23 -55.667 23 -87c0 -36.667 -11 -69 -33 -97
s-52.167 -50.167 -90.5 -66.5s-82.166 -24.5 -131.499 -24.5c-42.667 0 -82.5 6.5 -119.5 19.5s-66.667 32.333 -89 58s-33.5 57.167 -33.5 94.5c0 46.667 16.833 85.5 50.5 116.5s74.834 56.167 123.501 75.5l8 -14c-17.333 -21.333 -29.333 -46.166 -36 -74.499
s-10 -56.5 -10 -84.5c0 -31.333 3.5 -60.166 10.5 -86.499s18.5 -47.333 34.5 -63s38 -23.5 66 -23.5c31.333 0 54.666 9.5 69.999 28.5s23 42.833 23 71.5c0 30.667 -7.5 58.5 -22.5 83.5s-34 48.833 -57 71.5s-47.667 45 -74 67s-51 44.5 -74 67.5s-42 47.833 -57 74.5
s-22.5 56.334 -22.5 89.001c0 38 10.5 69.167 31.5 93.5s48.333 42.333 82 54s69.5 17.5 107.5 17.5z" />
    <glyph glyph-name="nine" unicode="9" horiz-adv-x="567" 
d="M285 532c76 0 135.832 -24.5029 179.499 -73.5029s65.5 -118.167 65.5 -207.5c0 -52.667 -8.83301 -100 -26.5 -142s-41.334 -78.333 -71.001 -109s-62.5 -56.667 -98.5 -78s-72.667 -38.166 -110 -50.499s-72.333 -20.5 -105 -24.5l-4 20
c30 8.66699 59.5 20.334 88.5 35.001s55.333 35.834 79 63.501s42.667 65 57 112s21.5 107.5 21.5 181.5c0 64 -4.5 114.333 -13.5 151s-20 62.834 -33 78.501s-26.5 23.5 -40.5 23.5c-20 0 -38.167 -16 -54.5 -48s-24.5 -86 -24.5 -162c0 -71.333 7.5 -121.833 22.5 -151.5
s33.167 -44.5 54.5 -44.5c10.667 0 22.334 3.33301 35.001 10s24.667 17.5 36 32.5s19.333 34.833 24 59.5l9 -7c-3.33301 -30 -12.5 -54.167 -27.5 -72.5s-33.167 -31.5 -54.5 -39.5s-43.666 -12 -66.999 -12c-36 0 -69.333 8.83301 -100 26.5s-55.167 42.667 -73.5 75
s-27.5 70.5 -27.5 114.5c0 52 12 95.667 36 131s55.5 62.166 94.5 80.499s81.833 27.5 128.5 27.5z" />
    <glyph glyph-name="colon" unicode=":" horiz-adv-x="298" 
d="M149 532c28.667 0 51.167 -7 67.5 -21s24.5 -34 24.5 -60c0 -26.667 -8.16699 -47 -24.5 -61s-38.833 -21 -67.5 -21c-29.333 0 -52 7 -68 21s-24 34.333 -24 61c0 26 8 46 24 60s38.667 21 68 21zM149 149c28.667 0 51.167 -7 67.5 -21s24.5 -34 24.5 -60
c0 -26.667 -8.16699 -47 -24.5 -61s-38.833 -21 -67.5 -21c-29.333 0 -52 7 -68 21s-24 34.333 -24 61c0 26 8 46 24 60s38.667 21 68 21z" />
    <glyph glyph-name="semicolon" unicode=";" horiz-adv-x="300" 
d="M145 149c16.667 0 31.502 -3.16797 44.502 -9.50098s23.167 -15.166 30.5 -26.499c7.33301 -9.33301 13.166 -22 17.499 -38s6.5 -33 6.5 -51c0 -33.333 -8.66699 -64.5 -26 -93.5s-44 -51.833 -80 -68.5l-9 18c18 8 34.167 19.833 48.5 35.5s23.166 32.167 26.499 49.5
c5.33301 16.667 6 32.667 2 48c-16 -18 -38 -27 -66 -27c-24.667 0 -44.667 7.16699 -60 21.5s-23 34.5 -23 60.5c0 24 8.16699 43.5 24.5 58.5s37.5 22.5 63.5 22.5zM150.002 531.999c28.667 0 51.167 -7 67.5 -21s24.5 -34 24.5 -60c0 -26.667 -8.16699 -47 -24.5 -61
s-38.833 -21 -67.5 -21c-29.333 0 -52 7 -68 21s-24 34.333 -24 61c0 26 8 46 24 60s38.667 21 68 21z" />
    <glyph glyph-name="less" unicode="&#x3c;" horiz-adv-x="600" 
d="M515 582l17 -36l-409 -191l409 -191l-17 -36l-487 227z" />
    <glyph glyph-name="equal" unicode="=" horiz-adv-x="631" 
d="M566 440v-30h-501v30h501zM566 300v-30h-501v30h501z" />
    <glyph glyph-name="greater" unicode="&#x3e;" horiz-adv-x="600" 
d="M85 582l-17 -36l409 -191l-409 -191l17 -36l487 227z" />
    <glyph glyph-name="question" unicode="?" horiz-adv-x="524" 
d="M244 782c74 0 134.17 -16 180.503 -48s69.5 -76 69.5 -132c0 -56.667 -24.5 -103.5 -73.5 -140.5s-112.833 -64.167 -191.5 -81.5v-146h-20v155c35.333 16.667 61.833 35 79.5 55s29.5 41.667 35.5 65s9 48 9 74c0 63.333 -10.833 109 -32.5 137s-49.834 42 -84.501 42
c-18.667 0 -35.334 -2 -50.001 -6s-25.667 -9.33301 -33 -16c20 -7.33301 35.167 -17.5 45.5 -30.5s15.5 -29.833 15.5 -50.5c0 -22 -8 -40.5 -24 -55.5s-37.333 -22.5 -64 -22.5c-22.667 0 -41 7.5 -55 22.5s-21 32.5 -21 52.5c0 22 5.66699 40.167 17 54.5
s25.666 26.5 42.999 36.5c16.667 9.33301 38 17.5 64 24.5s56 10.5 90 10.5zM221.003 149c28 0 50.333 -7 67 -21s25 -34 25 -60c0 -26.667 -8.33301 -47 -25 -61s-39 -21 -67 -21c-29.333 0 -52 7 -68 21s-24 34.333 -24 61c0 26 8 46 24 60s38.667 21 68 21z" />
    <glyph glyph-name="at" unicode="@" horiz-adv-x="886" 
d="M534 668c60 0 114.169 -9.33301 162.502 -28s86.666 -48.167 114.999 -88.5s42.5 -93.166 42.5 -158.499c0 -56 -9.16699 -106.667 -27.5 -152s-42.5 -84 -72.5 -116s-62.333 -56.5 -97 -73.5s-68.334 -25.5 -101.001 -25.5c-25.333 0 -44.166 4.66699 -56.499 14
s-19.833 21.166 -22.5 35.499s-2.5 29.5 0.5 45.5s6.5 31.333 10.5 46l60 297c23.333 0 47.166 1 71.499 3s46.833 5.66699 67.5 11l-77 -359c-4.66699 -20.667 -6.16699 -36.834 -4.5 -48.501s10.834 -14.167 27.501 -7.5c21.333 8 43.5 21.167 66.5 39.5
s44.667 41.333 65 69s37 60.167 50 97.5s19.5 79 19.5 125c0 62 -13.667 111.667 -41 149s-63.666 64.5 -108.999 81.5s-95 25.5 -149 25.5c-62 0 -121.333 -13.5 -178 -40.5s-107 -63.833 -151 -110.5s-78.833 -100.334 -104.5 -161.001s-38.5 -125 -38.5 -193
c0 -68.667 13.5 -124.167 40.5 -166.5s63.667 -73.166 110 -92.499s98.833 -29 157.5 -29c36 0 71.167 4.16699 105.5 12.5s67.833 22.166 100.5 41.499l7 -13c-24.667 -17.333 -55.334 -31.5 -92.001 -42.5s-77.334 -16.5 -122.001 -16.5
c-63.333 0 -119.5 10.667 -168.5 32s-87.667 54.333 -116 99s-42.5 102.334 -42.5 173.001c0 67.333 12.667 132.333 38 195s60.5 118.834 105.5 168.501s97.167 89 156.5 118s123 43.5 191 43.5zM460.002 478c22 0 39.3281 -5.5 51.9951 -16.5s21.334 -24.833 26.001 -41.5
s5.33398 -33.667 2.00098 -51l-11 -8c2 10 2.16699 21 0.5 33s-5.66699 22.5 -12 31.5s-15.166 13.5 -26.499 13.5c-14.667 0 -29.5 -8 -44.5 -24s-28.833 -37.5 -41.5 -64.5s-22.834 -57 -30.501 -90s-11.5 -66.833 -11.5 -101.5c0 -30 3.16699 -50.667 9.5 -62
s15.5 -17 27.5 -17c20.667 0 39.334 13.167 56.001 39.5s32.334 63.5 47.001 111.5l5 -16c-12.667 -48 -27.5 -85.833 -44.5 -113.5s-36 -47.167 -57 -58.5s-43.167 -17 -66.5 -17c-34 0 -62.5 10.667 -85.5 32s-34.5 55 -34.5 101c0 34.667 6.33301 70.667 19 108
s30.167 71.833 52.5 103.5s47.833 57.5 76.5 77.5s59.334 30 92.001 30z" />
    <glyph glyph-name="A" unicode="A" horiz-adv-x="680" 
d="M383 709l242.003 -625.001c10 -23.333 20.5 -39.666 31.5 -48.999s20.833 -14.333 29.5 -15v-20c-21.333 1.33301 -46.833 2.16602 -76.5 2.49902s-59.834 0.5 -90.501 0.5c-32 0 -62.333 -0.166992 -91 -0.5s-51.667 -1.16602 -69 -2.49902v20
c34 1.33301 55.667 7.16602 65 17.499s7.33301 32.5 -6 66.5l-166 454l20 30l-146 -377c-20 -53.333 -29.833 -93.5 -29.5 -120.5s8.66602 -45.167 24.999 -54.5s37.833 -14.666 64.5 -15.999v-20c-23.333 1.33301 -44.833 2.16602 -64.5 2.49902s-40.834 0.5 -63.501 0.5
c-13.333 0 -26.833 -0.166992 -40.5 -0.5s-25.5 -1.16602 -35.5 -2.49902v20c14.667 2.66699 29.5 12 44.5 28s29.833 43.667 44.5 83l225 578c13.333 -1.33301 27.833 -2 43.5 -2s30.167 0.666992 43.5 2zM435.003 287.999v-20h-298l10 20h288z" />
    <glyph glyph-name="B" unicode="B" horiz-adv-x="688" 
d="M31 708c18 -0.666992 42 -1.33789 72 -2.00488s60 -1 90 -1c32.667 0 64.167 0.333008 94.5 1s51.833 1 64.5 1c86.667 0 151.5 -14.667 194.5 -44s64.5 -67 64.5 -113c0 -23.333 -7.66699 -47.166 -23 -71.499s-38.833 -46 -70.5 -65s-72.167 -32.167 -121.5 -39.5v-2
c65.333 -4 117.5 -15.167 156.5 -33.5s67.167 -40.166 84.5 -65.499s26 -51.666 26 -78.999c0 -64.667 -25.667 -113.167 -77 -145.5s-121.666 -48.5 -210.999 -48.5c-16 0 -39.333 0.5 -70 1.5s-67.334 1.5 -110.001 1.5c-31.333 0 -62 -0.166992 -92 -0.5
s-54 -1.16602 -72 -2.49902v20c20.667 1.33301 36.167 4 46.5 8s17.333 12 21 24s5.5 30 5.5 54v496c0 24.667 -1.83301 42.834 -5.5 54.501s-10.667 19.667 -21 24s-25.833 6.83301 -46.5 7.5v20zM343 687.996c-24.667 0 -40.501 -5.66699 -47.501 -17
s-10.5 -34.333 -10.5 -69v-496c0 -34.667 4.33301 -57.167 13 -67.5s26.667 -15.5 54 -15.5c42.667 0 73.834 15.167 93.501 45.5s29.5 73.5 29.5 129.5c0 51.333 -12.5 91 -37.5 119s-66.5 42 -124.5 42h-79v8.5v8.5h86c28.667 0 50.667 7.5 66 22.5s26 35 32 60
s9 51.833 9 80.5c0 49.333 -6.5 86.5 -19.5 111.5s-34.5 37.5 -64.5 37.5z" />
    <glyph glyph-name="C" unicode="C" horiz-adv-x="711" 
d="M405 722c44 0 80.1709 -6.49902 108.504 -19.499s53.5 -28.167 75.5 -45.5c13.333 -10 23.5 -11.167 30.5 -3.5s11.833 25.834 14.5 54.501h23c-1.33301 -26 -2.33301 -58 -3 -96s-1 -88 -1 -150h-23c-2.66699 31.333 -6.83398 58.666 -12.501 81.999
s-13.834 44 -24.501 62s-26 34 -46 48c-15.333 12.667 -32.5 22.5 -51.5 29.5s-38.5 10.5 -58.5 10.5c-36.667 0 -67.5 -10.167 -92.5 -30.5s-45 -47 -60 -80s-25.667 -69.667 -32 -110s-9.5 -80.833 -9.5 -121.5c0 -41.333 3.33301 -82.166 10 -122.499
s17.5 -76.833 32.5 -109.5s35.167 -58.834 60.5 -78.501s56.333 -29.5 93 -29.5c19.333 0 38.5 3.33301 57.5 10s36.167 16.334 51.5 29.001c29.333 20 49.166 46.167 59.499 78.5s17.833 74.5 22.5 126.5h23c0 -64.667 0.333008 -116.834 1 -156.501
s1.66699 -72.834 3 -99.501h-23c-2.66699 28.667 -7.16699 46.667 -13.5 54s-16.833 6.33301 -31.5 -3c-24.667 -17.333 -50.834 -32.5 -78.501 -45.5s-63.167 -19.5 -106.5 -19.5c-72.667 0 -136.5 14.333 -191.5 43s-97.667 70 -128 124s-45.5 119 -45.5 195
c0 74.667 15.667 140 47 196s74.5 99.667 129.5 131s118.167 47 189.5 47z" />
    <glyph glyph-name="D" unicode="D" horiz-adv-x="793" 
d="M352 708c136 0 236.831 -29.8359 302.498 -89.5029s98.5 -145.167 98.5 -256.5c0 -72.667 -16.167 -136.167 -48.5 -190.5s-79.166 -96.5 -140.499 -126.5s-135 -45 -221 -45c-16 0 -39 0.5 -69 1.5s-56.333 1.5 -79 1.5c-31.333 0 -62 -0.166992 -92 -0.5
s-54 -1.16602 -72 -2.49902v20c20.667 1.33301 36.167 4 46.5 8s17.333 12 21 24s5.5 30 5.5 54v496c0 24.667 -1.83301 42.834 -5.5 54.501s-10.667 19.667 -21 24s-25.833 6.83301 -46.5 7.5v20c18 -0.666992 42 -1.5 72 -2.5s60 -1.16699 90 -0.5
c24 0.666992 51.333 1.33398 82 2.00098s56.334 1 77.001 1zM358.998 689.997c-30.667 0 -50.668 -5.66797 -60.001 -17.001s-14 -34.333 -14 -69v-500c0 -34.667 4.83301 -57.667 14.5 -69s29.834 -17 60.501 -17c50.667 0 91 13.167 121 39.5s51.5 64.833 64.5 115.5
s19.5 112.334 19.5 185.001c0 112 -16.167 195.333 -48.5 250s-84.833 82 -157.5 82z" />
    <glyph glyph-name="E" unicode="E" horiz-adv-x="642" 
d="M578 708c-2.66699 -31.333 -4.50195 -61.668 -5.50195 -91.001s-1.5 -51.666 -1.5 -66.999c0 -13.333 0.333008 -26.166 1 -38.499s1.33398 -22.833 2.00098 -31.5h-23c-7.33301 52 -19.166 93 -35.499 123s-36.333 51.167 -60 63.5s-49.834 18.5 -78.501 18.5h-27
c-18.667 0 -32.667 -1.5 -42 -4.5s-15.5 -9.16699 -18.5 -18.5s-4.5 -24 -4.5 -44v-528c0 -19.333 1.5 -33.833 4.5 -43.5s9.16699 -16 18.5 -19s23.333 -4.5 42 -4.5h41c26 0 50.833 6.83301 74.5 20.5s44.834 37 63.501 70s32.667 77.833 42 134.5h23
c-2 -22.667 -3 -52 -3 -88c0 -16 0.333008 -38.667 1 -68s2.66699 -60 6 -92c-34 1.33301 -72.333 2.16602 -115 2.49902s-80.667 0.5 -114 0.5h-93.5c-39 0 -80.167 -0.166992 -123.5 -0.5s-83.666 -1.16602 -120.999 -2.49902v20c20.667 1.33301 36.167 4 46.5 8
s17.333 12 21 24s5.5 30 5.5 54v496c0 24.667 -1.83301 42.834 -5.5 54.501s-10.667 19.667 -21 24s-25.833 6.83301 -46.5 7.5v20c37.333 -0.666992 77.666 -1.33398 120.999 -2.00098s84.5 -1 123.5 -1h93.5c30.667 0 65.5 0.166992 104.5 0.5
s73.833 1.16602 104.5 2.49902zM426.998 365.998v-10v-10h-172v10v10h172zM455.998 497.998c-2.66699 -38 -3.83203 -66.999 -3.49902 -86.999s0.5 -38.333 0.5 -55s0.333008 -35 1 -55s2.33398 -49 5.00098 -87h-23c-3.33301 24 -10.333 46 -21 66s-25 36 -43 48
s-40 18 -66 18v20c26 0 47.667 7.16699 65 21.5s31.166 31.666 41.499 51.999s17.166 39.833 20.499 58.5h23z" />
    <glyph glyph-name="F" unicode="F" horiz-adv-x="600" 
d="M578 708c-2.66699 -32 -4.5 -62.665 -5.5 -91.998s-1.5 -52 -1.5 -68c0 -14.667 0.333008 -28.334 1 -41.001s1.33398 -23.667 2.00098 -33h-23c-10 53.333 -23.833 95.5 -41.5 126.5s-38 52.833 -61 65.5s-48.167 19 -75.5 19h-23c-18 0 -31.833 -1.5 -41.5 -4.5
s-16 -9.16699 -19 -18.5s-4.5 -24 -4.5 -44v-504c0 -26.667 2.66699 -46.5 8 -59.5s16 -21.5 32 -25.5s39 -6.33301 69 -7v-22c-22 0.666992 -50.333 1.33398 -85 2.00098s-71 1 -109 1c-30 0 -59.5 -0.333008 -88.5 -1s-55.833 -1.33398 -80.5 -2.00098v20
c20.667 1.33301 36.167 4 46.5 8s17.333 12 21 24s5.5 30 5.5 54v496c0 24.667 -1.83301 42.834 -5.5 54.501s-10.667 19.667 -21 24s-25.833 6.83301 -46.5 7.5v20c37.333 -0.666992 77.666 -1.33398 120.999 -2.00098s84.5 -1 123.5 -1h93.5
c30.667 0 65.5 0.166992 104.5 0.5s73.833 1.16602 104.5 2.49902zM431 364.002v-10v-10h-176v10v10h176zM458 496.002c-2.66699 -38 -3.83203 -66.999 -3.49902 -86.999s0.5 -38.333 0.5 -55s0.333008 -35 1 -55s2.33398 -49 5.00098 -87h-23c-4 24 -11.333 46 -22 66
s-24.834 36 -42.501 48s-39.834 18 -66.501 18v20c26.667 0 48.5 7.16699 65.5 21.5s30.667 31.666 41 51.999s17.5 39.833 21.5 58.5h23z" />
    <glyph glyph-name="G" unicode="G" horiz-adv-x="745" 
d="M414 722c46 0 83.6709 -6.33691 113.004 -19.0039s55.666 -28 78.999 -46c7.33301 -6 14 -9 20 -9c12.667 0 21 20 25 60h23c-1.33301 -26 -2.33301 -58 -3 -96s-1 -88 -1 -150h-23c-4.66699 44 -12.334 81.5 -23.001 112.5s-31 57.5 -61 79.5
c-15.333 12.667 -33.5 22.5 -54.5 29.5s-41.833 10.5 -62.5 10.5c-37.333 0 -68.833 -10.167 -94.5 -30.5s-46.5 -47 -62.5 -80s-27.5 -69.667 -34.5 -110s-10.5 -80.833 -10.5 -121.5c0 -120 15.5 -207.667 46.5 -263s74.167 -83 129.5 -83c13.333 0 25 1.5 35 4.5
s18.333 6.83301 25 11.5c8.66699 6 14.667 13 18 21s5 18 5 30v99c0 31.333 -2.66699 54.833 -8 70.5s-15.166 26.334 -29.499 32.001s-35.5 8.83398 -63.5 9.50098v20c14.667 -0.666992 32.334 -1.16699 53.001 -1.5l65 -1c22.667 -0.333008 43.667 -0.5 63 -0.5
c30 0 57.5 0.333008 82.5 1s45.5 1.33398 61.5 2.00098v-20c-18 -1.33301 -29.667 -6.66602 -35 -15.999s-8 -32.666 -8 -69.999v-198h-20c-0.666992 11.333 -3.33398 23.666 -8.00098 36.999s-12.334 20 -23.001 20c-4.66699 0 -11.334 -1.33301 -20.001 -4
s-22.334 -8.66699 -41.001 -18c-24.667 -13.333 -51.167 -24.833 -79.5 -34.5s-57.166 -14.5 -86.499 -14.5c-120.667 0 -211.834 31.833 -273.501 95.5s-92.5 152.167 -92.5 265.5c0 75.333 16 141 48 197s76.167 99.667 132.5 131s120.833 47 193.5 47z" />
    <glyph glyph-name="H" unicode="H" horiz-adv-x="815" 
d="M457 0l0.000976562 20c20.667 1.33301 36.167 4 46.5 8s17.333 12 21 24s5.5 30 5.5 54v496c0 24.667 -1.83301 42.834 -5.5 54.501s-10.667 19.667 -21 24s-25.833 6.83301 -46.5 7.5v20c19.333 -0.666992 44.333 -1.33398 75 -2.00098s61.334 -1 92.001 -1
c32.667 0 63.167 0.333008 91.5 1s51.166 1.33398 68.499 2.00098v-20c-20.667 -0.666992 -36.334 -3.16699 -47.001 -7.5s-17.667 -12.333 -21 -24s-5 -29.834 -5 -54.501v-496c0 -24 1.83301 -42 5.5 -54s10.667 -20 21 -24s25.833 -6.66699 46.5 -8v-20
c-17.333 1.33301 -40.166 2.16602 -68.499 2.49902s-58.833 0.5 -91.5 0.5c-30.667 0 -61.334 -0.166992 -92.001 -0.5s-55.667 -1.16602 -75 -2.49902zM31.001 0l0.000976562 20c20.667 1.33301 36.167 4 46.5 8s17.333 12 21 24s5.5 30 5.5 54v496
c0 24.667 -1.83301 42.834 -5.5 54.501s-10.667 19.667 -21 24s-25.833 6.83301 -46.5 7.5v20c18 -0.666992 42 -1.33398 72 -2.00098s62 -1 96 -1c29.333 0 58.5 0.333008 87.5 1s52.833 1.33398 71.5 2.00098v-20c-20.667 -0.666992 -36.334 -3.16699 -47.001 -7.5
s-17.667 -12.333 -21 -24s-5 -29.834 -5 -54.501v-496c0 -24 1.83301 -42 5.5 -54s10.667 -20 21 -24s25.833 -6.66699 46.5 -8v-20c-18.667 1.33301 -42.5 2.16602 -71.5 2.49902s-58.167 0.5 -87.5 0.5c-34 0 -66 -0.166992 -96 -0.5s-54 -1.16602 -72 -2.49902z
M210.002 346v20h395v-20h-395z" />
    <glyph glyph-name="I" unicode="I" horiz-adv-x="389" 
d="M358 708l0.000976562 -20c-20.667 -0.666992 -36.334 -3.16699 -47.001 -7.5s-17.667 -12.333 -21 -24s-5 -29.834 -5 -54.501v-496c0 -24 1.83301 -42 5.5 -54s10.667 -20 21 -24s25.833 -6.66699 46.5 -8v-20c-18.667 1.33301 -42.5 2.16602 -71.5 2.49902
s-58.167 0.5 -87.5 0.5c-34 0 -66 -0.166992 -96 -0.5s-54 -1.16602 -72 -2.49902v20c20.667 1.33301 36.167 4 46.5 8s17.333 12 21 24s5.5 30 5.5 54v496c0 24.667 -1.83301 42.834 -5.5 54.501s-10.667 19.667 -21 24s-25.833 6.83301 -46.5 7.5v20
c18 -0.666992 42 -1.33398 72 -2.00098s62 -1 96 -1c29.333 0 58.5 0.333008 87.5 1s52.833 1.33398 71.5 2.00098z" />
    <glyph glyph-name="J" unicode="J" horiz-adv-x="377" 
d="M-24 -188l0.00195312 20.999c25.333 2.66699 47.166 10.334 65.499 23.001s32.5 34.667 42.5 66s15 75.333 15 132v548c0 24.667 -1.83301 42.834 -5.5 54.501s-10.834 19.667 -21.501 24s-26 6.83301 -46 7.5v20c16.667 -0.666992 39.334 -1.33398 68.001 -2.00098
s58.667 -1 90 -1c32 0 63.167 0.333008 93.5 1s55.5 1.33398 75.5 2.00098v-20c-20.667 -0.666992 -36.334 -3.16699 -47.001 -7.5s-17.667 -12.333 -21 -24s-5 -29.834 -5 -54.501v-366v-88.5c0 -31.667 -1.16699 -62.5 -3.5 -92.5s-6.83301 -56.667 -13.5 -80
c-14 -46 -44.667 -84.667 -92 -116s-112.333 -47 -195 -47z" />
    <glyph glyph-name="K" unicode="K" horiz-adv-x="734" 
d="M714 708v-19.002c-22 -5.33301 -46 -15.5 -72 -30.5s-53.667 -39.167 -83 -72.5l-185 -216l69 94l237 -383c9.33301 -14.667 18.833 -26.667 28.5 -36s22.5 -17.666 38.5 -24.999v-20c-26 1.33301 -54 2.16602 -84 2.49902s-58 0.5 -84 0.5
c-14.667 0 -32.667 -0.166992 -54 -0.5s-48.333 -1.16602 -81 -2.49902v20c29.333 1.33301 46.666 5 51.999 11s3 17.333 -7 34l-146 240c-8 14 -15.167 24.333 -21.5 31s-12.5 11.5 -18.5 14.5s-14 4.83301 -24 5.5v20c29.333 1.33301 56.333 10.333 81 27
s52.667 43.334 84 80.001l47 55c26.667 30.667 41.5 57 44.5 79s-2.66699 39.333 -17 52s-34.5 19.334 -60.5 20.001v19c26.667 -0.666992 51.334 -1.33398 74.001 -2.00098s50.667 -1 84 -1c40 0 72.667 1 98 3zM358 707.998l0.000976562 -20
c-20.667 -0.666992 -36.334 -3.16699 -47.001 -7.5s-17.667 -12.333 -21 -24s-5 -29.834 -5 -54.501v-496c0 -24 1.83301 -42 5.5 -54s10.667 -20 21 -24s25.833 -6.66699 46.5 -8v-20c-18.667 1.33301 -42.5 2.16602 -71.5 2.49902s-58.167 0.5 -87.5 0.5
c-34 0 -66 -0.166992 -96 -0.5s-54 -1.16602 -72 -2.49902v20c20.667 1.33301 36.167 4 46.5 8s17.333 12 21 24s5.5 30 5.5 54v496c0 24.667 -1.83301 42.834 -5.5 54.501s-10.667 19.667 -21 24s-25.833 6.83301 -46.5 7.5v20c18 -0.666992 42 -1.33398 72 -2.00098
s62 -1 96 -1c29.333 0 58.5 0.333008 87.5 1s52.833 1.33398 71.5 2.00098z" />
    <glyph glyph-name="L" unicode="L" horiz-adv-x="618" 
d="M366 708l-0.000976562 -20c-22.667 -0.666992 -39.834 -3.16699 -51.501 -7.5s-19.5 -12.333 -23.5 -24s-6 -29.834 -6 -54.501v-512c0 -19.333 1.5 -33.833 4.5 -43.5s8.5 -16 16.5 -19s20 -4.5 36 -4.5h41c26.667 0 53.167 10.5 79.5 31.5s49.333 49.333 69 85
s32.834 75.167 39.501 118.5h23c-2 -23.333 -3 -53.333 -3 -90c0 -16.667 0.333008 -40.5 1 -71.5s2.66699 -63.167 6 -96.5c-34 1.33301 -72.333 2.16602 -115 2.49902s-80.667 0.5 -114 0.5h-93.5c-39 0 -80.167 -0.166992 -123.5 -0.5
s-83.666 -1.16602 -120.999 -2.49902v20c20.667 1.33301 36.167 4 46.5 8s17.333 12 21 24s5.5 30 5.5 54v496c0 24.667 -1.83301 42.834 -5.5 54.501s-10.667 19.667 -21 24s-25.833 6.83301 -46.5 7.5v20c18 -0.666992 42 -1.33398 72 -2.00098s62 -1 96 -1
c31.333 0 62 0.333008 92 1s55 1.33398 75 2.00098z" />
    <glyph glyph-name="M" unicode="M" horiz-adv-x="946" 
d="M915 708l0.00488281 -20.001c-20 -0.666992 -35.333 -3.16699 -46 -7.5s-17.834 -12.333 -21.501 -24s-5.5 -29.834 -5.5 -54.501v-496c0 -24 2 -42 6 -54s11.167 -20 21.5 -24s25.5 -6.66699 45.5 -8v-20c-19.333 1.33301 -44.166 2.16602 -74.499 2.49902
s-61.166 0.5 -92.499 0.5c-34 0 -65.833 -0.166992 -95.5 -0.5s-53.834 -1.16602 -72.501 -2.49902v20c22.667 1.33301 39.834 4 51.501 8s19.5 12 23.5 24s6 30 6 54v538l9 1l-250 -645h-16l-276 643v-463c0 -40.667 2 -71.834 6 -93.501s13 -37.167 27 -46.5
s36 -16 66 -20v-20c-12.667 1.33301 -29.5 2.16602 -50.5 2.49902s-40.833 0.5 -59.5 0.5c-14.667 0 -29.834 -0.166992 -45.501 -0.5s-28.834 -1.16602 -39.501 -2.49902v20c21.333 4 37.166 10.5 47.499 19.5s17.166 23.333 20.499 43s5 46.834 5 81.501v438
c0 24.667 -1.66699 42.834 -5 54.501s-10.333 19.667 -21 24s-26.334 6.83301 -47.001 7.5v20c10.667 -0.666992 23.834 -1.33398 39.501 -2.00098s30.834 -1 45.501 -1c34 0 66.667 0.333008 98 1s59.666 1.33398 84.999 2.00098l204 -476l-28 -28l193 501h39.5h39.5
c31.333 0 62.166 0.333008 92.499 1s55.166 1.33398 74.499 2.00098z" />
    <glyph glyph-name="N" unicode="N" horiz-adv-x="727" 
d="M700 708l0.00488281 -20.0059c-20 -3.33301 -35.333 -9.66602 -46 -18.999s-17.834 -23.666 -21.501 -42.999s-5.5 -46.666 -5.5 -81.999v-545c-8.66699 1.33301 -18 2 -28 2s-20.667 -0.666992 -32 -2l-439 517v-336c0 -40.667 2 -71.834 6 -93.501s13 -37.167 27 -46.5
s36 -16 66 -20v-20c-12.667 1.33301 -29.5 2.16602 -50.5 2.49902s-40.833 0.5 -59.5 0.5c-14.667 0 -29.834 -0.166992 -45.501 -0.5s-28.834 -1.16602 -39.501 -2.49902v20c21.333 4 37.166 10.5 47.499 19.5s17.166 23.333 20.499 43s5 46.834 5 81.501v438
c0 24.667 -1.66699 42.834 -5 54.501s-10.333 19.667 -21 24s-26.334 6.83301 -47.001 7.5v20c10.667 -0.666992 23.834 -1.33398 39.501 -2.00098s30.834 -1 45.501 -1c16.667 0 32.667 0.333008 48 1s29.333 1.33398 42 2.00098l397 -454v274
c0 40.667 -1.83301 71.834 -5.5 93.501s-12.334 37.334 -26.001 47.001s-36.167 16.167 -67.5 19.5v20c13.333 -0.666992 30.5 -1.33398 51.5 -2.00098s40.5 -1 58.5 -1c16 0 31.667 0.333008 47 1s28 1.33398 38 2.00098z" />
    <glyph glyph-name="O" unicode="O" horiz-adv-x="810" 
d="M405 722c73.333 0 137.331 -14.3311 191.998 -42.998s97.167 -69.834 127.5 -123.501s45.5 -118.834 45.5 -195.501c0 -74.667 -15.5 -140 -46.5 -196s-74.167 -99.667 -129.5 -131s-118.666 -47 -189.999 -47c-72.667 0 -136.5 14.333 -191.5 43s-97.667 70 -128 124
s-45.5 119 -45.5 195c0 74.667 15.833 140 47.5 196s74.834 99.667 129.501 131s117.667 47 189 47zM400.998 704.002c-35.333 0 -65.9971 -15.001 -91.9971 -45.001s-46.167 -71.333 -60.5 -124s-21.5 -113.667 -21.5 -183c0 -70.667 8.16699 -132.167 24.5 -184.5
s38.166 -92.666 65.499 -120.999s57.666 -42.5 90.999 -42.5c35.333 0 66.166 15 92.499 45s46.5 71.5 60.5 124.5s21 113.833 21 182.5c0 71.333 -8 133 -24 185s-37.833 92.167 -65.5 120.5s-58.167 42.5 -91.5 42.5z" />
    <glyph glyph-name="P" unicode="P" horiz-adv-x="659" 
d="M31 708c18 -0.666992 41.999 -1.33398 71.999 -2.00098s60 -1 90 -1c32.667 0 64.167 0.333008 94.5 1s51.833 1 64.5 1c97.333 0 169.833 -18.333 217.5 -55s71.5 -84 71.5 -142c0 -24 -4.83301 -49.167 -14.5 -75.5s-26 -50.666 -49 -72.999s-54.667 -40.5 -95 -54.5
s-91.166 -21 -152.499 -21h-104v20h94c36.667 0 64.5 9 83.5 27s32 41.667 39 71s10.5 61 10.5 95c0 63.333 -8.33301 110.666 -25 141.999s-45 47 -85 47c-24.667 0 -40.5 -5.66699 -47.5 -17s-10.5 -34.333 -10.5 -69v-488c0 -26.667 2.66699 -46.5 8 -59.5
s16 -21.5 32 -25.5s39 -6.33301 69 -7v-22c-22 0.666992 -50.333 1.33398 -85 2.00098s-71 1 -109 1c-30 0 -59.5 -0.333008 -88.5 -1s-55.833 -1.33398 -80.5 -2.00098v20c20.667 1.33301 36.167 4 46.5 8s17.333 12 21 24s5.5 30 5.5 54v496
c0 24.667 -1.83301 42.834 -5.5 54.501s-10.667 19.667 -21 24s-25.833 6.83301 -46.5 7.5v20z" />
    <glyph glyph-name="Q" unicode="Q" horiz-adv-x="810" 
d="M770 24l18.001 -5c-4.66699 -39.333 -12.834 -73.666 -24.501 -102.999s-27.167 -51.666 -46.5 -66.999c-14.667 -11.333 -33.167 -20.333 -55.5 -27s-46.166 -10 -71.499 -10c-37.333 0 -73.833 5.5 -109.5 16.5s-71.5 24.833 -107.5 41.5s-73.667 32.667 -113 48
l-13 4.5c-4.66699 1.66699 -8.33398 2.5 -11.001 2.5c-12.667 -6.66699 -26.5 -12.167 -41.5 -16.5s-29.167 -6.5 -42.5 -6.5s-24.5 2.16699 -33.5 6.5s-13.5 11.5 -13.5 21.5c0 19.333 18.333 29 55 29c23.333 0 48.666 -5.33301 75.999 -16
c24.667 6.66699 46.167 14.167 64.5 22.5s37 16.166 56 23.499s42.167 12 69.5 14l1 -16c-21.333 -2 -39.666 -5.83301 -54.999 -11.5s-30.833 -11.834 -46.5 -18.501s-33.834 -13 -54.501 -19l140.5 -7c41 -2 78.333 -2.83301 112 -2.5s65.167 2.83301 94.5 7.5
c39.333 6.66699 70.333 16.5 93 29.5s42.334 32.5 59.001 58.5zM405.001 722c73.333 0 137.331 -14.3311 191.998 -42.998s97.167 -69.834 127.5 -123.501s45.5 -118.834 45.5 -195.501c0 -74.667 -15.5 -140 -46.5 -196s-74.167 -99.667 -129.5 -131
s-118.666 -47 -189.999 -47c-72.667 0 -136.5 14.333 -191.5 43s-97.667 70 -128 124s-45.5 119 -45.5 195c0 74.667 15.833 140 47.5 196s74.834 99.667 129.501 131s117.667 47 189 47zM400.999 704.002c-35.333 0 -65.9971 -15.001 -91.9971 -45.001
s-46.167 -71.333 -60.5 -124s-21.5 -113.667 -21.5 -183c0 -70.667 8.16699 -132.167 24.5 -184.5s38.166 -92.666 65.499 -120.999s57.666 -42.5 90.999 -42.5c35.333 0 66.166 15 92.499 45s46.5 71.5 60.5 124.5s21 113.833 21 182.5c0 71.333 -8 133 -24 185
s-37.833 92.167 -65.5 120.5s-58.167 42.5 -91.5 42.5z" />
    <glyph glyph-name="R" unicode="R" horiz-adv-x="706" 
d="M31 708c18 -0.666992 41.999 -1.33594 71.999 -2.00293s60 -1 90 -1c32.667 0 64.167 0.333008 94.5 1s51.833 1 64.5 1c97.333 0 169.833 -14.667 217.5 -44s71.5 -72.666 71.5 -129.999c0 -24 -4.83301 -47.5 -14.5 -70.5s-26 -44.167 -49 -63.5
s-54.667 -34.666 -95 -45.999s-91.166 -17 -152.499 -17h-96v20h86c36.667 0 64.5 7.5 83.5 22.5s32 35 39 60s10.5 52.833 10.5 83.5c0 52.667 -8.33301 93.5 -25 122.5s-45 43.5 -85 43.5c-24.667 0 -40.5 -5.66699 -47.5 -17s-10.5 -34.333 -10.5 -69v-496
c0 -24 1.83301 -42 5.5 -54s10.667 -20 21 -24s25.833 -6.66699 46.5 -8v-20c-18.667 1.33301 -42.5 2.16602 -71.5 2.49902s-58.167 0.5 -87.5 0.5c-34 0 -66 -0.166992 -96 -0.5s-54 -1.16602 -72 -2.49902v20c20.667 1.33301 36.167 4 46.5 8s17.333 12 21 24
s5.5 30 5.5 54v496c0 24.667 -1.83301 42.834 -5.5 54.501s-10.667 19.667 -21 24s-25.833 6.83301 -46.5 7.5v20zM229.999 352.998c26 -0.666992 49.6689 -1.99805 71.002 -3.99805l57.5 -5.5c17 -1.66699 31.833 -2.83398 44.5 -3.50098c66 -4 115.167 -16.5 147.5 -37.5
s52.833 -52.167 61.5 -93.5l21 -104c6 -25.333 12.333 -43.166 19 -53.499s16 -15.166 28 -14.499c7.33301 0 13.666 1.5 18.999 4.5s10.666 7.5 15.999 13.5l14 -13c-19.333 -20.667 -40.333 -35.167 -63 -43.5s-49 -12.5 -79 -12.5c-39.333 0 -71.5 7.66699 -96.5 23
s-40.833 43.666 -47.5 84.999l-17 100c-4 27.333 -9.16699 51.666 -15.5 72.999s-14.833 38.166 -25.5 50.499s-25.667 18.5 -45 18.5h-108z" />
    <glyph glyph-name="S" unicode="S" horiz-adv-x="598" 
d="M293 721c41.333 0 73.3301 -4.16504 95.9971 -12.498s42 -17.166 58 -26.499c8 -4.66699 14.5 -8.16699 19.5 -10.5s9.83301 -3.5 14.5 -3.5c10.667 0 18 14.667 22 44h23c-0.666992 -13.333 -1.5 -29 -2.5 -47s-1.66699 -41.833 -2 -71.5s-0.5 -68.834 -0.5 -117.501
h-23c-2.66699 36 -11 70.667 -25 104s-33.167 61 -57.5 83s-54.166 33 -89.499 33c-30.667 0 -56 -8.5 -76 -25.5s-30 -41.167 -30 -72.5c0 -25.333 6.33301 -47.166 19 -65.499s31.834 -36.833 57.501 -55.5l97.5 -69c31.333 -20.667 59.333 -41.334 84 -62.001
s44.5 -44 59.5 -70s22.5 -57.333 22.5 -94c0 -44 -12 -80.5 -36 -109.5s-55.667 -50.667 -95 -65s-82.333 -21.5 -129 -21.5c-43.333 0 -77.833 4 -103.5 12s-47.5 16.333 -65.5 25c-14.667 9.33301 -26 14 -34 14c-10.667 0 -18 -14.667 -22 -44h-23
c1.33301 16.667 2.16602 36.167 2.49902 58.5s0.666016 51.166 0.999023 86.499s0.5 80.333 0.5 135h23c2.66699 -45.333 10.167 -87.666 22.5 -126.999s31.333 -71.166 57 -95.499s59.834 -36.5 102.501 -36.5c36 0 65.333 9 88 27s34 44 34 78
c0 41.333 -13.833 75.666 -41.5 102.999s-63.167 55.333 -106.5 84c-31.333 20.667 -60.666 41.667 -87.999 63s-49.166 45.166 -65.499 71.499s-24.5 58.166 -24.5 95.499c0 42.667 11 77.667 33 105s51.167 47.5 87.5 60.5s74.833 19.5 115.5 19.5z" />
    <glyph glyph-name="T" unicode="T" horiz-adv-x="683" 
d="M659 708c-2.66699 -36.667 -4.5 -71.998 -5.5 -105.998s-1.5 -60 -1.5 -78c0 -14.667 0.333008 -28.334 1 -41.001s1.33398 -23.667 2.00098 -33h-23c-13.333 59.333 -29.333 106.166 -48 140.499s-39.834 58.666 -63.501 72.999s-49.167 21.5 -76.5 21.5h-12v-571
c0 -27.333 2.83301 -47.666 8.5 -60.999s16.334 -22.166 32.001 -26.499s38.5 -6.5 68.5 -6.5v-20c-22 0.666992 -51.5 1.33398 -88.5 2.00098s-75.5 1 -115.5 1c-39.333 0 -76.333 -0.333008 -111 -1s-62.667 -1.33398 -84 -2.00098v20c30 0 53 2.16699 69 6.5
s26.667 13.166 32 26.499s8 33.666 8 60.999v571h-11c-28 0 -53.667 -7.16699 -77 -21.5s-44.333 -38.5 -63 -72.5s-35 -81 -49 -141h-23c1.33301 9.33301 2.16602 20.333 2.49902 33s0.5 26.334 0.5 41.001c0 18 -0.5 44 -1.5 78s-2.83301 69.333 -5.5 106
c31.333 -0.666992 65.833 -1.33398 103.5 -2.00098s75.167 -1 112.5 -1h102h102.5c37.667 0 75.167 0.333008 112.5 1s71.333 1.33398 102 2.00098z" />
    <glyph glyph-name="U" unicode="U" horiz-adv-x="691" 
d="M676 708l0.00292969 -20.0029c-20.667 -3.33301 -36.334 -9.66602 -47.001 -18.999s-17.667 -23.666 -21 -42.999s-5 -46.666 -5 -81.999v-253c0 -42.667 -2.83301 -82 -8.5 -118s-16.5 -67.333 -32.5 -94c-17.333 -28.667 -43 -51.334 -77 -68.001s-78 -25 -132 -25
c-30.667 0 -62.5 3.5 -95.5 10.5s-62.5 19.833 -88.5 38.5c-22 17.333 -38.833 37.666 -50.5 60.999s-19.5 50.833 -23.5 82.5s-6 68.167 -6 109.5v314c0 24.667 -1.83301 42.834 -5.5 54.501s-10.667 19.667 -21 24s-25.833 6.83301 -46.5 7.5v20
c18 -0.666992 42 -1.33398 72 -2.00098s61.333 -1 94 -1s64 0.333008 94 1s55 1.33398 75 2.00098v-20c-22.667 -0.666992 -39.834 -3.16699 -51.501 -7.5s-19.5 -12.333 -23.5 -24s-6 -29.834 -6 -54.501v-393c0 -44 4.33301 -79.833 13 -107.5s22.667 -48 42 -61
s44.666 -19.5 75.999 -19.5c46 0 82 10.833 108 32.5s44.333 52.167 55 91.5s16 84.333 16 135v248c0 40.667 -2 71.834 -6 93.501s-13 37.334 -27 47.001s-36 16.167 -66 19.5v20c12.667 -0.666992 29.5 -1.33398 50.5 -2.00098s40.833 -1 59.5 -1
c15.333 0 30.833 0.333008 46.5 1s28.5 1.33398 38.5 2.00098z" />
    <glyph glyph-name="V" unicode="V" horiz-adv-x="680" 
d="M691 708l0.00390625 -19.999c-14.667 -6.66699 -30.667 -19.834 -48 -39.501s-33 -49.5 -47 -89.5l-203 -560c-6.66699 0.666992 -13.834 1.16699 -21.501 1.5s-15.167 0.5 -22.5 0.5s-14.833 -0.166992 -22.5 -0.5s-14.834 -0.833008 -21.501 -1.5l-258 625
c-9.33301 24 -19.5 40.5 -30.5 49.5s-21.167 13.833 -30.5 14.5v20c22 -0.666992 47.833 -1.33398 77.5 -2.00098s59.5 -1 89.5 -1c32.667 0 63.167 0.333008 91.5 1s51.166 1.33398 68.499 2.00098v-20c-32 -1.33301 -53.333 -6.83301 -64 -16.5s-8.66699 -32.167 6 -67.5
l181 -453l-22 -28l126 346c19.333 54 29.333 96.833 30 128.5s-6.33301 54.5 -21 68.5s-35.334 21.333 -62.001 22v20c24 -0.666992 45.833 -1.33398 65.5 -2.00098s40.5 -1 62.5 -1c14 0 27.667 0.333008 41 1s25 1.33398 35 2.00098z" />
    <glyph glyph-name="W" unicode="W" horiz-adv-x="989" 
d="M996 708l0.00195312 -20.0029c-14.667 -6.66699 -30.334 -19.667 -47.001 -39s-31 -49.333 -43 -90l-173 -560c-6.66699 0.666992 -13.667 1.16699 -21 1.5s-15 0.5 -23 0.5c-6.66699 0 -13.834 -0.166992 -21.501 -0.5s-14.834 -0.833008 -21.501 -1.5l-210 639
c-6 18.667 -13.5 31.5 -22.5 38.5s-19.167 10.833 -30.5 11.5v20c20.667 -0.666992 45 -1.33398 73 -2.00098s56.333 -1 85 -1c30 0 58.333 0.333008 85 1s48.334 1.33398 65.001 2.00098v-20c-20.667 -0.666992 -36.667 -3 -48 -7s-17.833 -11.833 -19.5 -23.5
s1.5 -29.5 9.5 -53.5l139 -425l-26 -51l107 341c17.333 54.667 25.666 97.834 24.999 129.501s-8.5 54.334 -23.5 68.001s-36.167 20.834 -63.5 21.501v20c24.667 -0.666992 46.834 -1.33398 66.501 -2.00098s40.167 -1 61.5 -1c14 0 27.833 0.333008 41.5 1
s25.5 1.33398 35.5 2.00098zM278.002 707.997v-20c-12.667 -2 -21.334 -7.33301 -26.001 -16s-6.16699 -19.167 -4.5 -31.5s4.5 -24.5 8.5 -36.5l151 -435l-27 -39l124 349l14 -28l-155 -452c-6.66699 0.666992 -13.834 1.16699 -21.501 1.5s-15.167 0.5 -22.5 0.5
s-14.666 -0.166992 -21.999 -0.5s-14.333 -0.833008 -21 -1.5l-228 625c-8.66699 24 -18.667 40.5 -30 49.5s-21.666 13.833 -30.999 14.5v20c21.333 -0.666992 47 -1.33398 77 -2.00098s58.667 -1 86 -1s52 0.333008 74 1s40 1.33398 54 2.00098z" />
    <glyph glyph-name="X" unicode="X" horiz-adv-x="710" 
d="M318 709l0.000976562 -21.001c-29.333 0 -48.333 -2.66699 -57 -8s-8.33398 -14.666 0.999023 -27.999l404 -581c12.667 -18.667 23 -31.334 31 -38.001s18.667 -10.667 32 -12v-21c-15.333 0.666992 -37.333 1.5 -66 2.5s-58 1.5 -88 1.5c-32 0 -64 -0.5 -96 -1.5
s-56 -1.83301 -72 -2.5v21c29.333 0 48.5 2.33301 57.5 7s8.83301 13.667 -0.5 27l-402 583c-13.333 19.333 -23.833 32.333 -31.5 39s-18.167 10.334 -31.5 11.001v21c15.333 -0.666992 38.333 -1.5 69 -2.5s61.667 -1.5 93 -1.5c30 0 59.667 0.5 89 1.5s52 1.83301 68 2.5
zM311.001 352.999l3.99707 -13.001l4 -13l-93 -122c-27.333 -35.333 -43.166 -66.666 -47.499 -93.999s1 -48.833 16 -64.5s37.5 -24.5 67.5 -26.5v-20c-12.667 0.666992 -30 1.16699 -52 1.5l-65 1c-21.333 0.333008 -37.666 0.5 -48.999 0.5
c-41.333 0 -72.666 -1 -93.999 -3v20c24 9.33301 49 25 75 47s52.667 50.333 80 85zM675.998 707.998l0.000976562 -20.001c-22.667 -7.33301 -45.5 -21.333 -68.5 -42s-43.833 -43 -62.5 -67l-163 -208l-3.5 12.5l-3.5 12.5l99 129c38.667 46.667 54.667 84.834 48 114.501
s-30 45.834 -70 48.501v20c19.333 -0.666992 41.666 -1.33398 66.999 -2.00098s46 -1 62 -1c41.333 0 73 1 95 3z" />
    <glyph glyph-name="Y" unicode="Y" horiz-adv-x="633" 
d="M626 709l-0.000976562 -19.999c-14.667 -6.66699 -30.167 -19.5 -46.5 -38.5s-34.166 -47.5 -53.499 -85.5l-185 -366h-57l-234 433c-11.333 22 -22 36.833 -32 44.5s-18.667 11.5 -26 11.5v21c19.333 -2 39.333 -3.5 60 -4.5s43.334 -1.5 68.001 -1.5
c32 0 66.333 0.666992 103 2s70.334 2.66602 101.001 3.99902v-21c-16.667 0 -31.834 -1 -45.501 -3s-23.334 -6 -29.001 -12s-5.16699 -16 1.5 -30l155 -297l-39 -51l94 188c26 51.333 40.167 91.833 42.5 121.5s-4 51 -19 64s-35.833 19.833 -62.5 20.5v20
c24 -0.666992 45.833 -1.33398 65.5 -2.00098s40.5 -1 62.5 -1c14 0 27.667 0.333008 41 1s25 1.33398 35 2.00098zM419.999 375.001v-269c0 -24 1.83301 -42 5.5 -54s10.667 -20 21 -24s25.833 -6.66699 46.5 -8v-20c-18.667 1.33301 -43.167 2.16602 -73.5 2.49902
s-60.166 0.5 -89.499 0.5c-32.667 0 -63.834 -0.166992 -93.501 -0.5s-53.167 -1.16602 -70.5 -2.49902v20c20.667 1.33301 36.167 4 46.5 8s17.333 12 21 24s5.5 30 5.5 54v205l98 -62z" />
    <glyph glyph-name="Z" unicode="Z" horiz-adv-x="604" 
d="M559 708l-0.00292969 -20.001l-322 -665h72c20.667 0 42.834 3.83301 66.501 11.5s46.834 20.167 69.501 37.5s42.334 40.5 59.001 69.5s27.334 65.167 32.001 108.5h23c-2 -23.333 -3 -53.333 -3 -90c0 -16 0.333008 -38.667 1 -68s2.66699 -60 6 -92
c-36.667 1.33301 -78.167 2.16602 -124.5 2.49902s-87.833 0.5 -124.5 0.5c-44 0 -90.333 -0.166992 -139 -0.5s-94.334 -1.16602 -137.001 -2.49902v20l323 665h-79c-30 0 -60 -6.33301 -90 -19s-56 -34.167 -78 -64.5s-36.667 -72.833 -44 -127.5h-23
c1.33301 9.33301 2.16602 20.333 2.49902 33s0.5 26.334 0.5 41.001c0 16 -0.5 38.667 -1.5 68s-2.83301 60 -5.5 92c32.667 -1.33301 69 -2.16602 109 -2.49902s76 -0.5 108 -0.5c47.333 0 97.333 0.166992 150 0.5s102.334 1.16602 149.001 2.49902z" />
    <glyph glyph-name="bracketleft" unicode="[" horiz-adv-x="331" 
d="M292 772v-19h-49v-915h49v-19h-211v953h211z" />
    <glyph glyph-name="backslash" unicode="\" horiz-adv-x="367" 
d="M30 722l272 -736h33l-272 736h-33z" />
    <glyph glyph-name="bracketright" unicode="]" horiz-adv-x="331" 
d="M39 772v-19h49v-915h-49v-19h211v953h-211z" />
    <glyph glyph-name="asciicircum" unicode="^" horiz-adv-x="526" 
d="M272 528c21.333 -38.667 49.998 -76.832 85.998 -114.499s75 -68.834 117 -93.501l-8 -14c-43.333 8.66699 -85.166 19.667 -125.499 33s-73.166 26.333 -98.499 39c-20 -12.667 -46.833 -25.667 -80.5 -39s-68.167 -24.333 -103.5 -33l-8 14c42 24 81 54.833 117 92.5
s64.667 76.167 86 115.5h18z" />
    <glyph glyph-name="underscore" unicode="_" horiz-adv-x="613" 
d="M558 -24v-120h-503v120h503z" />
    <glyph glyph-name="grave" unicode="`" horiz-adv-x="300" 
d="M70 819c14 12 29.833 16.499 47.5 13.499s31.834 -10.833 42.501 -23.5c12 -13.333 21 -28.666 27 -45.999l21.5 -63c8.33301 -24.667 22.166 -55.334 41.499 -92.001l-11 -9c-30 26.667 -55.833 47.334 -77.5 62.001l-55.5 37.5c-15.333 10.333 -28.333 21.833 -39 34.5
c-11.333 14 -16.833 29.167 -16.5 45.5s6.83301 29.833 19.5 40.5z" />
    <glyph glyph-name="a" unicode="a" horiz-adv-x="524" 
d="M153 -7c-44.667 0 -77.167 11.833 -97.5 35.5s-30.5 52.167 -30.5 85.5c0 28 6.5 51.167 19.5 69.5s29.833 33.166 50.5 44.499s42.334 20.833 65.001 28.5l65 23c20.667 7.66699 37.334 16.334 50.001 26.001s19 22.167 19 37.5v83c0 14.667 -2.16699 28.5 -6.5 41.5
s-12 23.667 -23 32s-26.167 12.5 -45.5 12.5c-12 0 -23.667 -1.66699 -35 -5s-21.333 -8.66602 -30 -15.999c21.333 -7.33301 37.166 -18.333 47.499 -33s15.5 -31 15.5 -49c0 -24.667 -8.5 -44.167 -25.5 -58.5s-37.167 -21.5 -60.5 -21.5c-25.333 0 -44.833 8 -58.5 24
s-20.5 35.333 -20.5 58c0 20 5 36.833 15 50.5s24.667 26.167 44 37.5s42.666 19.666 69.999 24.999s56.333 8 87 8c31.333 0 60.166 -3.16699 86.499 -9.5s48.833 -18.833 67.5 -37.5c14.667 -15.333 24 -34 28 -56s6 -50 6 -84v-270c0 -16.667 1.5 -28.167 4.5 -34.5
s7.83301 -9.5 14.5 -9.5s12.667 1.66699 18 5s10.333 7 15 11l11 -17c-14.667 -12 -32 -21.167 -52 -27.5s-41.667 -9.5 -65 -9.5c-41.333 0 -69 8 -83 24s-21.333 34.333 -22 55c-15.333 -24.667 -34.666 -44 -57.999 -58s-52 -21 -86 -21zM242 65
c10 0 19.166 2.16504 27.499 6.49805s16.5 11.833 24.5 22.5v208c-7.33301 -12.667 -17 -23.5 -29 -32.5s-24.167 -18.667 -36.5 -29s-22.666 -23.166 -30.999 -38.499s-12.5 -35.666 -12.5 -60.999c0 -27.333 5.5 -46.833 16.5 -58.5s24.5 -17.5 40.5 -17.5z" />
    <glyph glyph-name="b" unicode="b" horiz-adv-x="593" 
d="M381 532c50.667 0 92.834 -20.834 126.501 -62.501s50.5 -105.834 50.5 -192.501c0 -72 -10.5 -129.5 -31.5 -172.5s-49 -73.5 -84 -91.5s-73.5 -27 -115.5 -27c-24.667 0 -47.5 3 -68.5 9s-40.167 17 -57.5 33l13 10c10.667 -10.667 22.667 -18.5 36 -23.5
s26.333 -7.5 39 -7.5c34 0 59.167 20.833 75.5 62.5s24.5 104.834 24.5 189.501c0 58 -3.16699 103.333 -9.5 136s-15.333 55.834 -27 69.501s-25.5 20.5 -41.5 20.5c-20.667 0 -39.5 -8.16699 -56.5 -24.5s-26.167 -38.5 -27.5 -66.5l-2 42c13.333 32 33.666 56 60.999 72
s59 24 95 24zM228 781.999l-0.00292969 -772.998c-19.333 6 -39 8.5 -59 7.5s-38.333 -4.33301 -55 -10s-30 -13.167 -40 -22.5l-15 9c3.33301 9.33301 5.33301 18.666 6 27.999s1 18.666 1 27.999v613c0 30 -4.16699 52.167 -12.5 66.5s-24.166 21.5 -47.499 21.5v21
c21.333 -2 42 -3 62 -3c30.667 0 59.334 1.16699 86.001 3.5s51.334 5.83301 74.001 10.5z" />
    <glyph glyph-name="c" unicode="c" horiz-adv-x="500" 
d="M285 532c28 0 52.9961 -2.83105 74.9961 -8.49805s40 -12.834 54 -21.501c17.333 -10.667 31.333 -24.334 42 -41.001s16 -36 16 -58c0 -25.333 -8.33301 -46.5 -25 -63.5s-37.667 -25.5 -63 -25.5c-26 0 -46.5 7.66699 -61.5 23s-22.5 35 -22.5 59
c0 23.333 7.33301 43 22 59s32 26.667 52 32c-5.33301 5.33301 -12.166 9.66602 -20.499 12.999s-18.166 5 -29.499 5c-22.667 0 -41.667 -6.5 -57 -19.5s-27.833 -30.667 -37.5 -53s-16.667 -47.333 -21 -75s-6.5 -56.167 -6.5 -85.5c0 -49.333 6.5 -87.833 19.5 -115.5
s29.333 -47 49 -58s39.834 -16.5 60.501 -16.5c16 0 35.667 4.33301 59 13s45.666 29 66.999 61l17 -6c-7.33301 -26 -19.666 -51.667 -36.999 -77s-39.666 -46.166 -66.999 -62.499s-60.666 -24.5 -99.999 -24.5c-44 0 -83.833 9 -119.5 27s-64.167 47 -85.5 87
s-32 92.333 -32 157c0 62.667 11 114.167 33 154.5s52.167 70.5 90.5 90.5s81.166 30 128.499 30z" />
    <glyph glyph-name="d" unicode="d" horiz-adv-x="603" 
d="M526 782l-0.00195312 -672c0 -30 4.5 -52.167 13.5 -66.5s24.5 -21.5 46.5 -21.5v-21c-20.667 2 -41.334 3 -62.001 3c-30 0 -58.333 -1 -85 -3s-51.667 -5.66699 -75 -11v672c0 30 -4.16699 52.167 -12.5 66.5s-24.166 21.5 -47.499 21.5v21c21.333 -2 42 -3 62 -3
c30.667 0 59.334 1.16699 86.001 3.5s51.334 5.83301 74.001 10.5zM256.998 532c29.333 0 54.667 -4.16699 76 -12.5s39 -22.166 53 -41.499l-12 -10c-8.66699 11.333 -19.167 19.666 -31.5 24.999s-25.166 8 -38.499 8c-32 0 -56.833 -19.833 -74.5 -59.5
s-26.5 -100.5 -26.5 -182.5c0 -57.333 3.5 -102.5 10.5 -135.5s16.667 -56.167 29 -69.5s26.166 -20 41.499 -20c20.667 0 39.167 7.83301 55.5 23.5s24.833 36.5 25.5 62.5l3 -42c-12 -30.667 -28.5 -53.667 -49.5 -69s-47.833 -23 -80.5 -23
c-38.667 0 -73.5 9.66699 -104.5 29s-55.333 49.166 -73 89.499s-26.5 92.833 -26.5 157.5c0 60.667 9.5 110.834 28.5 150.501s45.333 69.5 79 89.5s72.167 30 115.5 30z" />
    <glyph glyph-name="e" unicode="e" horiz-adv-x="504" 
d="M285 532c58.667 0 104.667 -17.3359 138 -52.0029s50 -91.667 50 -171h-321l-1 19h186c1.33301 32.667 0 62.834 -4 90.501s-10.5 49.834 -19.5 66.501s-20.833 25 -35.5 25c-20 0 -37 -14.333 -51 -43s-22.667 -77.334 -26 -146.001l4 -7
c-1.33301 -7.33301 -2 -14.833 -2 -22.5v-24.5c0 -46 6.16699 -82.667 18.5 -110s27.833 -46.666 46.5 -57.999s38 -17 58 -17c16.667 0 36.5 4.16699 59.5 12.5s45.167 28.5 66.5 60.5l17 -6c-7.33301 -26 -19.833 -51.5 -37.5 -76.5s-40.167 -45.667 -67.5 -62
s-60.333 -24.5 -99 -24.5c-44 0 -83.333 9.16699 -118 27.5s-62.167 47.333 -82.5 87s-30.5 91.5 -30.5 155.5c0 63.333 11 115.333 33 156s52 70.834 90 90.501s80.667 29.5 128 29.5z" />
    <glyph glyph-name="f" unicode="f" horiz-adv-x="358" 
d="M292 782c25.333 0 47.167 -3.16797 65.5 -9.50098s34.166 -14.833 47.499 -25.5c10 -7.33301 18.5 -17.833 25.5 -31.5s10.5 -29.5 10.5 -47.5c0 -19.333 -7.16699 -36.666 -21.5 -51.999s-32.833 -23 -55.5 -23c-24.667 0 -44.667 6.83301 -60 20.5s-23 32.5 -23 56.5
c0 18 5.33301 34.5 16 49.5s26.667 25.5 48 31.5c-2 3.33301 -5.66699 6.16602 -11 8.49902s-12.333 3.5 -21 3.5c-12 0 -22 -2 -30 -6s-14.667 -9.66699 -20 -17c-6.66699 -8.66699 -11.5 -21 -14.5 -37s-4.5 -40.333 -4.5 -73v-113h107v-20h-107v-394
c0 -32.667 8 -54.5 24 -65.5s38 -16.5 66 -16.5v-21c-18 0.666992 -43.167 1.5 -75.5 2.5s-66.5 1.5 -102.5 1.5c-26 0 -51.667 -0.5 -77 -1.5s-44.333 -1.83301 -57 -2.5v21c22 0 37.5 5 46.5 15s13.5 29 13.5 57v404h-64v20h64c0 59.333 5 104.333 15 135
s27.333 57.334 52 80.001c14.667 14 34.834 25.833 60.501 35.5s53.167 14.5 82.5 14.5z" />
    <glyph glyph-name="g" unicode="g" horiz-adv-x="562" 
d="M219 -188c-43.333 0 -81.334 3.50391 -114.001 10.5039s-58 17.333 -76 31s-27 30.167 -27 49.5c0 20 9.33301 38.167 28 54.5s47.334 29.166 86.001 38.499l9 -16c-11.333 -11.333 -19.333 -22.5 -24 -33.5s-7 -21.833 -7 -32.5c0 -27.333 12.333 -48.333 37 -63
s58.667 -22 102 -22c30 0 56 4.16699 78 12.5s39 20.166 51 35.499s18 33.333 18 54c0 19.333 -7.16699 35.666 -21.5 48.999s-43.166 20 -86.499 20h-58c-28.667 0 -53.334 3.66699 -74.001 11s-36.5 17.666 -47.5 30.999s-16.5 30 -16.5 50c0 30 11.667 55.5 35 76.5
s55.666 40.5 96.999 58.5l9 -8c-10 -6 -19.5 -13 -28.5 -21s-13.5 -18.667 -13.5 -32c0 -21.333 12.667 -32 38 -32h103c60 0 109.167 -10.5 147.5 -31.5s57.5 -56.167 57.5 -105.5c0 -33.333 -10.667 -64 -32 -92s-54.166 -50.5 -98.499 -67.5s-101.5 -25.5 -171.5 -25.5z
M231.999 213.004c-60 0 -109.5 13 -148.5 39s-58.5 66.333 -58.5 121c0 55.333 19.5 95.666 58.5 120.999s88.5 38 148.5 38c59.333 0 108.666 -12.667 147.999 -38s59 -65.666 59 -120.999c0 -54.667 -19.667 -95 -59 -121s-88.666 -39 -147.999 -39zM231.999 231.004
c14.667 0 26.5 10.333 35.5 31s13.5 57.667 13.5 111s-4.5 90.166 -13.5 110.499s-20.833 30.5 -35.5 30.5c-15.333 0 -27.333 -10.167 -36 -30.5s-13 -57.166 -13 -110.499s4.33301 -90.333 13 -111s20.667 -31 36 -31zM390.999 445.004l-21 7
c10.667 27.333 27.167 49.5 49.5 66.5s46.833 25.5 73.5 25.5c22 0 38.5 -6 49.5 -18s16.5 -27.667 16.5 -47s-5.16699 -34.166 -15.5 -44.499s-22.5 -15.5 -36.5 -15.5c-12 0 -23 4.16699 -33 12.5s-15.667 21 -17 38s4.66699 38.5 18 64.5l6 -6
c-24.667 -8.66699 -43.5 -19.334 -56.5 -32.001s-24.167 -29.667 -33.5 -51z" />
    <glyph glyph-name="h" unicode="h" horiz-adv-x="615" 
d="M240 782l-0.00488281 -334.002c16.667 30.667 38.834 52.334 66.501 65.001s59.5 19 95.5 19c29.333 0 52.833 -3.66699 70.5 -11s31.167 -16.666 40.5 -27.999c10.667 -12.667 18.334 -29 23.001 -49s7 -47 7 -81v-270c0 -28 4.5 -47 13.5 -57s24.5 -15 46.5 -15v-21
c-12.667 0.666992 -32.167 1.5 -58.5 2.5s-52.166 1.5 -77.499 1.5c-26.667 0 -52.667 -0.5 -78 -1.5s-44.666 -1.83301 -57.999 -2.5v21c18.667 0 31.667 5 39 15s11 29 11 57v318c0 15.333 -1.66699 28.5 -5 39.5s-8.83301 19.333 -16.5 25s-18.834 8.5 -33.501 8.5
c-23.333 0 -43.5 -8.66699 -60.5 -26s-25.5 -40 -25.5 -68v-297c0 -28 3.83301 -47 11.5 -57s20.5 -15 38.5 -15v-21c-12 0.666992 -30 1.5 -54 2.5s-48.667 1.5 -74 1.5c-26.667 0 -53.834 -0.5 -81.501 -1.5s-48.5 -1.83301 -62.5 -2.5v21c22 0 37.5 5 46.5 15
s13.5 29 13.5 57v569c0 30 -4.16699 52.167 -12.5 66.5s-24.166 21.5 -47.499 21.5v21c21.333 -2 42 -3 62 -3c30.667 0 59.334 1.16699 86.001 3.5s51.334 5.83301 74.001 10.5z" />
    <glyph glyph-name="i" unicode="i" horiz-adv-x="323" 
d="M157 779c31.333 0 55.833 -7 73.5 -21s26.5 -34.333 26.5 -61s-8.83301 -47 -26.5 -61s-42.167 -21 -73.5 -21s-55.833 7 -73.5 21s-26.5 34.333 -26.5 61s8.83301 47 26.5 61s42.167 21 73.5 21zM245 529l0.00195312 -436c0 -28 4.5 -47 13.5 -57s24.5 -15 46.5 -15v-21
c-13.333 0.666992 -33 1.5 -59 2.5s-52.333 1.5 -79 1.5s-53.834 -0.5 -81.501 -1.5s-48.5 -1.83301 -62.5 -2.5v21c22 0 37.5 5 46.5 15s13.5 29 13.5 57v316c0 30 -4.33301 52.167 -13 66.5s-24.334 21.5 -47.001 21.5v21c21.333 -2 42 -3 62 -3
c30 0 58.5 1.16699 85.5 3.5s51.833 5.83301 74.5 10.5z" />
    <glyph glyph-name="j" unicode="j" horiz-adv-x="307" 
d="M-22 -188v18.998c29.333 0.666992 53.5 11.834 72.5 33.501s28.5 56.834 28.5 105.501v439c0 30 -4.33301 52.167 -13 66.5s-24.334 21.5 -47.001 21.5v21c21.333 -2 42 -3 62 -3c30.667 0 59.334 1.16699 86.001 3.5s51.334 5.83301 74.001 10.5v-442
c0 -56.667 -5.33301 -102 -16 -136s-29 -63 -55 -87c-16.667 -15.333 -40.334 -27.833 -71.001 -37.5s-71 -14.5 -121 -14.5zM149 778.998c31.333 0 55.833 -7 73.5 -21s26.5 -34.333 26.5 -61s-8.83301 -47 -26.5 -61s-42.167 -21 -73.5 -21s-55.833 7 -73.5 21
s-26.5 34.333 -26.5 61s8.83301 47 26.5 61s42.167 21 73.5 21z" />
    <glyph glyph-name="k" unicode="k" horiz-adv-x="597" 
d="M240 782l-0.00292969 -689c0 -28 4.33301 -47 13 -57s23.667 -15 45 -15v-21c-12.667 0.666992 -31.667 1.5 -57 2.5s-51.333 1.5 -78 1.5c-27.333 0 -54.833 -0.5 -82.5 -1.5s-48.5 -1.83301 -62.5 -2.5v21c22 0 37.5 5 46.5 15s13.5 29 13.5 57v569
c0 30 -4.16699 52.167 -12.5 66.5s-24.166 21.5 -47.499 21.5v21c21.333 -2 42 -3 62 -3c30.667 0 59.334 1.16699 86.001 3.5s51.334 5.83301 74.001 10.5zM569.997 518l0.00292969 -19.999c-22.667 -5.33301 -45.334 -15.5 -68.001 -30.5s-45.667 -34.167 -69 -57.5
l-56 -57l8 16l166 -296c6.66699 -11.333 13.5 -21.666 20.5 -30.999s15.5 -16.333 25.5 -21v-21c-10 0.666992 -25.833 1.5 -47.5 2.5s-43.5 1.5 -65.5 1.5c-25.333 0 -50.833 -0.5 -76.5 -1.5s-45.167 -1.83301 -58.5 -2.5v21c13.333 0 22.333 3 27 9s4 14.333 -2 25
l-93 182c-6 11.333 -12.5 18.666 -19.5 21.999s-15.5 5 -25.5 5v19c11.333 0.666992 21.5 2.33398 30.5 5.00098s17.5 7.66699 25.5 15l76 73c23.333 22 35.166 41.833 35.499 59.5s-7 32.167 -22 43.5s-34.167 17.666 -57.5 18.999v20
c18.667 -0.666992 39.167 -1.33398 61.5 -2.00098s41.5 -1 57.5 -1c13.333 0 28.166 0.166992 44.499 0.5l47 1c15 0.333008 26.833 0.833008 35.5 1.5z" />
    <glyph glyph-name="l" unicode="l" horiz-adv-x="320" 
d="M241 782l-0.00195312 -688.999c0 -28 4.5 -47 13.5 -57s24.5 -15 46.5 -15v-21c-12.667 0.666992 -32 1.5 -58 2.5s-52.667 1.5 -80 1.5c-26.667 0 -53.834 -0.5 -81.501 -1.5s-48.5 -1.83301 -62.5 -2.5v21c22 0 37.5 5 46.5 15s13.5 29 13.5 57v570
c0 29.333 -4.16699 51.166 -12.5 65.499s-24.166 21.5 -47.499 21.5v21c21.333 -2 42 -3 62 -3c30.667 0 59.334 1.16699 86.001 3.5s51.334 5.83301 74.001 10.5z" />
    <glyph glyph-name="m" unicode="m" horiz-adv-x="910" 
d="M397 532c28.667 0 51.8379 -3.66895 69.5049 -11.002s31.5 -16.666 41.5 -27.999c10.667 -12.667 18.334 -29.167 23.001 -49.5s7 -47.166 7 -80.499v-270c0 -28 3.83301 -47 11.5 -57s21.167 -15 40.5 -15v-21c-12.667 0.666992 -31.334 1.5 -56.001 2.5
s-48.667 1.5 -72 1.5c-25.333 0 -50 -0.5 -74 -1.5s-42 -1.83301 -54 -2.5v21c15.333 0 26.166 5 32.499 15s9.5 29 9.5 57v318c0 15.333 -1.33301 28.5 -4 39.5s-7.33398 19.333 -14.001 25s-16.334 8.5 -29.001 8.5c-14.667 0 -28.5 -4 -41.5 -12
s-23.333 -19.167 -31 -33.5s-11.5 -30.5 -11.5 -48.5v-297c0 -28 3 -47 9 -57s17 -15 33 -15v-21c-11.333 0.666992 -28.333 1.5 -51 2.5s-45.667 1.5 -69 1.5c-27.333 0 -54.666 -0.5 -81.999 -1.5s-48 -1.83301 -62 -2.5v21c22 0 37.5 5 46.5 15s13.5 29 13.5 57v316
c0 30 -4.33301 52.167 -13 66.5s-24.334 21.5 -47.001 21.5v21c21.333 -2 42 -3 62 -3c30 0 58.5 1.16699 85.5 3.5s51.833 5.83301 74.5 10.5v-81c15.333 30 36.166 51.5 62.499 64.5s56.166 19.5 89.499 19.5zM698.004 531.998c28.667 0 51.834 -3.66797 69.501 -11.001
s31.5 -16.666 41.5 -27.999c10.667 -12.667 18.334 -29.167 23.001 -49.5s7 -47.166 7 -80.499v-270c0 -28 4.5 -47 13.5 -57s24.5 -15 46.5 -15v-21c-13.333 0.666992 -33.166 1.5 -59.499 2.5s-51.833 1.5 -76.5 1.5c-25.333 0 -50 -0.5 -74 -1.5s-42 -1.83301 -54 -2.5
v21c15.333 0 26.166 5 32.499 15s9.5 29 9.5 57v318c0 15.333 -1.66699 28.5 -5 39.5s-8.83301 19.333 -16.5 25s-18.834 8.5 -33.501 8.5c-22 0 -41.5 -9.66699 -58.5 -29s-26.167 -42.333 -27.5 -69l-6 50c18 37.333 41.667 62.666 71 75.999s61.666 20 96.999 20z" />
    <glyph glyph-name="n" unicode="n" horiz-adv-x="619" 
d="M406 532c29.333 0 52.8311 -3.66895 70.498 -11.002s31.167 -16.666 40.5 -27.999c10.667 -12.667 18.5 -29 23.5 -49s7.5 -47 7.5 -81v-270c0 -28 4.5 -47 13.5 -57s24.5 -15 46.5 -15v-21c-13.333 0.666992 -33.166 1.5 -59.499 2.5s-51.833 1.5 -76.5 1.5
c-27.333 0 -53.666 -0.5 -78.999 -1.5s-44.333 -1.83301 -57 -2.5v21c18.667 0 31.667 5 39 15s11 29 11 57v318c0 15.333 -1.66699 28.5 -5 39.5s-9 19.333 -17 25s-19.333 8.5 -34 8.5c-23.333 0 -43.333 -8.83301 -60 -26.5s-25 -40.167 -25 -67.5v-297
c0 -28 3.66699 -47 11 -57s20.333 -15 39 -15v-21c-12.667 0.666992 -31 1.5 -55 2.5s-48.333 1.5 -73 1.5c-27.333 0 -54.666 -0.5 -81.999 -1.5s-48 -1.83301 -62 -2.5v21c22 0 37.5 5 46.5 15s13.5 29 13.5 57v316c0 30 -4.33301 52.167 -13 66.5
s-24.334 21.5 -47.001 21.5v21c21.333 -2 42 -3 62 -3c30 0 58.5 1.16699 85.5 3.5s51.833 5.83301 74.5 10.5v-81c16 30.667 37.833 52.334 65.5 65.001s59.5 19 95.5 19z" />
    <glyph glyph-name="o" unicode="o" horiz-adv-x="570" 
d="M285 532c50 0 93.833 -8.83301 131.5 -26.5s67 -46.5 88 -86.5s31.5 -93.333 31.5 -160s-10.5 -120 -31.5 -160s-50.333 -68.833 -88 -86.5s-81.5 -26.5 -131.5 -26.5c-49.333 0 -92.833 8.83301 -130.5 26.5s-67.167 46.5 -88.5 86.5s-32 93.333 -32 160
s10.667 120 32 160s50.833 68.833 88.5 86.5s81.167 26.5 130.5 26.5zM285 512c-23.333 0 -42.833 -19.833 -58.5 -59.5s-23.5 -104.167 -23.5 -193.5s7.83301 -153.833 23.5 -193.5s35.167 -59.5 58.5 -59.5c24 0 43.667 19.833 59 59.5s23 104.167 23 193.5
s-7.66699 153.833 -23 193.5s-35 59.5 -59 59.5z" />
    <glyph glyph-name="p" unicode="p" horiz-adv-x="606" 
d="M241 528l-0.000976562 -608c0 -32 7.83301 -53.333 23.5 -64s37.167 -16 64.5 -16v-21c-18 0.666992 -43 1.5 -75 2.5s-65.667 1.5 -101 1.5c-25.333 0 -50.5 -0.5 -75.5 -1.5s-43.833 -1.83301 -56.5 -2.5v21c21.333 0 36.333 4.83301 45 14.5s13 28.167 13 55.5v498
c0 30 -4.33301 52.167 -13 66.5s-24.334 21.5 -47.001 21.5v21c21.333 -2 42 -3 62 -3c30.667 0 59.334 1.16699 86.001 3.5s51.334 5.83301 74.001 10.5zM393.999 532c50 0 92.001 -20.667 126.001 -62s51 -104 51 -188c0 -70 -10.167 -126.833 -30.5 -170.5
s-48 -75.5 -83 -95.5s-74.5 -30 -118.5 -30c-24.667 0 -47.5 3.5 -68.5 10.5s-37.5 18.167 -49.5 33.5l10 13c6 -9.33301 14.333 -16.333 25 -21s22 -7 34 -7c27.333 0 49.166 9.5 65.499 28.5s28.166 46.833 35.499 83.5s11 81.334 11 134.001
c0 58 -3.33301 103.167 -10 135.5s-15.667 55.166 -27 68.499s-24.666 20 -39.999 20c-21.333 0 -40.5 -8.16699 -57.5 -24.5s-26.5 -38.5 -28.5 -66.5l-2 42c14 32 34.667 56 62 72s59 24 95 24z" />
    <glyph glyph-name="q" unicode="q" horiz-adv-x="593" 
d="M255 532c27.333 0 51.8359 -2.66797 73.5029 -8.00098s41.5 -16.333 59.5 -33l-13 -11c-9.33301 11.333 -20.5 19.5 -33.5 24.5s-26.167 7.5 -39.5 7.5c-32.667 0 -57.334 -21 -74.001 -63s-25 -105.333 -25 -190c0 -57.333 3.5 -102.5 10.5 -135.5
s16.667 -56.167 29 -69.5s26.166 -20 41.499 -20c20.667 0 39.167 8.16699 55.5 24.5s25.166 38.166 26.499 65.499l2 -42c-11.333 -32 -27.833 -56 -49.5 -72s-48.167 -24 -79.5 -24c-38 0 -72.667 9.5 -104 28.5s-56 48.833 -74 89.5s-27 93.334 -27 158.001
c0 60.667 9.33301 110.834 28 150.501s44.5 69.5 77.5 89.5s71.5 30 115.5 30zM519.003 533.999l14.002 -8.99707c-2.66699 -8.66699 -4.5 -17.834 -5.5 -27.501s-1.5 -19.167 -1.5 -28.5v-559c0 -27.333 4.33301 -45.833 13 -55.5s23.667 -14.5 45 -14.5v-21
c-12.667 0.666992 -31.334 1.5 -56.001 2.5s-50 1.5 -76 1.5c-34.667 0 -68.167 -0.5 -100.5 -1.5s-57.5 -1.83301 -75.5 -2.5v21c28 0 49.667 5.33301 65 16s23 32 23 64v585c19.333 -4.66699 39.166 -6.33398 59.499 -5.00098s39 5.16602 56 11.499
s30.167 13.833 39.5 22.5z" />
    <glyph glyph-name="r" unicode="r" horiz-adv-x="474" 
d="M377 532c22.667 0 40.668 -4.83203 54.001 -14.499s23 -22 29 -37s9 -29.833 9 -44.5c0 -27.333 -7.83301 -49.333 -23.5 -66s-36.167 -25 -61.5 -25c-26.667 0 -47 6.16699 -61 18.5s-21 28.833 -21 49.5s4.5 37.667 13.5 51s20.167 24.666 33.5 33.999
c-10 1.33301 -19.667 0 -29 -4c-14.667 -3.33301 -27.667 -10.833 -39 -22.5s-20.166 -25 -26.499 -40s-9.5 -30.5 -9.5 -46.5v-282c0 -32 7.16699 -53.667 21.5 -65s37.166 -17 68.499 -17v-21c-15.333 0.666992 -38 1.5 -68 2.5s-61 1.5 -93 1.5
c-28.667 0 -57.5 -0.5 -86.5 -1.5s-50.5 -1.83301 -64.5 -2.5v21c22 0 37.5 5 46.5 15s13.5 29 13.5 57v316c0 30 -4.33301 52.167 -13 66.5s-24.334 21.5 -47.001 21.5v21c21.333 -2 42 -3 62 -3c30 0 58.5 1.16699 85.5 3.5s51.833 5.83301 74.5 10.5v-82
c8 17.333 18.5 32.333 31.5 45s28 22.5 45 29.5s35.5 10.5 55.5 10.5z" />
    <glyph glyph-name="s" unicode="s" horiz-adv-x="467" 
d="M226 532c29.333 0 54.6689 -3.32812 76.002 -9.99512s37 -13 47 -19c23.333 -14.667 37.333 -5.33398 42 27.999h21c-1.33301 -19.333 -2.33301 -42.5 -3 -69.5s-1 -63.167 -1 -108.5h-21c-2.66699 24.667 -8.5 49 -17.5 73s-22.167 43.833 -39.5 59.5s-40 23.5 -68 23.5
c-18 0 -33.167 -5.33301 -45.5 -16s-18.5 -25.334 -18.5 -44.001c0 -20 6 -37.667 18 -53s27.5 -30 46.5 -44s38.167 -29 57.5 -45c32 -24.667 59 -49.334 81 -74.001s33 -56.667 33 -96c0 -30 -9 -56.333 -27 -79s-41.667 -40.334 -71 -53.001s-62 -19 -98 -19
c-22 0 -41.167 2.16699 -57.5 6.5s-29.833 9.83301 -40.5 16.5l-26.5 12c-7.66699 3.33301 -15.167 5.66602 -22.5 6.99902c-6.66699 0.666992 -12.334 -2.33301 -17.001 -9s-8.33398 -15.334 -11.001 -26.001h-21c1.33301 21.333 2.33301 47.333 3 78s1 71.334 1 122.001
h21c4 -36 11.5 -67.667 22.5 -95s25.833 -48.833 44.5 -64.5s40.667 -23.5 66 -23.5c16.667 0 31.667 5 45 15s20 26 20 48c0 29.333 -9.33301 53.833 -28 73.5s-41.667 41.167 -69 64.5c-21.333 18 -41.166 35.667 -59.499 53s-33.333 36.333 -45 57s-17.5 44 -17.5 70
c0 30 8.5 55.5 25.5 76.5s39.167 37 66.5 48s56.666 16.5 87.999 16.5z" />
    <glyph glyph-name="t" unicode="t" horiz-adv-x="351" 
d="M240 681l0.000976562 -163.002h108v-20h-108v-409c0 -16.667 3 -28.5 9 -35.5s15 -10.5 27 -10.5c10 0 20.5 3.33301 31.5 10s21.167 18 30.5 34l16 -10c-12.667 -27.333 -30.167 -49.333 -52.5 -66s-51.5 -25 -87.5 -25c-22 0 -41.5 2.83301 -58.5 8.5
s-31.167 14.167 -42.5 25.5c-14.667 14.667 -24.167 32.834 -28.5 54.501s-6.5 49.834 -6.5 84.501v339h-80v20h80v125c31.333 0 60.166 3 86.499 9s51.5 15.667 75.5 29z" />
    <glyph glyph-name="u" unicode="u" horiz-adv-x="614" 
d="M535 529l-0.000976562 -419.999c0 -30 4.5 -52.167 13.5 -66.5s24.5 -21.5 46.5 -21.5v-21c-20.667 2 -41.334 3 -62.001 3c-30.667 0 -59.167 -1 -85.5 -3s-51.166 -5.66699 -74.499 -11v81c-16 -30 -37.833 -51.5 -65.5 -64.5s-59.167 -19.5 -94.5 -19.5
c-29.333 0 -52.833 3.66699 -70.5 11s-31.167 17 -40.5 29c-10.667 12 -18.334 28.167 -23.001 48.5s-7 47.166 -7 80.499v254c0 30 -4.33301 52.167 -13 66.5s-24.334 21.5 -47.001 21.5v21c21.333 -2 42 -3 62 -3c30.667 0 59.334 1.16699 86.001 3.5
s51.334 5.83301 74.001 10.5v-422c0 -15.333 1.66699 -28.333 5 -39s9 -19 17 -25s18.667 -9 32 -9c23.333 0 43.333 9 60 27s25 40.333 25 67v281c0 30 -4.33301 52.167 -13 66.5s-24.334 21.5 -47.001 21.5v21c21.333 -2 42 -3 62 -3c30.667 0 59.334 1.16699 86.001 3.5
s51.334 5.83301 74.001 10.5z" />
    <glyph glyph-name="v" unicode="v" horiz-adv-x="514" 
d="M514 518l-0.00292969 -21c-12.667 -4 -24.667 -12.333 -36 -25s-22.666 -34.667 -33.999 -66l-141 -407c-13.333 1.33301 -26.666 2 -39.999 2s-27 -0.666992 -41 -2l-176 442c-10 25.333 -20.333 41 -31 47s-19.667 9 -27 9v21c24 -1.33301 49 -2.5 75 -3.5
s54.333 -1.5 85 -1.5c20.667 0 42.5 0.5 65.5 1.5s44.5 2.16699 64.5 3.5v-21c-12.667 0 -24.167 -0.666992 -34.5 -2s-17.666 -5 -21.999 -11s-4.16602 -17 0.500977 -33l114 -311l-11 -17l67 193c20.667 60.667 24.167 105.5 10.5 134.5s-35.834 44.5 -66.501 46.5v21
c14.667 -1.33301 32 -2.33301 52 -3s36.333 -1 49 -1s26.667 0.333008 42 1s27 1.66699 35 3z" />
    <glyph glyph-name="w" unicode="w" horiz-adv-x="792" 
d="M281 518v-20.9971c-14.667 0 -27 -0.833008 -37 -2.5s-16.833 -5.83398 -20.5 -12.501s-3.5 -17.334 0.5 -32.001l92 -297l-15 -18l107 383l21 -10l-143 -509c-13.333 1.33301 -26.833 2 -40.5 2s-27.167 -0.666992 -40.5 -2l-156 442
c-9.33301 26.667 -19.5 42.667 -30.5 48s-20.167 8 -27.5 8v21c24 -2 49 -3.5 75 -4.5s54.333 -1.5 85 -1.5c20.667 0 42.5 0.666992 65.5 2s44.5 2.66602 64.5 3.99902zM794 518.003l0.00195312 -20.999c-12.667 -4 -24.834 -12.167 -36.501 -24.5
s-22.834 -34.5 -33.501 -66.5l-129 -407c-13.333 1.33301 -26.666 2 -39.999 2s-27 -0.666992 -41 -2l-133 377l28 142c14.667 -0.666992 29.667 -1 45 -1s30.333 0.333008 45 1l130 -401l-12 17l57 182c18.667 62 20.667 107 6 135s-38.334 43.333 -71.001 46v21
c9.33301 -0.666992 21 -1.33398 35 -2.00098s27.667 -1.16699 41 -1.5s24 -0.5 32 -0.5c12.667 0 26.667 0.333008 42 1s27 1.66699 35 3z" />
    <glyph glyph-name="x" unicode="x" horiz-adv-x="541" 
d="M257 518l0.00292969 -21c-13.333 0 -22.833 -3 -28.5 -9s-5.16699 -14.333 1.5 -25l262 -392c7.33301 -10 15.333 -20.333 24 -31s18.667 -17 30 -19v-21c-11.333 0.666992 -28.333 1.5 -51 2.5s-45.334 1.5 -68.001 1.5c-25.333 0 -50.833 -0.5 -76.5 -1.5
s-44.834 -1.83301 -57.501 -2.5v21c13.333 0 22.833 3 28.5 9s5.16699 14.333 -1.5 25l-262 392c-10 16 -19 27.833 -27 35.5s-17 12.5 -27 14.5v21c12.667 -0.666992 32 -1.5 58 -2.5s51.667 -1.5 77 -1.5c22.667 0 45.167 0.5 67.5 1.5s39.166 1.83301 50.499 2.5z
M217.003 235l2.5 -11.499l2.5 -11.5l-25 -33c-21.333 -27.333 -33.166 -52.666 -35.499 -75.999s3.16699 -42.5 16.5 -57.5s31.666 -23.5 54.999 -25.5v-20c-12.667 0.666992 -29 1.16699 -49 1.5l-58 1c-18.667 0.333008 -34 0.5 -46 0.5c-27.333 0 -50.333 -1 -69 -3v20
c16.667 7.33301 32.167 17.166 46.5 29.499s29.833 29.166 46.5 50.499zM514.003 518.001l-0.00195312 -19.999c-14 -5.33301 -28.833 -14.833 -44.5 -28.5s-31.834 -30.5 -48.501 -50.5l-109 -132l-2.5 11.5l-2.5 11.5l41 53c28.667 35.333 40.334 66 35.001 92
s-25.666 40.333 -60.999 43v20c20 -0.666992 41.333 -1.33398 64 -2.00098s42.334 -1 59.001 -1c27.333 0 50.333 1 69 3z" />
    <glyph glyph-name="y" unicode="y" horiz-adv-x="524" 
d="M519 518l0.000976562 -21c-12.667 -4 -24.834 -12.333 -36.501 -25s-22.834 -34.667 -33.501 -66l-133 -384l-44 -93l-229 512c-11.333 25.333 -22.333 41 -33 47s-19.667 9 -27 9v21c24.667 -2 50 -3.5 76 -4.5s50.667 -1.5 74 -1.5c29.333 0 55.333 0.666992 78 2
s44 2.66602 64 3.99902v-21c-12.667 0 -24.667 -0.666992 -36 -2s-19.166 -5.16602 -23.499 -11.499s-3.16602 -17.5 3.50098 -33.5l127 -304l-10 -7l61 177c20.667 60.667 24.167 105.5 10.5 134.5s-35.834 44.5 -66.501 46.5v21c14.667 -1.33301 32 -2.33301 52 -3
s36.333 -1 49 -1s26.667 0.333008 42 1s27 1.66699 35 3zM316.001 22l-40.002 -114.002c-12 -34 -26.667 -58 -44 -72c-9.33301 -7.33301 -21.166 -13.166 -35.499 -17.499s-32.5 -6.5 -54.5 -6.5c-17.333 0 -35.5 2.83301 -54.5 8.5s-35 14.834 -48 27.501
s-19.5 29.667 -19.5 51c0 22 8 39.5 24 52.5s37.667 19.5 65 19.5c24.667 0 44.5 -5.66699 59.5 -17s22.5 -28.333 22.5 -51c0 -14 -4.66699 -27.667 -14 -41s-24 -23.333 -44 -30c4.66699 -0.666992 9.83398 -1.16699 15.501 -1.5s10.167 -0.5 13.5 -0.5
c20.667 0 39 6.5 55 19.5s28.667 33.167 38 60.5l35 106z" />
    <glyph glyph-name="z" unicode="z" horiz-adv-x="473" 
d="M445 522l-237.002 -506.999h34c25.333 0 50 5.66699 74 17s44.5 30.333 61.5 57s27.167 63.667 30.5 111h20c0 -50.667 0.333008 -91.834 1 -123.501s1.66699 -58.5 3 -80.5c-30 1.33301 -61.5 2.33301 -94.5 3s-66.167 1 -99.5 1c-34 0 -69.167 -0.5 -105.5 -1.5
s-71.166 -2.16699 -104.499 -3.5l237 507h-38c-25.333 0 -49.666 -5.5 -72.999 -16.5s-42.833 -30 -58.5 -57s-25.5 -64.167 -29.5 -111.5h-21c0 51.333 -0.333008 92.833 -1 124.5s-1.66699 58.167 -3 79.5c31.333 -1.33301 63.5 -2.33301 96.5 -3s65.5 -1 97.5 -1
c35.333 0 71 0.5 107 1.5s70.333 2.16699 103 3.5z" />
    <glyph glyph-name="braceleft" unicode="{" horiz-adv-x="343" 
d="M329 782l-0.000976562 -19.002c-19.333 -0.666992 -34.166 -5.5 -44.499 -14.5s-17.5 -28.333 -21.5 -58s-6 -76.167 -6 -139.5c0 -60 -10.167 -107 -30.5 -141s-46.833 -59.167 -79.5 -75.5s-67.667 -28.166 -105 -35.499c37.333 -7.33301 72.333 -19.333 105 -36
s59.167 -41.834 79.5 -75.501s30.5 -80.5 30.5 -140.5c0 -49.333 1 -88.333 3 -117s5.66699 -50.167 11 -64.5s12.833 -23.666 22.5 -27.999s21.5 -6.5 35.5 -6.5v-19c-56.667 0 -102.167 6.83301 -136.5 20.5s-59.166 37.5 -74.499 71.5s-23 81.667 -23 143
c0 62.667 -2.16699 111.167 -6.5 145.5s-11.833 58.833 -22.5 73.5s-26.334 22.667 -47.001 24h-5v18h5c20.667 1.33301 36.334 9.16602 47.001 23.499s18.167 38.833 22.5 73.5s6.5 83.334 6.5 146.001c0 58.667 7.66699 104.834 23 138.501s40.166 57.5 74.499 71.5
s79.833 21 136.5 21z" />
    <glyph glyph-name="bar" unicode="|" horiz-adv-x="264" 
d="M184 858v-1053h-104v1053h104z" />
    <glyph glyph-name="braceright" unicode="}" horiz-adv-x="343" 
d="M14 782l0.000976562 -19.002c19.333 -0.666992 34.166 -5.5 44.499 -14.5s17.5 -28.333 21.5 -58s6 -76.167 6 -139.5c0 -60 10.167 -107 30.5 -141s46.833 -59.167 79.5 -75.5s67.667 -28.166 105 -35.499c-37.333 -7.33301 -72.333 -19.333 -105 -36
s-59.167 -41.834 -79.5 -75.501s-30.5 -80.5 -30.5 -140.5c0 -49.333 -1 -88.333 -3 -117s-5.66699 -50.167 -11 -64.5s-12.833 -23.666 -22.5 -27.999s-21.5 -6.5 -35.5 -6.5v-19c56.667 0 102.167 6.83301 136.5 20.5s59.166 37.5 74.499 71.5s23 81.667 23 143
c0 62.667 2.16699 111.167 6.5 145.5s11.833 58.833 22.5 73.5s26.334 22.667 47.001 24h5v18h-5c-20.667 1.33301 -36.334 9.16602 -47.001 23.499s-18.167 38.833 -22.5 73.5s-6.5 83.334 -6.5 146.001c0 58.667 -7.66699 104.834 -23 138.501s-40.166 57.5 -74.499 71.5
s-79.833 21 -136.5 21z" />
    <glyph glyph-name="asciitilde" unicode="~" horiz-adv-x="675" 
d="M213 397c27.333 0 52.8301 -4.66699 76.4971 -14s46.5 -20.166 68.5 -32.499s44.5 -23.166 67.5 -32.499s47.5 -14 73.5 -14c22.667 0 43.334 5.5 62.001 16.5s33.334 30.167 44.001 57.5l17 -3c-4 -52 -21.333 -93.667 -52 -125s-66 -47 -106 -47
c-27.333 0 -52.833 4.66699 -76.5 14s-46.5 20.166 -68.5 32.499s-44.333 23.166 -67 32.499s-47 14 -73 14c-23.333 0 -44.166 -5.5 -62.499 -16.5s-32.833 -30.167 -43.5 -57.5l-18 3c4.66699 52.667 22.167 94.5 52.5 125.5s65.5 46.5 105.5 46.5z" />
    <glyph glyph-name="uni00A0" unicode="&#xa0;" horiz-adv-x="228" 
 />
    <glyph glyph-name="exclamdown" unicode="&#xa1;" horiz-adv-x="286" 
d="M151 318c2.66699 -40 8.33105 -79 16.998 -117s18.334 -74.333 29.001 -109s19.834 -66.667 27.501 -96s11.5 -55 11.5 -77c0 -35.333 -8.83301 -62 -26.5 -80s-39.834 -27 -66.501 -27c-27.333 0 -50 9.33301 -68 28s-27 45 -27 79c0 21.333 4 46.5 12 75.5
s17.333 61 28 96s20.334 71.667 29.001 110s14 77.5 16 117.5h18zM142.997 532c28.667 0 51.167 -7 67.5 -21s24.5 -34 24.5 -60c0 -26.667 -8.16699 -47 -24.5 -61s-38.833 -21 -67.5 -21s-51.167 7 -67.5 21s-24.5 34.333 -24.5 61c0 26 8.16699 46 24.5 60
s38.833 21 67.5 21z" />
    <glyph glyph-name="cent" unicode="&#xa2;" horiz-adv-x="507" 
d="M256 -181v236h22v-236h-22zM256 519v189h22v-189h-22zM284 532c27.333 0 52.1602 -2.83105 74.4932 -8.49805s40.5 -12.834 54.5 -21.501c17.333 -10.667 31.166 -24.334 41.499 -41.001s15.5 -36 15.5 -58c0 -25.333 -8.16699 -46.5 -24.5 -63.5
s-37.166 -25.5 -62.499 -25.5c-26.667 0 -47.5 7.66699 -62.5 23s-22.5 35 -22.5 59c0 23.333 7.33301 43 22 59s32 26.667 52 32c-5.33301 5.33301 -12.166 9.66602 -20.499 12.999s-18.166 5 -29.499 5c-22.667 0 -41.667 -6.5 -57 -19.5s-27.666 -30.667 -36.999 -53
s-16.166 -47.333 -20.499 -75s-6.5 -56.167 -6.5 -85.5c0 -49.333 6.33301 -87.833 19 -115.5s28.834 -47 48.501 -58s39.834 -16.5 60.501 -16.5c16 0 35.833 4.33301 59.5 13s45.834 29 66.501 61l18 -6c-8 -26 -20.667 -51.667 -38 -77s-39.666 -46.166 -66.999 -62.499
s-60.333 -24.5 -99 -24.5c-44 0 -84 9 -120 27s-64.5 47 -85.5 87s-31.5 92.333 -31.5 157c0 62.667 11 114.167 33 154.5s52.167 70.5 90.5 90.5s81.166 30 128.499 30z" />
    <glyph glyph-name="sterling" unicode="&#xa3;" horiz-adv-x="680" 
d="M396 736c26.667 0 49.665 -2.16797 68.998 -6.50098s34.666 -9.83301 45.999 -16.5c16.667 -9.33301 30.167 -21 40.5 -35s15.5 -30.667 15.5 -50c0 -22.667 -7.33301 -41.5 -22 -56.5s-34 -22.5 -58 -22.5s-43.5 6.83301 -58.5 20.5s-22.5 31.167 -22.5 52.5
c0 40.667 19.333 68.334 58 83.001c-5.33301 4 -13 7.16699 -23 9.5s-21.667 3.5 -35 3.5c-22 0 -40 -5 -54 -15s-24.667 -25.167 -32 -45.5s-12.666 -46.5 -15.999 -78.5s-5 -70 -5 -114v-121c0 -38.667 -6.66699 -72.667 -20 -102s-31 -57.333 -53 -84l-72 -89
c37.333 32.667 69.833 54 97.5 64s52.5 15 74.5 15c27.333 0 50.833 -2.33301 70.5 -7s39 -9.5 58 -14.5s40.5 -7.5 64.5 -7.5c20.667 0 36.834 5.5 48.501 16.5s17.5 24.5 17.5 40.5c0 19.333 -6.33301 34.833 -19 46.5s-29.334 19.5 -50.001 23.5l4 16
c32 -5.33301 61.333 -19.166 88 -41.499s40 -52.833 40 -91.5c0 -43.333 -13.5 -78 -40.5 -104s-68.5 -39 -124.5 -39c-30 0 -58.167 4 -84.5 12s-51.666 16.833 -75.999 26.5s-48.833 17.5 -73.5 23.5c-6.66699 1.33301 -14.167 3 -22.5 5s-17.166 3 -26.499 3
c-18.667 0 -37 -3.33301 -55 -10c-12.667 -20 -26.834 -35 -42.501 -45s-30.834 -15 -45.501 -15c-6.66699 0 -12.5 1.16699 -17.5 3.5s-7.5 7.16602 -7.5 14.499s3.33301 14.5 10 21.5s16.334 13.667 29.001 20s28.334 11.5 47.001 15.5c6.66699 16.667 11 33.5 13 50.5
s3 37.167 3 60.5v86v181c0 54.667 8 104.5 24 149.5s42.833 80.833 80.5 107.5s90.167 40 157.5 40zM411.998 316.999v-20h-355v20h355zM411.998 416.999v-20h-355v20h355z" />
    <glyph glyph-name="currency" unicode="&#xa4;" horiz-adv-x="642" 
d="M485 567l103.997 -104.001l-64 -64c7.33301 -15.333 13 -31.166 17 -47.499s6 -33.5 6 -51.5s-2 -35.333 -6 -52s-10 -32.334 -18 -47.001l65 -64l-104 -104l-65 64c-15.333 -7.33301 -31.166 -13.166 -47.499 -17.499s-33.5 -6.5 -51.5 -6.5c-35.333 0 -68 8 -98 24
l-64 -64l-104 104l63 63c-7.33301 15.333 -13.166 31.333 -17.499 48s-6.5 34 -6.5 52c0 34.667 8 67.667 24 99l-63 64l104 104l63 -64c14.667 8 30.334 14.167 47.001 18.5s34 6.5 52 6.5s35.333 -2.33301 52 -7s32.667 -10.667 48 -18zM321.997 415.999
c-19.333 0 -37 -5.16699 -53 -15.5s-28.667 -24.333 -38 -42s-14 -37.167 -14 -58.5c0 -20.667 4.83301 -39.834 14.5 -57.501s22.5 -31.667 38.5 -42s33.333 -15.5 52 -15.5c19.333 0 36.833 5.16699 52.5 15.5s28.167 24.333 37.5 42s14 36.834 14 57.501
s-4.66699 40 -14 58s-21.833 32.167 -37.5 42.5s-33.167 15.5 -52.5 15.5z" />
    <glyph glyph-name="yen" unicode="&#xa5;" horiz-adv-x="688" 
d="M572 305v-20h-421v20h421zM572 205v-20h-421v20h421zM659 709v-19.999c-14.667 -6.66699 -30.334 -19.5 -47.001 -38.5s-34.667 -47.5 -54 -85.5l-184 -366h-57l-234 433c-12 22 -22.833 36.833 -32.5 44.5s-18.167 11.5 -25.5 11.5v21c18.667 -2 38.5 -3.5 59.5 -4.5
s43.833 -1.5 68.5 -1.5c31.333 0 65.333 0.666992 102 2s70.667 2.66602 102 3.99902v-21c-16.667 0 -32 -1 -46 -3s-23.667 -6 -29 -12s-4.66602 -16 2.00098 -30l154 -297l-39 -51l94 188c26 51.333 40.167 91.833 42.5 121.5s-3.83398 51 -18.501 64
s-35.667 19.833 -63 20.5v20c24.667 -0.666992 46.834 -1.33398 66.501 -2.00098s40.167 -1 61.5 -1c14 0 27.833 0.333008 41.5 1s25.5 1.33398 35.5 2.00098zM452 375.001l0.00195312 -269c0 -24 1.83301 -42 5.5 -54s10.667 -20 21 -24s25.833 -6.66699 46.5 -8v-20
c-18.667 1.33301 -43 2.16602 -73 2.49902s-60 0.5 -90 0.5c-32 0 -63 -0.166992 -93 -0.5s-53.667 -1.16602 -71 -2.49902v20c21.333 1.33301 37.166 4 47.499 8s17.166 12 20.499 24s5 30 5 54v205l98 -62z" />
    <glyph glyph-name="brokenbar" unicode="&#xa6;" horiz-adv-x="267" 
d="M186 326v-521h-104v521h104zM186 858v-474h-104v474h104z" />
    <glyph glyph-name="section" unicode="&#xa7;" horiz-adv-x="606" 
d="M331 782c30.667 0 56.6709 -2.66895 78.0039 -8.00195s37.666 -10.666 48.999 -15.999c19.333 -9.33301 34.666 -21.333 45.999 -36s17 -33.667 17 -57c0 -20 -7.33301 -37.667 -22 -53s-34.334 -23 -59.001 -23c-25.333 0 -45.5 7 -60.5 21s-22.5 32 -22.5 54
c0 17.333 4.66699 33.5 14 48.5s22.333 25.833 39 32.5c-3.33301 4.66699 -12.333 8.83398 -27 12.501s-29.334 5.5 -44.001 5.5c-25.333 0 -45.5 -4.16699 -60.5 -12.5s-25.833 -19.333 -32.5 -33s-10 -28.167 -10 -43.5c0 -26 6 -47.667 18 -65s30 -34 54 -50l86 -58
c38 -25.333 70.333 -48.5 97 -69.5s47 -42.667 61 -65s21 -48.5 21 -78.5c0 -35.333 -12.5 -68 -37.5 -98s-68.833 -58.333 -131.5 -85l-9 10c17.333 14 30.333 27.667 39 41s13 31.333 13 54c0 19.333 -5.16699 36.833 -15.5 52.5s-27.833 33 -52.5 52
s-58 42.167 -100 69.5c-44 28.667 -80.167 54.834 -108.5 78.501s-49.5 47.167 -63.5 70.5s-21 49.333 -21 78c0 35.333 10.333 65.666 31 90.999s49.5 45 86.5 59s79.5 21 127.5 21zM202.004 488.998l9.99805 -9.99609c-18 -12.667 -31.167 -25.834 -39.5 -39.501
s-12.5 -32.167 -12.5 -55.5c0 -18.667 5.16699 -36 15.5 -52s27.833 -33.5 52.5 -52.5s58 -42.167 100 -69.5c43.333 -28.667 79.333 -54.667 108 -78s50 -46.833 64 -70.5s21 -49.834 21 -78.501c0 -34.667 -10.333 -64.834 -31 -90.501s-49.5 -45.5 -86.5 -59.5
s-79.5 -21 -127.5 -21c-31.333 0 -57.5 2.66699 -78.5 8s-37.167 10.666 -48.5 15.999c-19.333 9.33301 -34.666 21.5 -45.999 36.5s-17 33.833 -17 56.5c0 20 7.33301 37.667 22 53s34.334 23 59.001 23s44.667 -7 60 -21s23 -32 23 -54
c0 -17.333 -4.83301 -33.5 -14.5 -48.5s-22.5 -25.833 -38.5 -32.5c2 -2.66699 6.66699 -5.5 14 -8.5s16.166 -5.33301 26.499 -7s20.5 -2.5 30.5 -2.5c25.333 0 45.5 4.16699 60.5 12.5s25.833 19.5 32.5 33.5s10 28.333 10 43c0 26.667 -6.16699 48.5 -18.5 65.5
s-30.166 33.5 -53.499 49.5l-86 58c-38 26 -70.333 49.333 -97 70s-47 42.167 -61 64.5s-21 48.5 -21 78.5c0 36 12.5 69 37.5 99s68.5 58 130.5 84z" />
    <glyph glyph-name="dieresis" unicode="&#xa8;" horiz-adv-x="495" 
d="M365 766c21.333 0 40.167 -8.16699 56.5 -24.5s24.5 -35.166 24.5 -56.499c0 -22.667 -8.16699 -41.834 -24.5 -57.501s-35.5 -23.5 -57.5 -23.5s-41 8 -57 24s-24 35 -24 57s8 41 24 57s35.333 24 58 24zM132.001 766c21.333 0 40.166 -8.16699 56.499 -24.5
s24.5 -35.166 24.5 -56.499c0 -22.667 -8.16699 -41.834 -24.5 -57.501s-35.166 -23.5 -56.499 -23.5c-22.667 0 -42 8 -58 24s-24 35 -24 57s8 41 24 57s35.333 24 58 24z" />
    <glyph glyph-name="copyright" unicode="&#xa9;" horiz-adv-x="876" 
d="M438 782c55.333 0 107 -10.333 155 -31s90.167 -49.167 126.5 -85.5s64.833 -78.5 85.5 -126.5s31 -99.667 31 -155c0 -54.667 -10.333 -106.167 -31 -154.5s-49.167 -90.666 -85.5 -126.999s-78.5 -64.833 -126.5 -85.5s-99.667 -31 -155 -31
c-54.667 0 -106.167 10.333 -154.5 31s-90.666 49.167 -126.999 85.5s-64.833 78.666 -85.5 126.999s-31 99.833 -31 154.5c0 55.333 10.333 107 31 155s49.167 90.167 85.5 126.5s78.666 64.833 126.999 85.5s99.833 31 154.5 31zM462 658
c28 0 53.165 -3.16797 75.498 -9.50098s40.5 -13.5 54.5 -21.5c16.667 -10.667 30.167 -24.334 40.5 -41.001s15.5 -35.667 15.5 -57c0 -26 -8.16699 -47.333 -24.5 -64s-37.166 -25 -62.499 -25c-26.667 0 -47.5 7.66699 -62.5 23s-22.5 35.333 -22.5 60
c0 22.667 7.33301 42 22 58s32 26.667 52 32c-6 5.33301 -14.667 10 -26 14s-23.666 6 -36.999 6c-6.66699 0 -13.5 -0.833008 -20.5 -2.5s-13.833 -4.5 -20.5 -8.5c-13.333 -5.33301 -25 -16 -35 -32s-17.833 -39.333 -23.5 -70s-8.5 -72 -8.5 -124
c0 -54.667 6.33301 -97.667 19 -129s29 -53.166 49 -65.499s40.333 -18.5 61 -18.5c10.667 0 23 2.33301 37 7s28.833 14 44.5 28s30.5 35 44.5 63l17 -6c-8 -25.333 -20.5 -50.666 -37.5 -75.999s-39.167 -46.333 -66.5 -63s-60.666 -25 -99.999 -25
c-44 0 -83.833 9.16699 -119.5 27.5s-64.167 47.5 -85.5 87.5s-32 92.333 -32 157c0 62 11 113.333 33 154s52.167 71 90.5 91s81.166 30 128.499 30zM437.998 749.999c-49.333 0 -95.666 -9.5 -138.999 -28.5s-81.333 -45.333 -114 -79s-58.334 -72.5 -77.001 -116.5
s-28 -91.333 -28 -142s9.33301 -98 28 -142s44.334 -82.833 77.001 -116.5s70.667 -60 114 -79s89.666 -28.5 138.999 -28.5s95.666 9.5 138.999 28.5s81.333 45.333 114 79s58.334 72.5 77.001 116.5s28 91.333 28 142s-9.33301 98 -28 142s-44.334 82.833 -77.001 116.5
s-70.667 60 -114 79s-89.666 28.5 -138.999 28.5z" />
    <glyph glyph-name="ordfeminine" unicode="&#xaa;" horiz-adv-x="489" 
d="M246 722c57.333 0 98.6621 -10 123.995 -30s38 -52.333 38 -97v-170c0 -8 1.33301 -13.667 4 -17s7 -5 13 -5c10 0 18.333 3 25 9l11 -15c-14 -10.667 -31.333 -19.5 -52 -26.5s-44 -10.5 -70 -10.5c-28 0 -47.167 4.16699 -57.5 12.5s-16.166 19.833 -17.499 34.5
c-16.667 -16.667 -35.667 -28.667 -57 -36s-42.666 -11 -63.999 -11c-28.667 0 -52.667 6.33301 -72 19s-29 32.667 -29 60s11.5 48.5 34.5 63.5s58.833 29.833 107.5 44.5c19.333 6 37.5 13.667 54.5 23s25.5 20.333 25.5 33v18c0 30 -5.16699 51.167 -15.5 63.5
s-25.166 18.5 -44.499 18.5c-8 0 -16.167 -1 -24.5 -3s-16.166 -5.33301 -23.499 -10c16 -4 27.833 -12 35.5 -24s11.5 -24.333 11.5 -37c0 -20 -7.66699 -35.333 -23 -46s-32.666 -16 -51.999 -16c-22 0 -39.5 5.66699 -52.5 17s-19.5 26 -19.5 44
c0 16.667 5.33301 31 16 43s24 21.333 40 28c18.667 8.66699 38.667 14.667 60 18s46 5 74 5zM263.996 574c-2 -5.33301 -5.83203 -10.998 -11.499 -16.998s-13.5 -13.667 -23.5 -23c-13.333 -10.667 -22.833 -22.334 -28.5 -35.001s-8.5 -26.334 -8.5 -41.001
c0 -14 3.16699 -25.333 9.5 -34s14.166 -13 23.499 -13c14.667 0 27.667 4.66699 39 14v149z" />
    <glyph glyph-name="guillemotleft" unicode="&#xab;" horiz-adv-x="592" 
d="M315 534l14 -5c-8 -30.667 -19.167 -63.5 -33.5 -98.5s-30 -67.667 -47 -98s-33.833 -54.833 -50.5 -73.5c16.667 -17.333 33.5 -41.5 50.5 -72.5s32.667 -63.833 47 -98.5s25.5 -67.667 33.5 -99l-14 -5c-42.667 50.667 -87.5 98.5 -134.5 143.5
s-99.167 86.167 -156.5 123.5v16c57.333 37.333 109.5 78.5 156.5 123.5s91.833 92.833 134.5 143.5zM523 502l14 -5.00098c-6 -28 -15.167 -57.167 -27.5 -87.5s-25.333 -58.833 -39 -85.5s-27.167 -48.334 -40.5 -65.001c13.333 -15.333 26.833 -36.5 40.5 -63.5
s26.667 -55.833 39 -86.5s21.5 -60 27.5 -88l-14 -5c-38 44.667 -77.833 87 -119.5 127s-88.167 76 -139.5 108v16c51.333 32.667 97.833 68.834 139.5 108.501s81.5 81.834 119.5 126.501z" />
    <glyph glyph-name="logicalnot" unicode="&#xac;" horiz-adv-x="637" 
d="M572 370v-205h-36v175h-465v30h501z" />
    <glyph glyph-name="uni00AD" unicode="&#xad;" horiz-adv-x="475" 
 />
    <glyph glyph-name="registered" unicode="&#xae;" horiz-adv-x="660" 
d="M330 782c51.333 0 98.166 -12.5 140.499 -37.5s76 -58.667 101 -101s37.5 -89.166 37.5 -140.499s-12.5 -98.166 -37.5 -140.499s-58.667 -76 -101 -101s-89.166 -37.5 -140.499 -37.5s-98.166 12.5 -140.499 37.5s-76 58.667 -101 101s-37.5 89.166 -37.5 140.499
s12.5 98.166 37.5 140.499s58.667 76 101 101s89.166 37.5 140.499 37.5zM265 524c22.667 0 38.833 -0.334961 48.5 -1.00195s17 -1.5 22 -2.5s11.167 -2.16699 18.5 -3.5c36.667 -2.66699 61.667 -8.5 75 -17.5s21.666 -22.833 24.999 -41.5l16 -68
c1.33301 -7.33301 3 -12.5 5 -15.5s5 -4.5 9 -4.5s7.66699 1.33301 11 4l7 -10c-5.33301 -5.33301 -12.666 -9.66602 -21.999 -12.999s-20.333 -5 -33 -5c-22 0 -39 3.83301 -51 11.5s-19.667 18.834 -23 33.501l-13 72c-2.66699 12.667 -6.16699 22.167 -10.5 28.5
s-12.5 10.833 -24.5 13.5s-31.333 4 -58 4zM329.999 749.998c-44 0 -83.833 -11.167 -119.5 -33.5s-64.167 -52.166 -85.5 -89.499s-32 -78.666 -32 -123.999c0 -44.667 10.667 -85.834 32 -123.501s49.833 -67.667 85.5 -90s75.5 -33.5 119.5 -33.5s84 11.167 120 33.5
s64.5 52.333 85.5 90s31.5 78.834 31.5 123.501c0 45.333 -10.5 86.666 -31.5 123.999s-49.5 67.166 -85.5 89.499s-76 33.5 -120 33.5zM342.999 675.998c45.333 0 77.3359 -6.83203 96.0029 -20.499s28 -33.167 28 -58.5c0 -10.667 -3.83301 -22.167 -11.5 -34.5
s-22 -23.333 -43 -33s-51.5 -15.5 -91.5 -17.5l-61 -3v8v8h53c21.333 0 37.166 6 47.499 18s15.5 28.667 15.5 50c0 22 -4 38.833 -12 50.5s-20.333 17.5 -37 17.5c-8.66699 0 -14.5 -1.83301 -17.5 -5.5s-4.5 -10.834 -4.5 -21.501v-230c0 -15.333 1.5 -25 4.5 -29
s9.16699 -6.66699 18.5 -8v-15c-8.66699 0 -18.834 0.166992 -30.501 0.5s-23.834 0.5 -36.501 0.5c-14 0 -27.5 -0.166992 -40.5 -0.5s-23.167 -0.5 -30.5 -0.5v15c9.33301 1.33301 15.5 4 18.5 8s4.5 13.667 4.5 29v219c0 16 -1.5 26.167 -4.5 30.5
s-9.16699 6.83301 -18.5 7.5v15c7.33301 -0.666992 17.333 -1 30 -1h37c18.667 0 36 0.166992 52 0.5s27.333 0.5 34 0.5z" />
    <glyph glyph-name="macron" unicode="&#xaf;" horiz-adv-x="444" 
d="M394 712v-25h-344v25h344z" />
    <glyph glyph-name="degree" unicode="&#xb0;" horiz-adv-x="304" 
d="M152 820c32.667 0 61.167 -10.667 85.5 -32s36.5 -50.666 36.5 -87.999s-12.167 -66.833 -36.5 -88.5s-52.833 -32.5 -85.5 -32.5c-32 0 -60.167 10.833 -84.5 32.5s-36.5 51.167 -36.5 88.5s12.167 66.666 36.5 87.999s52.5 32 84.5 32zM152 803
c-22.667 0 -44.334 -8.83301 -65.001 -26.5s-31 -43.5 -31 -77.5c0 -34.667 10.333 -60.5 31 -77.5s42.334 -25.5 65.001 -25.5s44.5 8.5 65.5 25.5s31.5 42.833 31.5 77.5c0 34 -10.5 59.833 -31.5 77.5s-42.833 26.5 -65.5 26.5z" />
    <glyph glyph-name="plusminus" unicode="&#xb1;" horiz-adv-x="573" 
d="M537 30v-30h-501v30h501zM305 606v-236h232v-30h-232v-235h-36v235h-233v30h233v236h36z" />
    <glyph glyph-name="uni00B2" unicode="&#xb2;" horiz-adv-x="355" 
d="M181 755c32.667 0 59.8311 -5.99902 81.498 -17.999s32.5 -30.667 32.5 -56c0 -17.333 -5 -33 -15 -47s-23.167 -26.833 -39.5 -38.5s-34.166 -23.334 -53.499 -35.001s-38.666 -24.5 -57.999 -38.5h136c16 0 26.667 2.83301 32 8.5s10.333 14.167 15 25.5l17 -3
c-4.66699 -24 -8.16699 -45.333 -10.5 -64s-3.83301 -36.667 -4.5 -54c-6 1.33301 -12.167 2.16602 -18.5 2.49902s-12.833 0.5 -19.5 0.5h-252v20c14 12 30.5 25 49.5 39s37.5 29.333 55.5 46s33 34.834 45 54.501s18 41.167 18 64.5c0 16 -5 28.5 -15 37.5
s-24.667 13.5 -44 13.5c-36 0 -64.333 -15.333 -85 -46l-15 8c12 20.667 29.667 39.167 53 55.5s55 24.5 95 24.5z" />
    <glyph glyph-name="uni00B3" unicode="&#xb3;" horiz-adv-x="332" 
d="M172 756c33.333 0 61.5 -6.16699 84.5 -18.5s34.5 -30.166 34.5 -53.499s-11.167 -43.166 -33.5 -59.499s-52.833 -28.166 -91.5 -35.499c37.333 2 70 -5.33301 98 -22s42 -40 42 -70c0 -24 -8.5 -45.167 -25.5 -63.5s-39.5 -33.333 -67.5 -45
s-58.667 -20.834 -92 -27.501s-66.333 -11 -99 -13v17c36 4.66699 67.667 13.167 95 25.5s48.833 28 64.5 47s23.5 41.167 23.5 66.5c0 20 -5 37 -15 51s-24 21.667 -42 23c-7.33301 -3.33301 -13.833 -6.5 -19.5 -9.5s-11.5 -4.5 -17.5 -4.5c-10 0 -15 4 -15 12
c0 7.33301 4.33301 11.666 13 12.999s19 1.66602 31 0.999023c19.333 9.33301 32.166 21.333 38.499 36s9.5 27 9.5 37c0 16 -5.5 29 -16.5 39s-26.167 15 -45.5 15c-17.333 0 -33.5 -4.33301 -48.5 -13s-27.167 -20.667 -36.5 -36l-15 8c11.333 21.333 28.333 40 51 56
s54.334 24 95.001 24z" />
    <glyph glyph-name="acute" unicode="&#xb4;" horiz-adv-x="300" 
d="M230 819c12.667 -10 19.167 -23.334 19.5 -40.001s-5.16699 -32 -16.5 -46c-10 -12.667 -22.833 -24.167 -38.5 -34.5l-55.5 -37.5c-21.333 -14.667 -47.333 -35.334 -78 -62.001l-11 9c19.333 36.667 33.166 67.334 41.499 92.001l21.5 63c6 17.333 15 32.666 27 45.999
c10.667 12.667 24.834 20.334 42.501 23.001s33.5 -1.66602 47.5 -12.999z" />
    <glyph glyph-name="paragraph" unicode="&#xb6;" horiz-adv-x="761" 
d="M430 709c55.333 0 106.498 -0.833984 153.498 -2.50098s92.833 -1.16699 137.5 1.5v-19c-29.333 -1.33301 -48.166 -7.5 -56.499 -18.5s-12.5 -27.5 -12.5 -49.5v-696c0 -24 1.83301 -42 5.5 -54s10.667 -20 21 -24s25.833 -6.66699 46.5 -8v-20
c-22 1.33301 -50.333 2.16602 -85 2.49902s-70 0.5 -106 0.5c-33.333 0 -64.666 -0.166992 -93.999 -0.5s-52.666 -1.16602 -69.999 -2.49902v20c42 1.33301 69.333 8.83301 82 22.5s19 38.167 19 73.5v52c-108 0 -194 16.333 -258 49s-110.167 77.167 -138.5 133.5
s-42.5 119.833 -42.5 190.5c0 68 15.833 128.333 47.5 181s77.167 93.834 136.5 123.501s130.666 44.5 213.999 44.5zM471.998 655.999c-3.33301 0 -8.5 -13 -15.5 -39s-13.833 -60.167 -20.5 -102.5s-10.667 -89.166 -12 -140.499c-56 0 -106.833 -1.5 -152.5 -4.5
s-82.167 -6.33301 -109.5 -10s-41 -6.5 -41 -8.5s13.5 -4.83301 40.5 -8.5s63.5 -6.83398 109.5 -9.50098s97 -4 153 -4c1.33301 -52.667 5.33301 -100.167 12 -142.5s13.5 -76 20.5 -101s12.167 -37.5 15.5 -37.5v32.5v86.5v118.5v129.5v119v87.5v34.5z" />
    <glyph glyph-name="periodcentered" unicode="&#xb7;" horiz-adv-x="283" 
d="M142 367c28.667 0 51.167 -7 67.5 -21s24.5 -34 24.5 -60c0 -26.667 -8.16699 -47 -24.5 -61s-38.833 -21 -67.5 -21c-29.333 0 -52 7 -68 21s-24 34.333 -24 61c0 26 8 46 24 60s38.667 21 68 21z" />
    <glyph glyph-name="cedilla" unicode="&#xb8;" horiz-adv-x="338" 
d="M160 1l-17.999 -63.001c11.333 4.66699 23.166 8 35.499 10s25.5 3 39.5 3c24 0 41.833 -5.16699 53.5 -15.5s17.5 -23.833 17.5 -40.5c0 -19.333 -6.66699 -35.166 -20 -47.499s-31.166 -21.333 -53.499 -27s-47.5 -8.5 -75.5 -8.5c-18 0 -34.5 1.16699 -49.5 3.5
s-28.167 5.5 -39.5 9.5l6 18c4.66699 -0.666992 11.167 -1.66699 19.5 -3s17.166 -2 26.499 -2c15.333 0 30.5 3 45.5 9s22.5 16 22.5 30c0 17.333 -10.333 26 -31 26c-5.33301 0 -11.5 -0.5 -18.5 -1.5s-12.833 -2.83301 -17.5 -5.5l30 105h27z" />
    <glyph glyph-name="uni00B9" unicode="&#xb9;" horiz-adv-x="290" 
d="M212 753v-246.002c0 -19.333 5.16699 -32.333 15.5 -39s27.5 -10 51.5 -10v-21c-12 0.666992 -29.167 1.16699 -51.5 1.5s-45.5 0.5 -69.5 0.5c-24.667 0 -48.334 -0.166992 -71.001 -0.5s-40 -0.833008 -52 -1.5v21c23.333 0 41.5 3.33301 54.5 10s19.5 19.667 19.5 39
v129c0 29.333 -5.66699 47.5 -17 54.5s-32.666 10.5 -63.999 10.5v21c43.333 0.666992 78.833 3.33398 106.5 8.00098s53.5 12.334 77.5 23.001z" />
    <glyph glyph-name="ordmasculine" unicode="&#xba;" horiz-adv-x="473" 
d="M237 722c38.667 0 73.167 -6.83301 103.5 -20.5s54.166 -33.834 71.499 -60.501s26 -60 26 -100c0 -39.333 -8.66699 -72.5 -26 -99.5s-41.166 -47.333 -71.499 -61s-64.833 -20.5 -103.5 -20.5s-73.167 6.83301 -103.5 20.5s-54.166 34 -71.499 61s-26 60.167 -26 99.5
c0 40 8.66699 73.333 26 100s41.166 46.834 71.499 60.501s64.833 20.5 103.5 20.5zM237 704c-14.667 0 -26.834 -12.667 -36.501 -38s-14.5 -67 -14.5 -125s4.83301 -99.667 14.5 -125s21.834 -38 36.501 -38s26.667 12.667 36 38s14 67 14 125s-4.66699 99.667 -14 125
s-21.333 38 -36 38z" />
    <glyph glyph-name="guillemotright" unicode="&#xbb;" horiz-adv-x="591" 
d="M277 534c42.667 -50.667 87.334 -98.499 134.001 -143.499s99 -86.167 157 -123.5v-17c-58 -36.667 -110.333 -77.5 -157 -122.5s-91.334 -92.833 -134.001 -143.5l-15 5c8.66699 31.333 20.167 64.166 34.5 98.499s30 66.833 47 97.5s33.5 55 49.5 73
c-16 18 -32.5 42.333 -49.5 73s-32.667 63.5 -47 98.5s-25.833 68.167 -34.5 99.5zM69 502.001c38 -44.667 77.833 -86.999 119.5 -126.999s88.167 -76 139.5 -108v-17c-51.333 -32 -97.833 -67.833 -139.5 -107.5s-81.5 -81.834 -119.5 -126.501l-15 5
c7.33301 28 16.833 57.167 28.5 87.5s24.5 58.833 38.5 85.5s27.667 48 41 64c-13.333 16 -27 37.5 -41 64.5s-26.833 55.833 -38.5 86.5s-21.167 60 -28.5 88z" />
    <glyph glyph-name="onequarter" unicode="&#xbc;" horiz-adv-x="715" 
d="M668 824l19 -13l-585 -866l-19 13zM227 753v-246.002c0 -19.333 5.16699 -32.333 15.5 -39s27.5 -10 51.5 -10v-21c-12 0.666992 -29.167 1.16699 -51.5 1.5s-45.5 0.5 -69.5 0.5c-24.667 0 -48.334 -0.166992 -71.001 -0.5s-40 -0.833008 -52 -1.5v21
c23.333 0 41.5 3.33301 54.5 10s19.5 19.667 19.5 39v129c0 29.333 -5.66699 47.5 -17 54.5s-32.666 10.5 -63.999 10.5v21c43.333 0.666992 78.833 3.33398 106.5 8.00098s53.5 12.334 77.5 23.001zM544 314.998l8 -14.999l-232 -253l25 34h236c16 0 26.667 3 32 9
s10.333 14.333 15 25l17 -3c-2.66699 -8.66699 -5 -19.5 -7 -32.5s-3.5 -25.5 -4.5 -37.5s-1.83301 -21 -2.5 -27c-6 1.33301 -12.167 2.16602 -18.5 2.49902s-12.833 0.5 -19.5 0.5h-302v21zM565 314.999v-414h-78v339l57 75h21z" />
    <glyph glyph-name="onehalf" unicode="&#xbd;" horiz-adv-x="727" 
d="M652 824l19 -13l-585 -866l-19 13zM226 753v-246.002c0 -19.333 5.16699 -32.333 15.5 -39s27.5 -10 51.5 -10v-21c-12 0.666992 -29.167 1.16699 -51.5 1.5s-45.5 0.5 -69.5 0.5c-24.667 0 -48.334 -0.166992 -71.001 -0.5s-40 -0.833008 -52 -1.5v21
c23.333 0 41.5 3.33301 54.5 10s19.5 19.667 19.5 39v129c0 29.333 -5.66699 47.5 -17 54.5s-32.666 10.5 -63.999 10.5v21c43.333 0.666992 78.833 3.33398 106.5 8.00098s53.5 12.334 77.5 23.001zM546 317.998c32.667 0 59.8311 -5.99902 81.498 -17.999
s32.5 -30.667 32.5 -56c0 -17.333 -5 -33 -15 -47s-23.167 -26.833 -39.5 -38.5s-34.166 -23.334 -53.499 -35.001s-38.666 -24.5 -57.999 -38.5h136c16 0 26.667 2.83301 32 8.5s10.333 14.167 15 25.5l17 -3c-4.66699 -24 -8.16699 -45.333 -10.5 -64
s-3.83301 -36.667 -4.5 -54c-6 1.33301 -12.167 2.16602 -18.5 2.49902s-12.833 0.5 -19.5 0.5h-252v20c14 12 30.5 25 49.5 39s37.5 29.333 55.5 46s33 34.834 45 54.501s18 41.167 18 64.5c0 16 -5 28.5 -15 37.5s-24.667 13.5 -44 13.5c-36 0 -64.333 -15.333 -85 -46
l-15 8c12 20.667 29.667 39.167 53 55.5s55 24.5 95 24.5z" />
    <glyph glyph-name="threequarters" unicode="&#xbe;" horiz-adv-x="755" 
d="M708 824l19 -13l-585 -866l-19 13zM193 756c33.333 0 61.5 -6.16699 84.5 -18.5s34.5 -30.166 34.5 -53.499s-11.167 -43.166 -33.5 -59.499s-52.833 -28.166 -91.5 -35.499c37.333 2 70 -5.33301 98 -22s42 -40 42 -70c0 -24 -8.5 -45.167 -25.5 -63.5
s-39.5 -33.333 -67.5 -45s-58.667 -20.834 -92 -27.501s-66.333 -11 -99 -13v17c36 4.66699 67.667 13.167 95 25.5s48.833 28 64.5 47s23.5 41.167 23.5 66.5c0 20 -5 37 -15 51s-24 21.667 -42 23c-7.33301 -3.33301 -13.833 -6.5 -19.5 -9.5s-11.5 -4.5 -17.5 -4.5
c-10 0 -15 4 -15 12c0 7.33301 4.33301 11.666 13 12.999s19 1.66602 31 0.999023c19.333 9.33301 32.166 21.333 38.499 36s9.5 27 9.5 37c0 16 -5.5 29 -16.5 39s-26.167 15 -45.5 15c-17.333 0 -33.5 -4.33301 -48.5 -13s-27.167 -20.667 -36.5 -36l-15 8
c11.333 21.333 28.333 40 51 56s54.334 24 95.001 24zM590 315l8 -14.999l-232 -253l25 34h236c16 0 26.667 3 32 9s10.333 14.333 15 25l17 -3c-2.66699 -8.66699 -5 -19.5 -7 -32.5s-3.5 -25.5 -4.5 -37.5s-1.83301 -21 -2.5 -27
c-6 1.33301 -12.167 2.16602 -18.5 2.49902s-12.833 0.5 -19.5 0.5h-302v21zM611 315.001v-414h-78v339l57 75h21z" />
    <glyph glyph-name="questiondown" unicode="&#xbf;" horiz-adv-x="519" 
d="M313 324l-0.00292969 -139.001c-35.333 -16 -61.833 -34 -79.5 -54s-29.5 -41.5 -35.5 -64.5s-9 -47.5 -9 -73.5c0 -56.667 10.833 -97.667 32.5 -123s49.834 -38 84.501 -38c18.667 0 35.334 1.83301 50.001 5.5s25.334 8.5 32.001 14.5
c-19.333 7.33301 -34.166 17.333 -44.499 30s-15.5 29.667 -15.5 51c0 22 8.16699 40.5 24.5 55.5s37.5 22.5 63.5 22.5c23.333 0 41.833 -7.33301 55.5 -22s20.5 -32.334 20.5 -53.001c0 -22 -5.83301 -40.167 -17.5 -54.5s-26.167 -26.166 -43.5 -35.499
c-16 -9.33301 -36.833 -17.333 -62.5 -24s-55.834 -10 -90.501 -10c-74.667 0 -135 15.833 -181 47.5s-69 75.167 -69 130.5c0 52 24.333 95.333 73 130s112.667 59.334 192 74.001v130h20zM302.997 532.999c28 0 50.333 -7 67 -21s25 -34 25 -60
c0 -26.667 -8.33301 -47 -25 -61s-39 -21 -67 -21c-29.333 0 -52 7 -68 21s-24 34.333 -24 61c0 26 8 46 24 60s38.667 21 68 21z" />
    <glyph glyph-name="Agrave" unicode="&#xc0;" horiz-adv-x="680" 
d="M383 709l242.003 -625.001c10 -23.333 20.5 -39.666 31.5 -48.999s20.833 -14.333 29.5 -15v-20c-21.333 1.33301 -46.833 2.16602 -76.5 2.49902s-59.834 0.5 -90.501 0.5c-32 0 -62.333 -0.166992 -91 -0.5s-51.667 -1.16602 -69 -2.49902v20
c34 1.33301 55.667 7.16602 65 17.499s7.33301 32.5 -6 66.5l-166 454l20 30l-146 -377c-20 -53.333 -29.833 -93.5 -29.5 -120.5s8.66602 -45.167 24.999 -54.5s37.833 -14.666 64.5 -15.999v-20c-23.333 1.33301 -44.833 2.16602 -64.5 2.49902s-40.834 0.5 -63.501 0.5
c-13.333 0 -26.833 -0.166992 -40.5 -0.5s-25.5 -1.16602 -35.5 -2.49902v20c14.667 2.66699 29.5 12 44.5 28s29.833 43.667 44.5 83l225 578c13.333 -1.33301 27.833 -2 43.5 -2s30.167 0.666992 43.5 2zM435.003 287.999v-20h-298l10 20h288zM246.003 935.999
c16 -7.33301 30 -17.9971 42 -31.9971l44 -50.5c17.333 -19.667 42 -42.834 74 -69.501l-7 -12c-38 13.333 -69.833 22.666 -95.5 27.999s-47.5 9.66602 -65.5 12.999s-34.667 9.33301 -50 18c-15.333 8 -25.833 19.5 -31.5 34.5s-4.83398 29.833 2.49902 44.5
c8 17.333 20.833 28 38.5 32s33.834 2 48.501 -6z" />
    <glyph glyph-name="Aacute" unicode="&#xc1;" horiz-adv-x="680" 
d="M383 709l242.003 -625.001c10 -23.333 20.5 -39.666 31.5 -48.999s20.833 -14.333 29.5 -15v-20c-21.333 1.33301 -46.833 2.16602 -76.5 2.49902s-59.834 0.5 -90.501 0.5c-32 0 -62.333 -0.166992 -91 -0.5s-51.667 -1.16602 -69 -2.49902v20
c34 1.33301 55.667 7.16602 65 17.499s7.33301 32.5 -6 66.5l-166 454l20 30l-146 -377c-20 -53.333 -29.833 -93.5 -29.5 -120.5s8.66602 -45.167 24.999 -54.5s37.833 -14.666 64.5 -15.999v-20c-23.333 1.33301 -44.833 2.16602 -64.5 2.49902s-40.834 0.5 -63.501 0.5
c-13.333 0 -26.833 -0.166992 -40.5 -0.5s-25.5 -1.16602 -35.5 -2.49902v20c14.667 2.66699 29.5 12 44.5 28s29.833 43.667 44.5 83l225 578c13.333 -1.33301 27.833 -2 43.5 -2s30.167 0.666992 43.5 2zM435.003 287.999v-20h-298l10 20h288zM422.003 935.999
c14.667 8 30.835 9.99707 48.502 5.99707s30.5 -14.667 38.5 -32c7.33301 -14.667 8.16602 -29.5 2.49902 -44.5s-16.167 -26.5 -31.5 -34.5c-15.333 -8.66699 -32 -14.667 -50 -18s-39.667 -7.66602 -65 -12.999s-57.333 -14.666 -96 -27.999l-7 12
c32 26.667 56.667 49.834 74 69.501l44.5 50.5c12.333 14 26.166 24.667 41.499 32z" />
    <glyph glyph-name="Acircumflex" unicode="&#xc2;" horiz-adv-x="680" 
d="M383 709l242.003 -625.001c10 -23.333 20.5 -39.666 31.5 -48.999s20.833 -14.333 29.5 -15v-20c-21.333 1.33301 -46.833 2.16602 -76.5 2.49902s-59.834 0.5 -90.501 0.5c-32 0 -62.333 -0.166992 -91 -0.5s-51.667 -1.16602 -69 -2.49902v20
c34 1.33301 55.667 7.16602 65 17.499s7.33301 32.5 -6 66.5l-166 454l20 30l-146 -377c-20 -53.333 -29.833 -93.5 -29.5 -120.5s8.66602 -45.167 24.999 -54.5s37.833 -14.666 64.5 -15.999v-20c-23.333 1.33301 -44.833 2.16602 -64.5 2.49902s-40.834 0.5 -63.501 0.5
c-13.333 0 -26.833 -0.166992 -40.5 -0.5s-25.5 -1.16602 -35.5 -2.49902v20c14.667 2.66699 29.5 12 44.5 28s29.833 43.667 44.5 83l225 578c13.333 -1.33301 27.833 -2 43.5 -2s30.167 0.666992 43.5 2zM435.003 287.999v-20h-298l10 20h288zM348.003 947.999
c22 -30 51.667 -59.834 89 -89.501s78 -54.5 122 -74.5l-5 -15c-44.667 8 -88.667 17.667 -132 29s-77.666 22.666 -102.999 33.999c-21.333 -11.333 -50 -22.666 -86 -33.999s-72.333 -21 -109 -29l-5 15c43.333 19.333 83.666 43.833 120.999 73.5
s67.333 59.834 90 90.501h18z" />
    <glyph glyph-name="Atilde" unicode="&#xc3;" horiz-adv-x="680" 
d="M383 709l242.003 -625.001c10 -23.333 20.5 -39.666 31.5 -48.999s20.833 -14.333 29.5 -15v-20c-21.333 1.33301 -46.833 2.16602 -76.5 2.49902s-59.834 0.5 -90.501 0.5c-32 0 -62.333 -0.166992 -91 -0.5s-51.667 -1.16602 -69 -2.49902v20
c34 1.33301 55.667 7.16602 65 17.499s7.33301 32.5 -6 66.5l-166 454l20 30l-146 -377c-20 -53.333 -29.833 -93.5 -29.5 -120.5s8.66602 -45.167 24.999 -54.5s37.833 -14.666 64.5 -15.999v-20c-23.333 1.33301 -44.833 2.16602 -64.5 2.49902s-40.834 0.5 -63.501 0.5
c-13.333 0 -26.833 -0.166992 -40.5 -0.5s-25.5 -1.16602 -35.5 -2.49902v20c14.667 2.66699 29.5 12 44.5 28s29.833 43.667 44.5 83l225 578c13.333 -1.33301 27.833 -2 43.5 -2s30.167 0.666992 43.5 2zM435.003 287.999v-20h-298l10 20h288zM248.003 930.999
c25.333 0 46.999 -3.50098 64.999 -10.501s34.667 -15 50 -24s30.833 -16.833 46.5 -23.5s33.834 -10 54.501 -10c17.333 0 33.5 4 48.5 12s28.833 21.667 41.5 41l14 -6c-11.333 -50 -29.833 -86.5 -55.5 -109.5s-53.834 -34.5 -84.501 -34.5
c-25.333 0 -47.166 3.5 -65.499 10.5s-35 15.167 -50 24.5s-30.5 17.333 -46.5 24s-34.333 10 -55 10c-17.333 0 -33.333 -4 -48 -12s-28.667 -22 -42 -42l-14 6c11.333 50.667 30 87.334 56 110.001s54.333 34 85 34z" />
    <glyph glyph-name="Adieresis" unicode="&#xc4;" horiz-adv-x="680" 
d="M383 709l242.003 -625.001c10 -23.333 20.5 -39.666 31.5 -48.999s20.833 -14.333 29.5 -15v-20c-21.333 1.33301 -46.833 2.16602 -76.5 2.49902s-59.834 0.5 -90.501 0.5c-32 0 -62.333 -0.166992 -91 -0.5s-51.667 -1.16602 -69 -2.49902v20
c34 1.33301 55.667 7.16602 65 17.499s7.33301 32.5 -6 66.5l-166 454l20 30l-146 -377c-20 -53.333 -29.833 -93.5 -29.5 -120.5s8.66602 -45.167 24.999 -54.5s37.833 -14.666 64.5 -15.999v-20c-23.333 1.33301 -44.833 2.16602 -64.5 2.49902s-40.834 0.5 -63.501 0.5
c-13.333 0 -26.833 -0.166992 -40.5 -0.5s-25.5 -1.16602 -35.5 -2.49902v20c14.667 2.66699 29.5 12 44.5 28s29.833 43.667 44.5 83l225 578c13.333 -1.33301 27.833 -2 43.5 -2s30.167 0.666992 43.5 2zM435.003 287.999v-20h-298l10 20h288zM464.003 925.999
c21.333 0 40.167 -8.16797 56.5 -24.501s24.5 -35.166 24.5 -56.499c0 -22 -8.16699 -41 -24.5 -57s-35.5 -24 -57.5 -24s-41 8 -57 24s-24 35 -24 57s8 41 24 57s35.333 24 58 24zM215.004 925.998c21.333 0 40.166 -8.16797 56.499 -24.501s24.5 -35.166 24.5 -56.499
c0 -22 -8.16699 -41 -24.5 -57s-35.166 -24 -56.499 -24c-22.667 0 -42 8 -58 24s-24 35 -24 57s8 41 24 57s35.333 24 58 24z" />
    <glyph glyph-name="Aring" unicode="&#xc5;" horiz-adv-x="680" 
d="M383 709l242.003 -625.001c10 -23.333 20.5 -39.666 31.5 -48.999s20.833 -14.333 29.5 -15v-20c-21.333 1.33301 -46.833 2.16602 -76.5 2.49902s-59.834 0.5 -90.501 0.5c-32 0 -62.333 -0.166992 -91 -0.5s-51.667 -1.16602 -69 -2.49902v20
c34 1.33301 55.667 7.16602 65 17.499s7.33301 32.5 -6 66.5l-166 454l20 30l-146 -377c-20 -53.333 -29.833 -93.5 -29.5 -120.5s8.66602 -45.167 24.999 -54.5s37.833 -14.666 64.5 -15.999v-20c-23.333 1.33301 -44.833 2.16602 -64.5 2.49902s-40.834 0.5 -63.501 0.5
c-13.333 0 -26.833 -0.166992 -40.5 -0.5s-25.5 -1.16602 -35.5 -2.49902v20c14.667 2.66699 29.5 12 44.5 28s29.833 43.667 44.5 83l225 578c13.333 -1.33301 27.833 -2 43.5 -2s30.167 0.666992 43.5 2zM435.003 287.999v-20h-298l10 20h288zM339.003 940.999
c30 0 56.333 -8.83301 79 -26.5s34 -41.834 34 -72.501s-11.333 -55 -34 -73s-49 -27 -79 -27c-29.333 0 -55.333 9 -78 27s-34 42.333 -34 73s11.333 54.834 34 72.501s48.667 26.5 78 26.5zM339.003 919.999c-20 0 -39 -6.83301 -57 -20.5s-27 -33.167 -27 -58.5
c0 -26 9 -45.5 27 -58.5s37 -19.5 57 -19.5c20.667 0 40 6.5 58 19.5s27 32.5 27 58.5c0 25.333 -9 44.833 -27 58.5s-37.333 20.5 -58 20.5z" />
    <glyph glyph-name="AE" unicode="&#xc6;" horiz-adv-x="900" 
d="M478 772l-387.002 -668c-18 -31.333 -22.5 -52.833 -13.5 -64.5s30.5 -18.167 64.5 -19.5v-20c-10 1.33301 -23.167 2.16602 -39.5 2.49902s-33.5 0.5 -51.5 0.5c-11.333 0 -23.166 -0.166992 -35.499 -0.5s-22.833 -1.16602 -31.5 -2.49902v20
c10.667 0.666992 21.334 5.5 32.001 14.5s23 25.5 37 49.5l401 688h24zM835.998 708c-2.66699 -28 -4.49707 -55.1641 -5.49707 -81.4971s-1.5 -46.5 -1.5 -60.5c0 -13.333 0.333008 -26.166 1 -38.499s1.33398 -22.833 2.00098 -31.5h-23c-6 48 -15.5 85.667 -28.5 113
s-28.667 46.833 -47 58.5s-38.5 17.5 -60.5 17.5h-23c-20 0 -35.167 -1.83301 -45.5 -5.5s-17.5 -11.334 -21.5 -23.001s-6 -29.834 -6 -54.501v-496c0 -24 2 -42 6 -54s11.167 -19.833 21.5 -23.5s25.5 -5.5 45.5 -5.5h41c20 0 39.5 6.5 58.5 19.5s35.667 34.667 50 65
s24.166 71.833 29.499 124.5h23c-2 -22.667 -3 -52 -3 -88c0 -14 0.5 -34.333 1.5 -61s2.83301 -54.334 5.5 -83.001c-33.333 1.33301 -70.833 2.16602 -112.5 2.49902s-79.167 0.5 -112.5 0.5h-83c-34.667 0 -71.5 -0.166992 -110.5 -0.5s-75.833 -1.16602 -110.5 -2.49902
v20c20 1.33301 35 4 45 8s16.5 12 19.5 24s4.5 30 4.5 54v496c0 24.667 -1.66699 42.834 -5 54.501s-10.333 19.667 -21 24s-26.334 6.83301 -47.001 7.5v20c35.333 -0.666992 72.666 -1.33398 111.999 -2.00098s76.666 -1 111.999 -1h84c30 0 64.167 0.166992 102.5 0.5
s72.5 1.16602 102.5 2.49902zM429.001 366.003v-20h-209l10 20h199zM709.001 366.003v-10v-10h-162v10v10h162zM738.001 486.003c-2.66699 -34.667 -3.83691 -61.1709 -3.50391 -79.5039s0.5 -35.166 0.5 -50.499s0.333008 -32.166 1 -50.499s2.33398 -44.833 5.00098 -79.5
h-23c-2.66699 19.333 -7 38.333 -13 57s-15.167 33.834 -27.5 45.501s-30.166 17.5 -53.499 17.5v20c23.333 0 40.833 7 52.5 21s20.334 30.333 26.001 49s9.83398 35.334 12.501 50.001h23z" />
    <glyph glyph-name="Ccedilla" unicode="&#xc7;" horiz-adv-x="711" 
d="M405 722c44 0 80.1709 -6.49902 108.504 -19.499s53.5 -28.167 75.5 -45.5c13.333 -10 23.5 -11.167 30.5 -3.5s11.833 25.834 14.5 54.501h23c-1.33301 -26 -2.33301 -58 -3 -96s-1 -88 -1 -150h-23c-2.66699 31.333 -6.83398 58.666 -12.501 81.999
s-13.834 44 -24.501 62s-26 34 -46 48c-15.333 12.667 -32.5 22.5 -51.5 29.5s-38.5 10.5 -58.5 10.5c-36.667 0 -67.5 -10.167 -92.5 -30.5s-45 -47 -60 -80s-25.667 -69.667 -32 -110s-9.5 -80.833 -9.5 -121.5c0 -41.333 3.33301 -82.166 10 -122.499
s17.5 -76.833 32.5 -109.5s35.167 -58.834 60.5 -78.501s56.333 -29.5 93 -29.5c19.333 0 38.5 3.33301 57.5 10s36.167 16.334 51.5 29.001c29.333 20 49.166 46.167 59.499 78.5s17.833 74.5 22.5 126.5h23c0 -64.667 0.333008 -116.834 1 -156.501
s1.66699 -72.834 3 -99.501h-23c-2.66699 28.667 -7.16699 46.667 -13.5 54s-16.833 6.33301 -31.5 -3c-24.667 -17.333 -50.834 -32.5 -78.501 -45.5s-63.167 -19.5 -106.5 -19.5c-72.667 0 -136.5 14.333 -191.5 43s-97.667 70 -128 124s-45.5 119 -45.5 195
c0 74.667 15.667 140 47 196s74.5 99.667 129.5 131s118.167 47 189.5 47zM421.004 5.00098l-20.001 -67.001c12.667 4.66699 25.834 8 39.501 10s28.167 3 43.5 3c26.667 0 46.5 -5.16699 59.5 -15.5s19.5 -23.833 19.5 -40.5c0 -19.333 -7.66699 -35.166 -23 -47.499
s-36 -21.333 -62 -27s-55.333 -8.5 -88 -8.5c-19.333 0 -37.333 1.16699 -54 3.5s-30.667 5.5 -42 9.5l5 18l23 -3c10 -1.33301 20.333 -2 31 -2c22 0 42.833 3 62.5 9s29.5 16 29.5 30c0 9.33301 -4.16699 16 -12.5 20s-19.833 6 -34.5 6c-5.33301 0 -11.333 -0.5 -18 -1.5
s-12.667 -2.83301 -18 -5.5l32 109h27z" />
    <glyph glyph-name="Egrave" unicode="&#xc8;" horiz-adv-x="642" 
d="M578 708c-2.66699 -31.333 -4.50195 -61.668 -5.50195 -91.001s-1.5 -51.666 -1.5 -66.999c0 -13.333 0.333008 -26.166 1 -38.499s1.33398 -22.833 2.00098 -31.5h-23c-7.33301 52 -19.166 93 -35.499 123s-36.333 51.167 -60 63.5s-49.834 18.5 -78.501 18.5h-27
c-18.667 0 -32.667 -1.5 -42 -4.5s-15.5 -9.16699 -18.5 -18.5s-4.5 -24 -4.5 -44v-528c0 -19.333 1.5 -33.833 4.5 -43.5s9.16699 -16 18.5 -19s23.333 -4.5 42 -4.5h41c26 0 50.833 6.83301 74.5 20.5s44.834 37 63.501 70s32.667 77.833 42 134.5h23
c-2 -22.667 -3 -52 -3 -88c0 -16 0.333008 -38.667 1 -68s2.66699 -60 6 -92c-34 1.33301 -72.333 2.16602 -115 2.49902s-80.667 0.5 -114 0.5h-93.5c-39 0 -80.167 -0.166992 -123.5 -0.5s-83.666 -1.16602 -120.999 -2.49902v20c20.667 1.33301 36.167 4 46.5 8
s17.333 12 21 24s5.5 30 5.5 54v496c0 24.667 -1.83301 42.834 -5.5 54.501s-10.667 19.667 -21 24s-25.833 6.83301 -46.5 7.5v20c37.333 -0.666992 77.666 -1.33398 120.999 -2.00098s84.5 -1 123.5 -1h93.5c30.667 0 65.5 0.166992 104.5 0.5
s73.833 1.16602 104.5 2.49902zM426.998 365.998v-10v-10h-172v10v10h172zM455.998 497.998c-2.66699 -38 -3.83203 -66.999 -3.49902 -86.999s0.5 -38.333 0.5 -55s0.333008 -35 1 -55s2.33398 -49 5.00098 -87h-23c-3.33301 24 -10.333 46 -21 66s-25 36 -43 48
s-40 18 -66 18v20c26 0 47.667 7.16699 65 21.5s31.166 31.666 41.499 51.999s17.166 39.833 20.499 58.5h23zM224 935.999c16 -7.33301 30 -17.9971 42 -31.9971l44 -50.5c17.333 -19.667 42 -42.834 74 -69.501l-7 -12c-38 13.333 -69.833 22.666 -95.5 27.999
s-47.5 9.66602 -65.5 12.999s-34.667 9.33301 -50 18c-15.333 8 -25.833 19.5 -31.5 34.5s-4.83398 29.833 2.49902 44.5c8 17.333 20.833 28 38.5 32s33.834 2 48.501 -6z" />
    <glyph glyph-name="Eacute" unicode="&#xc9;" horiz-adv-x="642" 
d="M578 708c-2.66699 -31.333 -4.50195 -61.668 -5.50195 -91.001s-1.5 -51.666 -1.5 -66.999c0 -13.333 0.333008 -26.166 1 -38.499s1.33398 -22.833 2.00098 -31.5h-23c-7.33301 52 -19.166 93 -35.499 123s-36.333 51.167 -60 63.5s-49.834 18.5 -78.501 18.5h-27
c-18.667 0 -32.667 -1.5 -42 -4.5s-15.5 -9.16699 -18.5 -18.5s-4.5 -24 -4.5 -44v-528c0 -19.333 1.5 -33.833 4.5 -43.5s9.16699 -16 18.5 -19s23.333 -4.5 42 -4.5h41c26 0 50.833 6.83301 74.5 20.5s44.834 37 63.501 70s32.667 77.833 42 134.5h23
c-2 -22.667 -3 -52 -3 -88c0 -16 0.333008 -38.667 1 -68s2.66699 -60 6 -92c-34 1.33301 -72.333 2.16602 -115 2.49902s-80.667 0.5 -114 0.5h-93.5c-39 0 -80.167 -0.166992 -123.5 -0.5s-83.666 -1.16602 -120.999 -2.49902v20c20.667 1.33301 36.167 4 46.5 8
s17.333 12 21 24s5.5 30 5.5 54v496c0 24.667 -1.83301 42.834 -5.5 54.501s-10.667 19.667 -21 24s-25.833 6.83301 -46.5 7.5v20c37.333 -0.666992 77.666 -1.33398 120.999 -2.00098s84.5 -1 123.5 -1h93.5c30.667 0 65.5 0.166992 104.5 0.5
s73.833 1.16602 104.5 2.49902zM426.998 365.998v-10v-10h-172v10v10h172zM455.998 497.998c-2.66699 -38 -3.83203 -66.999 -3.49902 -86.999s0.5 -38.333 0.5 -55s0.333008 -35 1 -55s2.33398 -49 5.00098 -87h-23c-3.33301 24 -10.333 46 -21 66s-25 36 -43 48
s-40 18 -66 18v20c26 0 47.667 7.16699 65 21.5s31.166 31.666 41.499 51.999s17.166 39.833 20.499 58.5h23zM400 935.999c14.667 8 30.835 9.99707 48.502 5.99707s30.5 -14.667 38.5 -32c7.33301 -14.667 8.16602 -29.5 2.49902 -44.5s-16.167 -26.5 -31.5 -34.5
c-15.333 -8.66699 -32 -14.667 -50 -18s-39.667 -7.66602 -65 -12.999s-57.333 -14.666 -96 -27.999l-7 12c32 26.667 56.667 49.834 74 69.501l44.5 50.5c12.333 14 26.166 24.667 41.499 32z" />
    <glyph glyph-name="Ecircumflex" unicode="&#xca;" horiz-adv-x="642" 
d="M578 708c-2.66699 -31.333 -4.50195 -61.668 -5.50195 -91.001s-1.5 -51.666 -1.5 -66.999c0 -13.333 0.333008 -26.166 1 -38.499s1.33398 -22.833 2.00098 -31.5h-23c-7.33301 52 -19.166 93 -35.499 123s-36.333 51.167 -60 63.5s-49.834 18.5 -78.501 18.5h-27
c-18.667 0 -32.667 -1.5 -42 -4.5s-15.5 -9.16699 -18.5 -18.5s-4.5 -24 -4.5 -44v-528c0 -19.333 1.5 -33.833 4.5 -43.5s9.16699 -16 18.5 -19s23.333 -4.5 42 -4.5h41c26 0 50.833 6.83301 74.5 20.5s44.834 37 63.501 70s32.667 77.833 42 134.5h23
c-2 -22.667 -3 -52 -3 -88c0 -16 0.333008 -38.667 1 -68s2.66699 -60 6 -92c-34 1.33301 -72.333 2.16602 -115 2.49902s-80.667 0.5 -114 0.5h-93.5c-39 0 -80.167 -0.166992 -123.5 -0.5s-83.666 -1.16602 -120.999 -2.49902v20c20.667 1.33301 36.167 4 46.5 8
s17.333 12 21 24s5.5 30 5.5 54v496c0 24.667 -1.83301 42.834 -5.5 54.501s-10.667 19.667 -21 24s-25.833 6.83301 -46.5 7.5v20c37.333 -0.666992 77.666 -1.33398 120.999 -2.00098s84.5 -1 123.5 -1h93.5c30.667 0 65.5 0.166992 104.5 0.5
s73.833 1.16602 104.5 2.49902zM426.998 365.998v-10v-10h-172v10v10h172zM455.998 497.998c-2.66699 -38 -3.83203 -66.999 -3.49902 -86.999s0.5 -38.333 0.5 -55s0.333008 -35 1 -55s2.33398 -49 5.00098 -87h-23c-3.33301 24 -10.333 46 -21 66s-25 36 -43 48
s-40 18 -66 18v20c26 0 47.667 7.16699 65 21.5s31.166 31.666 41.499 51.999s17.166 39.833 20.499 58.5h23zM326 947.999c22 -30 51.667 -59.834 89 -89.501s78 -54.5 122 -74.5l-5 -15c-44.667 8 -88.667 17.667 -132 29s-77.666 22.666 -102.999 33.999
c-21.333 -11.333 -50 -22.666 -86 -33.999s-72.333 -21 -109 -29l-5 15c43.333 19.333 83.666 43.833 120.999 73.5s67.333 59.834 90 90.501h18z" />
    <glyph glyph-name="Edieresis" unicode="&#xcb;" horiz-adv-x="642" 
d="M578 708c-2.66699 -31.333 -4.50195 -61.668 -5.50195 -91.001s-1.5 -51.666 -1.5 -66.999c0 -13.333 0.333008 -26.166 1 -38.499s1.33398 -22.833 2.00098 -31.5h-23c-7.33301 52 -19.166 93 -35.499 123s-36.333 51.167 -60 63.5s-49.834 18.5 -78.501 18.5h-27
c-18.667 0 -32.667 -1.5 -42 -4.5s-15.5 -9.16699 -18.5 -18.5s-4.5 -24 -4.5 -44v-528c0 -19.333 1.5 -33.833 4.5 -43.5s9.16699 -16 18.5 -19s23.333 -4.5 42 -4.5h41c26 0 50.833 6.83301 74.5 20.5s44.834 37 63.501 70s32.667 77.833 42 134.5h23
c-2 -22.667 -3 -52 -3 -88c0 -16 0.333008 -38.667 1 -68s2.66699 -60 6 -92c-34 1.33301 -72.333 2.16602 -115 2.49902s-80.667 0.5 -114 0.5h-93.5c-39 0 -80.167 -0.166992 -123.5 -0.5s-83.666 -1.16602 -120.999 -2.49902v20c20.667 1.33301 36.167 4 46.5 8
s17.333 12 21 24s5.5 30 5.5 54v496c0 24.667 -1.83301 42.834 -5.5 54.501s-10.667 19.667 -21 24s-25.833 6.83301 -46.5 7.5v20c37.333 -0.666992 77.666 -1.33398 120.999 -2.00098s84.5 -1 123.5 -1h93.5c30.667 0 65.5 0.166992 104.5 0.5
s73.833 1.16602 104.5 2.49902zM426.998 365.998v-10v-10h-172v10v10h172zM455.998 497.998c-2.66699 -38 -3.83203 -66.999 -3.49902 -86.999s0.5 -38.333 0.5 -55s0.333008 -35 1 -55s2.33398 -49 5.00098 -87h-23c-3.33301 24 -10.333 46 -21 66s-25 36 -43 48
s-40 18 -66 18v20c26 0 47.667 7.16699 65 21.5s31.166 31.666 41.499 51.999s17.166 39.833 20.499 58.5h23zM442 925.999c21.333 0 40.167 -8.16797 56.5 -24.501s24.5 -35.166 24.5 -56.499c0 -22 -8.16699 -41 -24.5 -57s-35.5 -24 -57.5 -24s-41 8 -57 24
s-24 35 -24 57s8 41 24 57s35.333 24 58 24zM193.001 925.998c21.333 0 40.166 -8.16797 56.499 -24.501s24.5 -35.166 24.5 -56.499c0 -22 -8.16699 -41 -24.5 -57s-35.166 -24 -56.499 -24c-22.667 0 -42 8 -58 24s-24 35 -24 57s8 41 24 57s35.333 24 58 24z" />
    <glyph glyph-name="Igrave" unicode="&#xcc;" horiz-adv-x="389" 
d="M358 708l0.000976562 -20c-20.667 -0.666992 -36.334 -3.16699 -47.001 -7.5s-17.667 -12.333 -21 -24s-5 -29.834 -5 -54.501v-496c0 -24 1.83301 -42 5.5 -54s10.667 -20 21 -24s25.833 -6.66699 46.5 -8v-20c-18.667 1.33301 -42.5 2.16602 -71.5 2.49902
s-58.167 0.5 -87.5 0.5c-34 0 -66 -0.166992 -96 -0.5s-54 -1.16602 -72 -2.49902v20c20.667 1.33301 36.167 4 46.5 8s17.333 12 21 24s5.5 30 5.5 54v496c0 24.667 -1.83301 42.834 -5.5 54.501s-10.667 19.667 -21 24s-25.833 6.83301 -46.5 7.5v20
c18 -0.666992 42 -1.33398 72 -2.00098s62 -1 96 -1c29.333 0 58.5 0.333008 87.5 1s52.833 1.33398 71.5 2.00098zM106.001 936c16 -7.33301 30 -17.9971 42 -31.9971l44 -50.5c17.333 -19.667 42 -42.834 74 -69.501l-7 -12c-38 13.333 -69.833 22.666 -95.5 27.999
s-47.5 9.66602 -65.5 12.999s-34.667 9.33301 -50 18c-15.333 8 -25.833 19.5 -31.5 34.5s-4.83398 29.833 2.49902 44.5c8 17.333 20.833 28 38.5 32s33.834 2 48.501 -6z" />
    <glyph glyph-name="Iacute" unicode="&#xcd;" horiz-adv-x="389" 
d="M358 708l0.000976562 -20c-20.667 -0.666992 -36.334 -3.16699 -47.001 -7.5s-17.667 -12.333 -21 -24s-5 -29.834 -5 -54.501v-496c0 -24 1.83301 -42 5.5 -54s10.667 -20 21 -24s25.833 -6.66699 46.5 -8v-20c-18.667 1.33301 -42.5 2.16602 -71.5 2.49902
s-58.167 0.5 -87.5 0.5c-34 0 -66 -0.166992 -96 -0.5s-54 -1.16602 -72 -2.49902v20c20.667 1.33301 36.167 4 46.5 8s17.333 12 21 24s5.5 30 5.5 54v496c0 24.667 -1.83301 42.834 -5.5 54.501s-10.667 19.667 -21 24s-25.833 6.83301 -46.5 7.5v20
c18 -0.666992 42 -1.33398 72 -2.00098s62 -1 96 -1c29.333 0 58.5 0.333008 87.5 1s52.833 1.33398 71.5 2.00098zM282.001 936c14.667 8 30.835 9.99707 48.502 5.99707s30.5 -14.667 38.5 -32c7.33301 -14.667 8.16602 -29.5 2.49902 -44.5s-16.167 -26.5 -31.5 -34.5
c-15.333 -8.66699 -32 -14.667 -50 -18s-39.667 -7.66602 -65 -12.999s-57.333 -14.666 -96 -27.999l-7 12c32 26.667 56.667 49.834 74 69.501l44.5 50.5c12.333 14 26.166 24.667 41.499 32z" />
    <glyph glyph-name="Icircumflex" unicode="&#xce;" horiz-adv-x="389" 
d="M358 708l0.000976562 -20c-20.667 -0.666992 -36.334 -3.16699 -47.001 -7.5s-17.667 -12.333 -21 -24s-5 -29.834 -5 -54.501v-496c0 -24 1.83301 -42 5.5 -54s10.667 -20 21 -24s25.833 -6.66699 46.5 -8v-20c-18.667 1.33301 -42.5 2.16602 -71.5 2.49902
s-58.167 0.5 -87.5 0.5c-34 0 -66 -0.166992 -96 -0.5s-54 -1.16602 -72 -2.49902v20c20.667 1.33301 36.167 4 46.5 8s17.333 12 21 24s5.5 30 5.5 54v496c0 24.667 -1.83301 42.834 -5.5 54.501s-10.667 19.667 -21 24s-25.833 6.83301 -46.5 7.5v20
c18 -0.666992 42 -1.33398 72 -2.00098s62 -1 96 -1c29.333 0 58.5 0.333008 87.5 1s52.833 1.33398 71.5 2.00098zM208.001 948c22 -30 51.667 -59.834 89 -89.501s78 -54.5 122 -74.5l-5 -15c-44.667 8 -88.667 17.667 -132 29s-77.666 22.666 -102.999 33.999
c-21.333 -11.333 -50 -22.666 -86 -33.999s-72.333 -21 -109 -29l-5 15c43.333 19.333 83.666 43.833 120.999 73.5s67.333 59.834 90 90.501h18z" />
    <glyph glyph-name="Idieresis" unicode="&#xcf;" horiz-adv-x="389" 
d="M358 708l0.000976562 -20c-20.667 -0.666992 -36.334 -3.16699 -47.001 -7.5s-17.667 -12.333 -21 -24s-5 -29.834 -5 -54.501v-496c0 -24 1.83301 -42 5.5 -54s10.667 -20 21 -24s25.833 -6.66699 46.5 -8v-20c-18.667 1.33301 -42.5 2.16602 -71.5 2.49902
s-58.167 0.5 -87.5 0.5c-34 0 -66 -0.166992 -96 -0.5s-54 -1.16602 -72 -2.49902v20c20.667 1.33301 36.167 4 46.5 8s17.333 12 21 24s5.5 30 5.5 54v496c0 24.667 -1.83301 42.834 -5.5 54.501s-10.667 19.667 -21 24s-25.833 6.83301 -46.5 7.5v20
c18 -0.666992 42 -1.33398 72 -2.00098s62 -1 96 -1c29.333 0 58.5 0.333008 87.5 1s52.833 1.33398 71.5 2.00098zM324.001 926c21.333 0 40.167 -8.16797 56.5 -24.501s24.5 -35.166 24.5 -56.499c0 -22 -8.16699 -41 -24.5 -57s-35.5 -24 -57.5 -24s-41 8 -57 24
s-24 35 -24 57s8 41 24 57s35.333 24 58 24zM75.002 925.999c21.333 0 40.166 -8.16797 56.499 -24.501s24.5 -35.166 24.5 -56.499c0 -22 -8.16699 -41 -24.5 -57s-35.166 -24 -56.499 -24c-22.667 0 -42 8 -58 24s-24 35 -24 57s8 41 24 57s35.333 24 58 24z" />
    <glyph glyph-name="Eth" unicode="&#xd0;" horiz-adv-x="793" 
d="M352 708c136 0 236.831 -29.8359 302.498 -89.5029s98.5 -145.167 98.5 -256.5c0 -72.667 -16.167 -136.167 -48.5 -190.5s-79.166 -96.5 -140.499 -126.5s-135 -45 -221 -45c-16 0 -39 0.5 -69 1.5s-56.333 1.5 -79 1.5c-31.333 0 -62 -0.166992 -92 -0.5
s-54 -1.16602 -72 -2.49902v20c20.667 1.33301 36.167 4 46.5 8s17.333 12 21 24s5.5 30 5.5 54v496c0 24.667 -1.83301 42.834 -5.5 54.501s-10.667 19.667 -21 24s-25.833 6.83301 -46.5 7.5v20c18 -0.666992 42 -1.5 72 -2.5s60 -1.16699 90 -0.5
c24 0.666992 51.333 1.33398 82 2.00098s56.334 1 77.001 1zM358.998 689.997c-30.667 0 -50.668 -5.66797 -60.001 -17.001s-14 -34.333 -14 -69v-500c0 -34.667 4.83301 -57.667 14.5 -69s29.834 -17 60.501 -17c50.667 0 91 13.167 121 39.5s51.5 64.833 64.5 115.5
s19.5 112.334 19.5 185.001c0 112 -16.167 195.333 -48.5 250s-84.833 82 -157.5 82zM401.997 365.996v-20h-394v20h394z" />
    <glyph glyph-name="Ntilde" unicode="&#xd1;" horiz-adv-x="727" 
d="M700 708l0.00488281 -20.0059c-20 -3.33301 -35.333 -9.66602 -46 -18.999s-17.834 -23.666 -21.501 -42.999s-5.5 -46.666 -5.5 -81.999v-545c-8.66699 1.33301 -18 2 -28 2s-20.667 -0.666992 -32 -2l-439 517v-336c0 -40.667 2 -71.834 6 -93.501s13 -37.167 27 -46.5
s36 -16 66 -20v-20c-12.667 1.33301 -29.5 2.16602 -50.5 2.49902s-40.833 0.5 -59.5 0.5c-14.667 0 -29.834 -0.166992 -45.501 -0.5s-28.834 -1.16602 -39.501 -2.49902v20c21.333 4 37.166 10.5 47.499 19.5s17.166 23.333 20.499 43s5 46.834 5 81.501v438
c0 24.667 -1.66699 42.834 -5 54.501s-10.333 19.667 -21 24s-26.334 6.83301 -47.001 7.5v20c10.667 -0.666992 23.834 -1.33398 39.501 -2.00098s30.834 -1 45.501 -1c16.667 0 32.667 0.333008 48 1s29.333 1.33398 42 2.00098l397 -454v274
c0 40.667 -1.83301 71.834 -5.5 93.501s-12.334 37.334 -26.001 47.001s-36.167 16.167 -67.5 19.5v20c13.333 -0.666992 30.5 -1.33398 51.5 -2.00098s40.5 -1 58.5 -1c16 0 31.667 0.333008 47 1s28 1.33398 38 2.00098zM289.005 930.994
c25.333 0 46.999 -3.50098 64.999 -10.501s34.667 -15 50 -24s30.833 -16.833 46.5 -23.5s33.834 -10 54.501 -10c17.333 0 33.5 4 48.5 12s28.833 21.667 41.5 41l14 -6c-11.333 -50 -29.833 -86.5 -55.5 -109.5s-53.834 -34.5 -84.501 -34.5
c-25.333 0 -47.166 3.5 -65.499 10.5s-35 15.167 -50 24.5s-30.5 17.333 -46.5 24s-34.333 10 -55 10c-17.333 0 -33.333 -4 -48 -12s-28.667 -22 -42 -42l-14 6c11.333 50.667 30 87.334 56 110.001s54.333 34 85 34z" />
    <glyph glyph-name="Ograve" unicode="&#xd2;" horiz-adv-x="810" 
d="M405 722c73.333 0 137.331 -14.3311 191.998 -42.998s97.167 -69.834 127.5 -123.501s45.5 -118.834 45.5 -195.501c0 -74.667 -15.5 -140 -46.5 -196s-74.167 -99.667 -129.5 -131s-118.666 -47 -189.999 -47c-72.667 0 -136.5 14.333 -191.5 43s-97.667 70 -128 124
s-45.5 119 -45.5 195c0 74.667 15.833 140 47.5 196s74.834 99.667 129.501 131s117.667 47 189 47zM400.998 704.002c-35.333 0 -65.9971 -15.001 -91.9971 -45.001s-46.167 -71.333 -60.5 -124s-21.5 -113.667 -21.5 -183c0 -70.667 8.16699 -132.167 24.5 -184.5
s38.166 -92.666 65.499 -120.999s57.666 -42.5 90.999 -42.5c35.333 0 66.166 15 92.499 45s46.5 71.5 60.5 124.5s21 113.833 21 182.5c0 71.333 -8 133 -24 185s-37.833 92.167 -65.5 120.5s-58.167 42.5 -91.5 42.5zM310.001 936.001
c16 -7.33301 30 -17.9971 42 -31.9971l44 -50.5c17.333 -19.667 42 -42.834 74 -69.501l-7 -12c-38 13.333 -69.833 22.666 -95.5 27.999s-47.5 9.66602 -65.5 12.999s-34.667 9.33301 -50 18c-15.333 8 -25.833 19.5 -31.5 34.5s-4.83398 29.833 2.49902 44.5
c8 17.333 20.833 28 38.5 32s33.834 2 48.501 -6z" />
    <glyph glyph-name="Oacute" unicode="&#xd3;" horiz-adv-x="810" 
d="M405 722c73.333 0 137.331 -14.3311 191.998 -42.998s97.167 -69.834 127.5 -123.501s45.5 -118.834 45.5 -195.501c0 -74.667 -15.5 -140 -46.5 -196s-74.167 -99.667 -129.5 -131s-118.666 -47 -189.999 -47c-72.667 0 -136.5 14.333 -191.5 43s-97.667 70 -128 124
s-45.5 119 -45.5 195c0 74.667 15.833 140 47.5 196s74.834 99.667 129.501 131s117.667 47 189 47zM400.998 704.002c-35.333 0 -65.9971 -15.001 -91.9971 -45.001s-46.167 -71.333 -60.5 -124s-21.5 -113.667 -21.5 -183c0 -70.667 8.16699 -132.167 24.5 -184.5
s38.166 -92.666 65.499 -120.999s57.666 -42.5 90.999 -42.5c35.333 0 66.166 15 92.499 45s46.5 71.5 60.5 124.5s21 113.833 21 182.5c0 71.333 -8 133 -24 185s-37.833 92.167 -65.5 120.5s-58.167 42.5 -91.5 42.5zM486.001 936.001
c14.667 8 30.835 9.99707 48.502 5.99707s30.5 -14.667 38.5 -32c7.33301 -14.667 8.16602 -29.5 2.49902 -44.5s-16.167 -26.5 -31.5 -34.5c-15.333 -8.66699 -32 -14.667 -50 -18s-39.667 -7.66602 -65 -12.999s-57.333 -14.666 -96 -27.999l-7 12
c32 26.667 56.667 49.834 74 69.501l44.5 50.5c12.333 14 26.166 24.667 41.499 32z" />
    <glyph glyph-name="Ocircumflex" unicode="&#xd4;" horiz-adv-x="810" 
d="M405 722c73.333 0 137.331 -14.3311 191.998 -42.998s97.167 -69.834 127.5 -123.501s45.5 -118.834 45.5 -195.501c0 -74.667 -15.5 -140 -46.5 -196s-74.167 -99.667 -129.5 -131s-118.666 -47 -189.999 -47c-72.667 0 -136.5 14.333 -191.5 43s-97.667 70 -128 124
s-45.5 119 -45.5 195c0 74.667 15.833 140 47.5 196s74.834 99.667 129.501 131s117.667 47 189 47zM400.998 704.002c-35.333 0 -65.9971 -15.001 -91.9971 -45.001s-46.167 -71.333 -60.5 -124s-21.5 -113.667 -21.5 -183c0 -70.667 8.16699 -132.167 24.5 -184.5
s38.166 -92.666 65.499 -120.999s57.666 -42.5 90.999 -42.5c35.333 0 66.166 15 92.499 45s46.5 71.5 60.5 124.5s21 113.833 21 182.5c0 71.333 -8 133 -24 185s-37.833 92.167 -65.5 120.5s-58.167 42.5 -91.5 42.5zM412.001 948.001c22 -30 51.667 -59.834 89 -89.501
s78 -54.5 122 -74.5l-5 -15c-44.667 8 -88.667 17.667 -132 29s-77.666 22.666 -102.999 33.999c-21.333 -11.333 -50 -22.666 -86 -33.999s-72.333 -21 -109 -29l-5 15c43.333 19.333 83.666 43.833 120.999 73.5s67.333 59.834 90 90.501h18z" />
    <glyph glyph-name="Otilde" unicode="&#xd5;" horiz-adv-x="810" 
d="M405 722c73.333 0 137.331 -14.3311 191.998 -42.998s97.167 -69.834 127.5 -123.501s45.5 -118.834 45.5 -195.501c0 -74.667 -15.5 -140 -46.5 -196s-74.167 -99.667 -129.5 -131s-118.666 -47 -189.999 -47c-72.667 0 -136.5 14.333 -191.5 43s-97.667 70 -128 124
s-45.5 119 -45.5 195c0 74.667 15.833 140 47.5 196s74.834 99.667 129.501 131s117.667 47 189 47zM400.998 704.002c-35.333 0 -65.9971 -15.001 -91.9971 -45.001s-46.167 -71.333 -60.5 -124s-21.5 -113.667 -21.5 -183c0 -70.667 8.16699 -132.167 24.5 -184.5
s38.166 -92.666 65.499 -120.999s57.666 -42.5 90.999 -42.5c35.333 0 66.166 15 92.499 45s46.5 71.5 60.5 124.5s21 113.833 21 182.5c0 71.333 -8 133 -24 185s-37.833 92.167 -65.5 120.5s-58.167 42.5 -91.5 42.5zM312.001 931.001
c25.333 0 46.999 -3.50098 64.999 -10.501s34.667 -15 50 -24s30.833 -16.833 46.5 -23.5s33.834 -10 54.501 -10c17.333 0 33.5 4 48.5 12s28.833 21.667 41.5 41l14 -6c-11.333 -50 -29.833 -86.5 -55.5 -109.5s-53.834 -34.5 -84.501 -34.5
c-25.333 0 -47.166 3.5 -65.499 10.5s-35 15.167 -50 24.5s-30.5 17.333 -46.5 24s-34.333 10 -55 10c-17.333 0 -33.333 -4 -48 -12s-28.667 -22 -42 -42l-14 6c11.333 50.667 30 87.334 56 110.001s54.333 34 85 34z" />
    <glyph glyph-name="Odieresis" unicode="&#xd6;" horiz-adv-x="810" 
d="M405 722c73.333 0 137.331 -14.3311 191.998 -42.998s97.167 -69.834 127.5 -123.501s45.5 -118.834 45.5 -195.501c0 -74.667 -15.5 -140 -46.5 -196s-74.167 -99.667 -129.5 -131s-118.666 -47 -189.999 -47c-72.667 0 -136.5 14.333 -191.5 43s-97.667 70 -128 124
s-45.5 119 -45.5 195c0 74.667 15.833 140 47.5 196s74.834 99.667 129.501 131s117.667 47 189 47zM400.998 704.002c-35.333 0 -65.9971 -15.001 -91.9971 -45.001s-46.167 -71.333 -60.5 -124s-21.5 -113.667 -21.5 -183c0 -70.667 8.16699 -132.167 24.5 -184.5
s38.166 -92.666 65.499 -120.999s57.666 -42.5 90.999 -42.5c35.333 0 66.166 15 92.499 45s46.5 71.5 60.5 124.5s21 113.833 21 182.5c0 71.333 -8 133 -24 185s-37.833 92.167 -65.5 120.5s-58.167 42.5 -91.5 42.5zM528.001 926.001
c21.333 0 40.167 -8.16797 56.5 -24.501s24.5 -35.166 24.5 -56.499c0 -22 -8.16699 -41 -24.5 -57s-35.5 -24 -57.5 -24s-41 8 -57 24s-24 35 -24 57s8 41 24 57s35.333 24 58 24zM279.002 926c21.333 0 40.166 -8.16797 56.499 -24.501s24.5 -35.166 24.5 -56.499
c0 -22 -8.16699 -41 -24.5 -57s-35.166 -24 -56.499 -24c-22.667 0 -42 8 -58 24s-24 35 -24 57s8 41 24 57s35.333 24 58 24z" />
    <glyph glyph-name="multiply" unicode="&#xd7;" horiz-adv-x="488" 
d="M70 552l175 -175l173 173l22 -22l-173 -172l173 -173l-22 -22l-173 173l-174 -174l-22 22l174 173l-175 175z" />
    <glyph glyph-name="Oslash" unicode="&#xd8;" horiz-adv-x="810" 
d="M405 722c73.333 0 137.331 -14.3311 191.998 -42.998s97.167 -69.834 127.5 -123.501s45.5 -118.834 45.5 -195.501c0 -74.667 -15.5 -140 -46.5 -196s-74.167 -99.667 -129.5 -131s-118.666 -47 -189.999 -47c-72.667 0 -136.5 14.333 -191.5 43s-97.667 70 -128 124
s-45.5 119 -45.5 195c0 74.667 15.833 140 47.5 196s74.834 99.667 129.501 131s117.667 47 189 47zM400.998 704.002c-35.333 0 -65.9971 -15.001 -91.9971 -45.001s-46.167 -71.333 -60.5 -124s-21.5 -113.667 -21.5 -183c0 -70.667 8.16699 -132.167 24.5 -184.5
s38.166 -92.666 65.499 -120.999s57.666 -42.5 90.999 -42.5c35.333 0 66.166 15 92.499 45s46.5 71.5 60.5 124.5s21 113.833 21 182.5c0 71.333 -8 133 -24 185s-37.833 92.167 -65.5 120.5s-58.167 42.5 -91.5 42.5zM565.001 638.001l15 -20l-340 -543l-18 18z
M208.001 93.001l18 -18l-111 -156l-21 14zM669.001 781.001l19 -13l-101 -150l-15 20z" />
    <glyph glyph-name="Ugrave" unicode="&#xd9;" horiz-adv-x="691" 
d="M676 708l0.00292969 -20.0029c-20.667 -3.33301 -36.334 -9.66602 -47.001 -18.999s-17.667 -23.666 -21 -42.999s-5 -46.666 -5 -81.999v-253c0 -42.667 -2.83301 -82 -8.5 -118s-16.5 -67.333 -32.5 -94c-17.333 -28.667 -43 -51.334 -77 -68.001s-78 -25 -132 -25
c-30.667 0 -62.5 3.5 -95.5 10.5s-62.5 19.833 -88.5 38.5c-22 17.333 -38.833 37.666 -50.5 60.999s-19.5 50.833 -23.5 82.5s-6 68.167 -6 109.5v314c0 24.667 -1.83301 42.834 -5.5 54.501s-10.667 19.667 -21 24s-25.833 6.83301 -46.5 7.5v20
c18 -0.666992 42 -1.33398 72 -2.00098s61.333 -1 94 -1s64 0.333008 94 1s55 1.33398 75 2.00098v-20c-22.667 -0.666992 -39.834 -3.16699 -51.501 -7.5s-19.5 -12.333 -23.5 -24s-6 -29.834 -6 -54.501v-393c0 -44 4.33301 -79.833 13 -107.5s22.667 -48 42 -61
s44.666 -19.5 75.999 -19.5c46 0 82 10.833 108 32.5s44.333 52.167 55 91.5s16 84.333 16 135v248c0 40.667 -2 71.834 -6 93.501s-13 37.334 -27 47.001s-36 16.167 -66 19.5v20c12.667 -0.666992 29.5 -1.33398 50.5 -2.00098s40.833 -1 59.5 -1
c15.333 0 30.833 0.333008 46.5 1s28.5 1.33398 38.5 2.00098zM266.003 935.997c16 -7.33301 30 -17.9971 42 -31.9971l44 -50.5c17.333 -19.667 42 -42.834 74 -69.501l-7 -12c-38 13.333 -69.833 22.666 -95.5 27.999s-47.5 9.66602 -65.5 12.999s-34.667 9.33301 -50 18
c-15.333 8 -25.833 19.5 -31.5 34.5s-4.83398 29.833 2.49902 44.5c8 17.333 20.833 28 38.5 32s33.834 2 48.501 -6z" />
    <glyph glyph-name="Uacute" unicode="&#xda;" horiz-adv-x="691" 
d="M676 708l0.00292969 -20.0029c-20.667 -3.33301 -36.334 -9.66602 -47.001 -18.999s-17.667 -23.666 -21 -42.999s-5 -46.666 -5 -81.999v-253c0 -42.667 -2.83301 -82 -8.5 -118s-16.5 -67.333 -32.5 -94c-17.333 -28.667 -43 -51.334 -77 -68.001s-78 -25 -132 -25
c-30.667 0 -62.5 3.5 -95.5 10.5s-62.5 19.833 -88.5 38.5c-22 17.333 -38.833 37.666 -50.5 60.999s-19.5 50.833 -23.5 82.5s-6 68.167 -6 109.5v314c0 24.667 -1.83301 42.834 -5.5 54.501s-10.667 19.667 -21 24s-25.833 6.83301 -46.5 7.5v20
c18 -0.666992 42 -1.33398 72 -2.00098s61.333 -1 94 -1s64 0.333008 94 1s55 1.33398 75 2.00098v-20c-22.667 -0.666992 -39.834 -3.16699 -51.501 -7.5s-19.5 -12.333 -23.5 -24s-6 -29.834 -6 -54.501v-393c0 -44 4.33301 -79.833 13 -107.5s22.667 -48 42 -61
s44.666 -19.5 75.999 -19.5c46 0 82 10.833 108 32.5s44.333 52.167 55 91.5s16 84.333 16 135v248c0 40.667 -2 71.834 -6 93.501s-13 37.334 -27 47.001s-36 16.167 -66 19.5v20c12.667 -0.666992 29.5 -1.33398 50.5 -2.00098s40.833 -1 59.5 -1
c15.333 0 30.833 0.333008 46.5 1s28.5 1.33398 38.5 2.00098zM442.003 935.997c14.667 8 30.835 9.99707 48.502 5.99707s30.5 -14.667 38.5 -32c7.33301 -14.667 8.16602 -29.5 2.49902 -44.5s-16.167 -26.5 -31.5 -34.5c-15.333 -8.66699 -32 -14.667 -50 -18
s-39.667 -7.66602 -65 -12.999s-57.333 -14.666 -96 -27.999l-7 12c32 26.667 56.667 49.834 74 69.501l44.5 50.5c12.333 14 26.166 24.667 41.499 32z" />
    <glyph glyph-name="Ucircumflex" unicode="&#xdb;" horiz-adv-x="691" 
d="M676 708l0.00292969 -20.0029c-20.667 -3.33301 -36.334 -9.66602 -47.001 -18.999s-17.667 -23.666 -21 -42.999s-5 -46.666 -5 -81.999v-253c0 -42.667 -2.83301 -82 -8.5 -118s-16.5 -67.333 -32.5 -94c-17.333 -28.667 -43 -51.334 -77 -68.001s-78 -25 -132 -25
c-30.667 0 -62.5 3.5 -95.5 10.5s-62.5 19.833 -88.5 38.5c-22 17.333 -38.833 37.666 -50.5 60.999s-19.5 50.833 -23.5 82.5s-6 68.167 -6 109.5v314c0 24.667 -1.83301 42.834 -5.5 54.501s-10.667 19.667 -21 24s-25.833 6.83301 -46.5 7.5v20
c18 -0.666992 42 -1.33398 72 -2.00098s61.333 -1 94 -1s64 0.333008 94 1s55 1.33398 75 2.00098v-20c-22.667 -0.666992 -39.834 -3.16699 -51.501 -7.5s-19.5 -12.333 -23.5 -24s-6 -29.834 -6 -54.501v-393c0 -44 4.33301 -79.833 13 -107.5s22.667 -48 42 -61
s44.666 -19.5 75.999 -19.5c46 0 82 10.833 108 32.5s44.333 52.167 55 91.5s16 84.333 16 135v248c0 40.667 -2 71.834 -6 93.501s-13 37.334 -27 47.001s-36 16.167 -66 19.5v20c12.667 -0.666992 29.5 -1.33398 50.5 -2.00098s40.833 -1 59.5 -1
c15.333 0 30.833 0.333008 46.5 1s28.5 1.33398 38.5 2.00098zM368.003 947.997c22 -30 51.667 -59.834 89 -89.501s78 -54.5 122 -74.5l-5 -15c-44.667 8 -88.667 17.667 -132 29s-77.666 22.666 -102.999 33.999c-21.333 -11.333 -50 -22.666 -86 -33.999
s-72.333 -21 -109 -29l-5 15c43.333 19.333 83.666 43.833 120.999 73.5s67.333 59.834 90 90.501h18z" />
    <glyph glyph-name="Udieresis" unicode="&#xdc;" horiz-adv-x="691" 
d="M676 708l0.00292969 -20.0029c-20.667 -3.33301 -36.334 -9.66602 -47.001 -18.999s-17.667 -23.666 -21 -42.999s-5 -46.666 -5 -81.999v-253c0 -42.667 -2.83301 -82 -8.5 -118s-16.5 -67.333 -32.5 -94c-17.333 -28.667 -43 -51.334 -77 -68.001s-78 -25 -132 -25
c-30.667 0 -62.5 3.5 -95.5 10.5s-62.5 19.833 -88.5 38.5c-22 17.333 -38.833 37.666 -50.5 60.999s-19.5 50.833 -23.5 82.5s-6 68.167 -6 109.5v314c0 24.667 -1.83301 42.834 -5.5 54.501s-10.667 19.667 -21 24s-25.833 6.83301 -46.5 7.5v20
c18 -0.666992 42 -1.33398 72 -2.00098s61.333 -1 94 -1s64 0.333008 94 1s55 1.33398 75 2.00098v-20c-22.667 -0.666992 -39.834 -3.16699 -51.501 -7.5s-19.5 -12.333 -23.5 -24s-6 -29.834 -6 -54.501v-393c0 -44 4.33301 -79.833 13 -107.5s22.667 -48 42 -61
s44.666 -19.5 75.999 -19.5c46 0 82 10.833 108 32.5s44.333 52.167 55 91.5s16 84.333 16 135v248c0 40.667 -2 71.834 -6 93.501s-13 37.334 -27 47.001s-36 16.167 -66 19.5v20c12.667 -0.666992 29.5 -1.33398 50.5 -2.00098s40.833 -1 59.5 -1
c15.333 0 30.833 0.333008 46.5 1s28.5 1.33398 38.5 2.00098zM484.003 925.997c21.333 0 40.167 -8.16797 56.5 -24.501s24.5 -35.166 24.5 -56.499c0 -22 -8.16699 -41 -24.5 -57s-35.5 -24 -57.5 -24s-41 8 -57 24s-24 35 -24 57s8 41 24 57s35.333 24 58 24z
M235.004 925.996c21.333 0 40.166 -8.16797 56.499 -24.501s24.5 -35.166 24.5 -56.499c0 -22 -8.16699 -41 -24.5 -57s-35.166 -24 -56.499 -24c-22.667 0 -42 8 -58 24s-24 35 -24 57s8 41 24 57s35.333 24 58 24z" />
    <glyph glyph-name="Yacute" unicode="&#xdd;" horiz-adv-x="633" 
d="M626 709l-0.000976562 -19.999c-14.667 -6.66699 -30.167 -19.5 -46.5 -38.5s-34.166 -47.5 -53.499 -85.5l-185 -366h-57l-234 433c-11.333 22 -22 36.833 -32 44.5s-18.667 11.5 -26 11.5v21c19.333 -2 39.333 -3.5 60 -4.5s43.334 -1.5 68.001 -1.5
c32 0 66.333 0.666992 103 2s70.334 2.66602 101.001 3.99902v-21c-16.667 0 -31.834 -1 -45.501 -3s-23.334 -6 -29.001 -12s-5.16699 -16 1.5 -30l155 -297l-39 -51l94 188c26 51.333 40.167 91.833 42.5 121.5s-4 51 -19 64s-35.833 19.833 -62.5 20.5v20
c24 -0.666992 45.833 -1.33398 65.5 -2.00098s40.5 -1 62.5 -1c14 0 27.667 0.333008 41 1s25 1.33398 35 2.00098zM419.999 375.001v-269c0 -24 1.83301 -42 5.5 -54s10.667 -20 21 -24s25.833 -6.66699 46.5 -8v-20c-18.667 1.33301 -43.167 2.16602 -73.5 2.49902
s-60.166 0.5 -89.499 0.5c-32.667 0 -63.834 -0.166992 -93.501 -0.5s-53.167 -1.16602 -70.5 -2.49902v20c20.667 1.33301 36.167 4 46.5 8s17.333 12 21 24s5.5 30 5.5 54v205l98 -62zM421.999 936.001c14.667 8 30.835 9.99707 48.502 5.99707s30.5 -14.667 38.5 -32
c7.33301 -14.667 8.16602 -29.5 2.49902 -44.5s-16.167 -26.5 -31.5 -34.5c-15.333 -8.66699 -32 -14.667 -50 -18s-39.667 -7.66602 -65 -12.999s-57.333 -14.666 -96 -27.999l-7 12c32 26.667 56.667 49.834 74 69.501l44.5 50.5c12.333 14 26.166 24.667 41.499 32z" />
    <glyph glyph-name="Thorn" unicode="&#xde;" horiz-adv-x="634" 
d="M329 570c97.333 0 169.832 -15.998 217.499 -47.998s71.5 -79.667 71.5 -143c0 -28.667 -4.83301 -56.834 -14.5 -84.501s-26 -52.334 -49 -74.001s-54.667 -39 -95 -52s-91.166 -19.5 -152.499 -19.5h-96v10v10h86c36.667 0 64.5 9.16699 83.5 27.5s32 42.833 39 73.5
s10.5 63.667 10.5 99c0 59.333 -9.33301 104.5 -28 135.5s-51.334 46.5 -98.001 46.5c-20.667 0 -43.667 -0.333008 -69 -1s-43.666 -1 -54.999 -1l-2 19c31.333 0 61.333 0.333008 90 1s49 1 61 1zM357.999 708.002l0.000976562 -20
c-20.667 -0.666992 -36.334 -3.16699 -47.001 -7.5s-17.667 -12.333 -21 -24s-5 -29.834 -5 -54.501v-496c0 -24 1.83301 -42 5.5 -54s10.667 -20 21 -24s25.833 -6.66699 46.5 -8v-20c-18.667 1.33301 -42.5 2.16602 -71.5 2.49902s-58.167 0.5 -87.5 0.5
c-34 0 -66 -0.166992 -96 -0.5s-54 -1.16602 -72 -2.49902v20c20.667 1.33301 36.167 4 46.5 8s17.333 12 21 24s5.5 30 5.5 54v496c0 24.667 -1.83301 42.834 -5.5 54.501s-10.667 19.667 -21 24s-25.833 6.83301 -46.5 7.5v20c18 -0.666992 42 -1.33398 72 -2.00098
s62 -1 96 -1c29.333 0 58.5 0.333008 87.5 1s52.833 1.33398 71.5 2.00098z" />
    <glyph glyph-name="germandbls" unicode="&#xdf;" horiz-adv-x="681" 
d="M343 782c71.333 0 126.166 -14.334 164.499 -43.001s57.5 -64 57.5 -106c0 -25.333 -6.16699 -48.833 -18.5 -70.5s-29 -41 -50 -58s-45 -31.5 -72 -43.5s-55.5 -21.333 -85.5 -28c70 -8.66699 128.833 -25 176.5 -49s83.667 -53.333 108 -88s36.5 -73 36.5 -115
s-11.167 -77.667 -33.5 -107s-51.333 -51.333 -87 -66s-74.167 -22 -115.5 -22c-26.667 0 -51.167 3.33301 -73.5 10s-40.166 18 -53.499 34s-20 37.333 -20 64s6.66699 48.167 20 64.5s32.333 24.5 57 24.5c22.667 0 40.834 -7 54.501 -21s20.5 -32.333 20.5 -55
c0 -23.333 -7.16699 -43 -21.5 -59s-30.166 -27.667 -47.499 -35c4 -2.66699 8.83301 -5 14.5 -7s12.167 -3 19.5 -3c21.333 0 39.166 7.16699 53.499 21.5s25.166 33.833 32.499 58.5s11 53 11 85c0 42.667 -5.33301 78.667 -16 108s-24.5 53.5 -41.5 72.5
s-35.333 34.167 -55 45.5s-38.5 20.333 -56.5 27l-18 -8c-6 -2.66699 -11.333 -4 -16 -4s-9.16699 1.33301 -13.5 4s-6.5 6.66699 -6.5 12c0 12 7.33301 18 22 18c5.33301 0 11.166 -0.666992 17.499 -2s11.5 -3 15.5 -5c33.333 22.667 56.333 48.334 69 77.001
s19 64.334 19 107.001c0 49.333 -7.33301 86.166 -22 110.499s-36 36.5 -64 36.5c-22.667 0 -40.167 -7 -52.5 -21s-20.666 -36.5 -24.999 -67.5s-6.5 -73.5 -6.5 -127.5v-562c-20 4 -40.833 7.16699 -62.5 9.5s-44.834 3.83301 -69.501 4.5
c-14.667 0.666992 -28 0.666992 -40 0s-28.667 -1.66699 -50 -3v21c22 0 37.5 5.5 46.5 16.5s13.5 30.5 13.5 58.5v421c0 59.333 10 108.5 30 147.5s49.833 68.333 89.5 88s87.834 29.5 144.501 29.5z" />
    <glyph glyph-name="agrave" unicode="&#xe0;" horiz-adv-x="524" 
d="M153 -7c-44.667 0 -77.167 11.833 -97.5 35.5s-30.5 52.167 -30.5 85.5c0 28 6.5 51.167 19.5 69.5s29.833 33.166 50.5 44.499s42.334 20.833 65.001 28.5l65 23c20.667 7.66699 37.334 16.334 50.001 26.001s19 22.167 19 37.5v83c0 14.667 -2.16699 28.5 -6.5 41.5
s-12 23.667 -23 32s-26.167 12.5 -45.5 12.5c-12 0 -23.667 -1.66699 -35 -5s-21.333 -8.66602 -30 -15.999c21.333 -7.33301 37.166 -18.333 47.499 -33s15.5 -31 15.5 -49c0 -24.667 -8.5 -44.167 -25.5 -58.5s-37.167 -21.5 -60.5 -21.5c-25.333 0 -44.833 8 -58.5 24
s-20.5 35.333 -20.5 58c0 20 5 36.833 15 50.5s24.667 26.167 44 37.5s42.666 19.666 69.999 24.999s56.333 8 87 8c31.333 0 60.166 -3.16699 86.499 -9.5s48.833 -18.833 67.5 -37.5c14.667 -15.333 24 -34 28 -56s6 -50 6 -84v-270c0 -16.667 1.5 -28.167 4.5 -34.5
s7.83301 -9.5 14.5 -9.5s12.667 1.66699 18 5s10.333 7 15 11l11 -17c-14.667 -12 -32 -21.167 -52 -27.5s-41.667 -9.5 -65 -9.5c-41.333 0 -69 8 -83 24s-21.333 34.333 -22 55c-15.333 -24.667 -34.666 -44 -57.999 -58s-52 -21 -86 -21zM242 65
c10 0 19.166 2.16504 27.499 6.49805s16.5 11.833 24.5 22.5v208c-7.33301 -12.667 -17 -23.5 -29 -32.5s-24.167 -18.667 -36.5 -29s-22.666 -23.166 -30.999 -38.499s-12.5 -35.666 -12.5 -60.999c0 -27.333 5.5 -46.833 16.5 -58.5s24.5 -17.5 40.5 -17.5z
M137.999 818.998c14 12 29.833 16.499 47.5 13.499s31.834 -10.833 42.501 -23.5c12 -13.333 21 -28.666 27 -45.999l21.5 -63c8.33301 -24.667 22.166 -55.334 41.499 -92.001l-11 -9c-30 26.667 -55.833 47.334 -77.5 62.001l-55.5 37.5
c-15.333 10.333 -28.333 21.833 -39 34.5c-11.333 14 -16.833 29.167 -16.5 45.5s6.83301 29.833 19.5 40.5z" />
    <glyph glyph-name="aacute" unicode="&#xe1;" horiz-adv-x="524" 
d="M153 -7c-44.667 0 -77.167 11.833 -97.5 35.5s-30.5 52.167 -30.5 85.5c0 28 6.5 51.167 19.5 69.5s29.833 33.166 50.5 44.499s42.334 20.833 65.001 28.5l65 23c20.667 7.66699 37.334 16.334 50.001 26.001s19 22.167 19 37.5v83c0 14.667 -2.16699 28.5 -6.5 41.5
s-12 23.667 -23 32s-26.167 12.5 -45.5 12.5c-12 0 -23.667 -1.66699 -35 -5s-21.333 -8.66602 -30 -15.999c21.333 -7.33301 37.166 -18.333 47.499 -33s15.5 -31 15.5 -49c0 -24.667 -8.5 -44.167 -25.5 -58.5s-37.167 -21.5 -60.5 -21.5c-25.333 0 -44.833 8 -58.5 24
s-20.5 35.333 -20.5 58c0 20 5 36.833 15 50.5s24.667 26.167 44 37.5s42.666 19.666 69.999 24.999s56.333 8 87 8c31.333 0 60.166 -3.16699 86.499 -9.5s48.833 -18.833 67.5 -37.5c14.667 -15.333 24 -34 28 -56s6 -50 6 -84v-270c0 -16.667 1.5 -28.167 4.5 -34.5
s7.83301 -9.5 14.5 -9.5s12.667 1.66699 18 5s10.333 7 15 11l11 -17c-14.667 -12 -32 -21.167 -52 -27.5s-41.667 -9.5 -65 -9.5c-41.333 0 -69 8 -83 24s-21.333 34.333 -22 55c-15.333 -24.667 -34.666 -44 -57.999 -58s-52 -21 -86 -21zM242 65
c10 0 19.166 2.16504 27.499 6.49805s16.5 11.833 24.5 22.5v208c-7.33301 -12.667 -17 -23.5 -29 -32.5s-24.167 -18.667 -36.5 -29s-22.666 -23.166 -30.999 -38.499s-12.5 -35.666 -12.5 -60.999c0 -27.333 5.5 -46.833 16.5 -58.5s24.5 -17.5 40.5 -17.5z
M373.999 818.998c12.667 -10 19.167 -23.334 19.5 -40.001s-5.16699 -32 -16.5 -46c-10 -12.667 -22.833 -24.167 -38.5 -34.5l-55.5 -37.5c-21.333 -14.667 -47.333 -35.334 -78 -62.001l-11 9c19.333 36.667 33.166 67.334 41.499 92.001l21.5 63
c6 17.333 15 32.666 27 45.999c10.667 12.667 24.834 20.334 42.501 23.001s33.5 -1.66602 47.5 -12.999z" />
    <glyph glyph-name="acircumflex" unicode="&#xe2;" horiz-adv-x="524" 
d="M153 -7c-44.667 0 -77.167 11.833 -97.5 35.5s-30.5 52.167 -30.5 85.5c0 28 6.5 51.167 19.5 69.5s29.833 33.166 50.5 44.499s42.334 20.833 65.001 28.5l65 23c20.667 7.66699 37.334 16.334 50.001 26.001s19 22.167 19 37.5v83c0 14.667 -2.16699 28.5 -6.5 41.5
s-12 23.667 -23 32s-26.167 12.5 -45.5 12.5c-12 0 -23.667 -1.66699 -35 -5s-21.333 -8.66602 -30 -15.999c21.333 -7.33301 37.166 -18.333 47.499 -33s15.5 -31 15.5 -49c0 -24.667 -8.5 -44.167 -25.5 -58.5s-37.167 -21.5 -60.5 -21.5c-25.333 0 -44.833 8 -58.5 24
s-20.5 35.333 -20.5 58c0 20 5 36.833 15 50.5s24.667 26.167 44 37.5s42.666 19.666 69.999 24.999s56.333 8 87 8c31.333 0 60.166 -3.16699 86.499 -9.5s48.833 -18.833 67.5 -37.5c14.667 -15.333 24 -34 28 -56s6 -50 6 -84v-270c0 -16.667 1.5 -28.167 4.5 -34.5
s7.83301 -9.5 14.5 -9.5s12.667 1.66699 18 5s10.333 7 15 11l11 -17c-14.667 -12 -32 -21.167 -52 -27.5s-41.667 -9.5 -65 -9.5c-41.333 0 -69 8 -83 24s-21.333 34.333 -22 55c-15.333 -24.667 -34.666 -44 -57.999 -58s-52 -21 -86 -21zM242 65
c10 0 19.166 2.16504 27.499 6.49805s16.5 11.833 24.5 22.5v208c-7.33301 -12.667 -17 -23.5 -29 -32.5s-24.167 -18.667 -36.5 -29s-22.666 -23.166 -30.999 -38.499s-12.5 -35.666 -12.5 -60.999c0 -27.333 5.5 -46.833 16.5 -58.5s24.5 -17.5 40.5 -17.5z
M272.999 825.998c19.333 -38 45.168 -75.5 77.501 -112.5s67.5 -67.5 105.5 -91.5l-8 -14c-39.333 8.66699 -77.5 19.167 -114.5 31.5s-66.833 24.5 -89.5 36.5c-18 -12 -42 -24.167 -72 -36.5s-60.667 -22.833 -92 -31.5l-8 14c37.333 23.333 72.166 53.5 104.499 90.5
s58.5 74.833 78.5 113.5h18z" />
    <glyph glyph-name="atilde" unicode="&#xe3;" horiz-adv-x="524" 
d="M153 -7c-44.667 0 -77.167 11.833 -97.5 35.5s-30.5 52.167 -30.5 85.5c0 28 6.5 51.167 19.5 69.5s29.833 33.166 50.5 44.499s42.334 20.833 65.001 28.5l65 23c20.667 7.66699 37.334 16.334 50.001 26.001s19 22.167 19 37.5v83c0 14.667 -2.16699 28.5 -6.5 41.5
s-12 23.667 -23 32s-26.167 12.5 -45.5 12.5c-12 0 -23.667 -1.66699 -35 -5s-21.333 -8.66602 -30 -15.999c21.333 -7.33301 37.166 -18.333 47.499 -33s15.5 -31 15.5 -49c0 -24.667 -8.5 -44.167 -25.5 -58.5s-37.167 -21.5 -60.5 -21.5c-25.333 0 -44.833 8 -58.5 24
s-20.5 35.333 -20.5 58c0 20 5 36.833 15 50.5s24.667 26.167 44 37.5s42.666 19.666 69.999 24.999s56.333 8 87 8c31.333 0 60.166 -3.16699 86.499 -9.5s48.833 -18.833 67.5 -37.5c14.667 -15.333 24 -34 28 -56s6 -50 6 -84v-270c0 -16.667 1.5 -28.167 4.5 -34.5
s7.83301 -9.5 14.5 -9.5s12.667 1.66699 18 5s10.333 7 15 11l11 -17c-14.667 -12 -32 -21.167 -52 -27.5s-41.667 -9.5 -65 -9.5c-41.333 0 -69 8 -83 24s-21.333 34.333 -22 55c-15.333 -24.667 -34.666 -44 -57.999 -58s-52 -21 -86 -21zM242 65
c10 0 19.166 2.16504 27.499 6.49805s16.5 11.833 24.5 22.5v208c-7.33301 -12.667 -17 -23.5 -29 -32.5s-24.167 -18.667 -36.5 -29s-22.666 -23.166 -30.999 -38.499s-12.5 -35.666 -12.5 -60.999c0 -27.333 5.5 -46.833 16.5 -58.5s24.5 -17.5 40.5 -17.5z
M189.999 791.998c21.333 0 39.333 -3.33203 54 -9.99902s28 -14.334 40 -23.001s24.333 -16.334 37 -23.001s27.334 -10 44.001 -10c14 0 27.5 4.16699 40.5 12.5s25.167 21.833 36.5 40.5l14 -7c-11.333 -54 -28.333 -92.667 -51 -116s-47.667 -35 -75 -35
c-21.333 0 -39.5 3.33301 -54.5 10s-28.5 14.5 -40.5 23.5s-24.333 16.833 -37 23.5s-27.334 10 -44.001 10c-14 0 -27.5 -4.16699 -40.5 -12.5s-25.167 -22.166 -36.5 -41.499l-14 7c11.333 54 28.5 92.667 51.5 116s48.167 35 75.5 35z" />
    <glyph glyph-name="adieresis" unicode="&#xe4;" horiz-adv-x="524" 
d="M153 -7c-44.667 0 -77.167 11.833 -97.5 35.5s-30.5 52.167 -30.5 85.5c0 28 6.5 51.167 19.5 69.5s29.833 33.166 50.5 44.499s42.334 20.833 65.001 28.5l65 23c20.667 7.66699 37.334 16.334 50.001 26.001s19 22.167 19 37.5v83c0 14.667 -2.16699 28.5 -6.5 41.5
s-12 23.667 -23 32s-26.167 12.5 -45.5 12.5c-12 0 -23.667 -1.66699 -35 -5s-21.333 -8.66602 -30 -15.999c21.333 -7.33301 37.166 -18.333 47.499 -33s15.5 -31 15.5 -49c0 -24.667 -8.5 -44.167 -25.5 -58.5s-37.167 -21.5 -60.5 -21.5c-25.333 0 -44.833 8 -58.5 24
s-20.5 35.333 -20.5 58c0 20 5 36.833 15 50.5s24.667 26.167 44 37.5s42.666 19.666 69.999 24.999s56.333 8 87 8c31.333 0 60.166 -3.16699 86.499 -9.5s48.833 -18.833 67.5 -37.5c14.667 -15.333 24 -34 28 -56s6 -50 6 -84v-270c0 -16.667 1.5 -28.167 4.5 -34.5
s7.83301 -9.5 14.5 -9.5s12.667 1.66699 18 5s10.333 7 15 11l11 -17c-14.667 -12 -32 -21.167 -52 -27.5s-41.667 -9.5 -65 -9.5c-41.333 0 -69 8 -83 24s-21.333 34.333 -22 55c-15.333 -24.667 -34.666 -44 -57.999 -58s-52 -21 -86 -21zM242 65
c10 0 19.166 2.16504 27.499 6.49805s16.5 11.833 24.5 22.5v208c-7.33301 -12.667 -17 -23.5 -29 -32.5s-24.167 -18.667 -36.5 -29s-22.666 -23.166 -30.999 -38.499s-12.5 -35.666 -12.5 -60.999c0 -27.333 5.5 -46.833 16.5 -58.5s24.5 -17.5 40.5 -17.5z
M381.999 765.998c21.333 0 40.167 -8.16699 56.5 -24.5s24.5 -35.166 24.5 -56.499c0 -22.667 -8.16699 -41.834 -24.5 -57.501s-35.5 -23.5 -57.5 -23.5s-41 8 -57 24s-24 35 -24 57s8 41 24 57s35.333 24 58 24zM149 765.998c21.333 0 40.166 -8.16699 56.499 -24.5
s24.5 -35.166 24.5 -56.499c0 -22.667 -8.16699 -41.834 -24.5 -57.501s-35.166 -23.5 -56.499 -23.5c-22.667 0 -42 8 -58 24s-24 35 -24 57s8 41 24 57s35.333 24 58 24z" />
    <glyph glyph-name="aring" unicode="&#xe5;" horiz-adv-x="524" 
d="M153 -7c-44.667 0 -77.167 11.833 -97.5 35.5s-30.5 52.167 -30.5 85.5c0 28 6.5 51.167 19.5 69.5s29.833 33.166 50.5 44.499s42.334 20.833 65.001 28.5l65 23c20.667 7.66699 37.334 16.334 50.001 26.001s19 22.167 19 37.5v83c0 14.667 -2.16699 28.5 -6.5 41.5
s-12 23.667 -23 32s-26.167 12.5 -45.5 12.5c-12 0 -23.667 -1.66699 -35 -5s-21.333 -8.66602 -30 -15.999c21.333 -7.33301 37.166 -18.333 47.499 -33s15.5 -31 15.5 -49c0 -24.667 -8.5 -44.167 -25.5 -58.5s-37.167 -21.5 -60.5 -21.5c-25.333 0 -44.833 8 -58.5 24
s-20.5 35.333 -20.5 58c0 20 5 36.833 15 50.5s24.667 26.167 44 37.5s42.666 19.666 69.999 24.999s56.333 8 87 8c31.333 0 60.166 -3.16699 86.499 -9.5s48.833 -18.833 67.5 -37.5c14.667 -15.333 24 -34 28 -56s6 -50 6 -84v-270c0 -16.667 1.5 -28.167 4.5 -34.5
s7.83301 -9.5 14.5 -9.5s12.667 1.66699 18 5s10.333 7 15 11l11 -17c-14.667 -12 -32 -21.167 -52 -27.5s-41.667 -9.5 -65 -9.5c-41.333 0 -69 8 -83 24s-21.333 34.333 -22 55c-15.333 -24.667 -34.666 -44 -57.999 -58s-52 -21 -86 -21zM242 65
c10 0 19.166 2.16504 27.499 6.49805s16.5 11.833 24.5 22.5v208c-7.33301 -12.667 -17 -23.5 -29 -32.5s-24.167 -18.667 -36.5 -29s-22.666 -23.166 -30.999 -38.499s-12.5 -35.666 -12.5 -60.999c0 -27.333 5.5 -46.833 16.5 -58.5s24.5 -17.5 40.5 -17.5z
M263.999 798.998c30 0 56.333 -8.83301 79 -26.5s34 -41.834 34 -72.501s-11.333 -55 -34 -73s-49 -27 -79 -27c-29.333 0 -55.333 9 -78 27s-34 42.333 -34 73s11.333 54.834 34 72.501s48.667 26.5 78 26.5zM263.999 777.998c-20 0 -39 -6.83301 -57 -20.5
s-27 -33.167 -27 -58.5c0 -26 9 -45.5 27 -58.5s37 -19.5 57 -19.5c20.667 0 40 6.5 58 19.5s27 32.5 27 58.5c0 25.333 -9 44.833 -27 58.5s-37.333 20.5 -58 20.5z" />
    <glyph glyph-name="ae" unicode="&#xe6;" horiz-adv-x="739" 
d="M153 -7c-44.667 0 -77.165 11.834 -97.498 35.501s-30.5 52.167 -30.5 85.5c0 28 6.5 51.167 19.5 69.5s29.833 33.166 50.5 44.499s42.334 20.833 65.001 28.5l65 23c20.667 7.66699 37.334 16.334 50.001 26.001s19 22.167 19 37.5v83
c0 14.667 -2.16699 28.5 -6.5 41.5s-12 23.667 -23 32s-26.167 12.5 -45.5 12.5c-12 0 -23.667 -1.66699 -35 -5s-21.333 -8.66602 -30 -15.999c21.333 -7.33301 37.166 -18.333 47.499 -33s15.5 -31 15.5 -49c0 -24.667 -8.5 -44.167 -25.5 -58.5
s-37.167 -21.5 -60.5 -21.5c-25.333 0 -44.833 8 -58.5 24s-20.5 35.333 -20.5 58c0 20 5 36.833 15 50.5s24.667 26.167 44 37.5s42.666 19.666 69.999 24.999s56.333 8 87 8c31.333 0 60.166 -3.16699 86.499 -9.5s48.833 -18.833 67.5 -37.5
c14 -15.333 23.167 -34 27.5 -56s6.5 -50.333 6.5 -85l-127 -227c-16.667 -32 -34.334 -56.833 -53.001 -74.5s-38.167 -30.334 -58.5 -38.001s-41.833 -11.5 -64.5 -11.5zM240.002 65.001c14.667 0 28.167 4.83203 40.5 14.499s24.5 27.167 36.5 52.5l-17 176
c-8.66699 -14 -19.5 -25.833 -32.5 -35.5s-25.667 -20 -38 -31s-22.833 -24.167 -31.5 -39.5s-13 -35.666 -13 -60.999c0 -27.333 5.5 -46.833 16.5 -58.5s23.833 -17.5 38.5 -17.5zM511.002 -14c-41.333 0 -78.3301 8.99609 -110.997 26.9961s-58.667 46.833 -78 86.5
s-29 91.834 -29 156.501c0 53.333 9.16699 100.833 27.5 142.5s45.166 74.334 80.499 98.001s78.666 35.5 129.999 35.5c55.333 0 99 -17.333 131 -52s48 -91.667 48 -171h-299l-2 19h165c0.666992 32.667 -0.666016 62.834 -3.99902 90.501s-8.66602 49.834 -15.999 66.501
s-17 25 -29 25c-18 0 -33 -14.333 -45 -43s-19.333 -77.334 -22 -146.001l4 -7c-1.33301 -7.33301 -2 -14.833 -2 -22.5v-24.5c0 -46 5.66699 -82.667 17 -110s25.666 -46.666 42.999 -57.999s34.666 -17 51.999 -17c15.333 0 33.5 4.16699 54.5 12.5s40.833 28.5 59.5 60.5
l18 -6c-8 -26 -20.167 -51.5 -36.5 -76.5s-37.333 -45.667 -63 -62s-56.834 -24.5 -93.501 -24.5z" />
    <glyph glyph-name="ccedilla" unicode="&#xe7;" horiz-adv-x="500" 
d="M285 532c28 0 52.9961 -2.83105 74.9961 -8.49805s40 -12.834 54 -21.501c17.333 -10.667 31.333 -24.334 42 -41.001s16 -36 16 -58c0 -25.333 -8.33301 -46.5 -25 -63.5s-37.667 -25.5 -63 -25.5c-26 0 -46.5 7.66699 -61.5 23s-22.5 35 -22.5 59
c0 23.333 7.33301 43 22 59s32 26.667 52 32c-5.33301 5.33301 -12.166 9.66602 -20.499 12.999s-18.166 5 -29.499 5c-22.667 0 -41.667 -6.5 -57 -19.5s-27.833 -30.667 -37.5 -53s-16.667 -47.333 -21 -75s-6.5 -56.167 -6.5 -85.5c0 -49.333 6.5 -87.833 19.5 -115.5
s29.333 -47 49 -58s39.834 -16.5 60.501 -16.5c16 0 35.667 4.33301 59 13s45.666 29 66.999 61l17 -6c-7.33301 -26 -19.666 -51.667 -36.999 -77s-39.666 -46.166 -66.999 -62.499s-60.666 -24.5 -99.999 -24.5c-44 0 -83.833 9 -119.5 27s-64.167 47 -85.5 87
s-32 92.333 -32 157c0 62.667 11 114.167 33 154.5s52.167 70.5 90.5 90.5s81.166 30 128.499 30zM260.996 1.00195l-17.999 -63.001c11.333 4.66699 23.166 8 35.499 10s25.5 3 39.5 3c24 0 41.833 -5.16699 53.5 -15.5s17.5 -23.833 17.5 -40.5
c0 -19.333 -6.66699 -35.166 -20 -47.499s-31.166 -21.333 -53.499 -27s-47.5 -8.5 -75.5 -8.5c-18 0 -34.5 1.16699 -49.5 3.5s-28.167 5.5 -39.5 9.5l6 18c4.66699 -0.666992 11.167 -1.66699 19.5 -3s17.166 -2 26.499 -2c15.333 0 30.5 3 45.5 9s22.5 16 22.5 30
c0 17.333 -10.333 26 -31 26c-5.33301 0 -11.5 -0.5 -18.5 -1.5s-12.833 -2.83301 -17.5 -5.5l30 105h27z" />
    <glyph glyph-name="egrave" unicode="&#xe8;" horiz-adv-x="504" 
d="M285 532c58.667 0 104.667 -17.3359 138 -52.0029s50 -91.667 50 -171h-321l-1 19h186c1.33301 32.667 0 62.834 -4 90.501s-10.5 49.834 -19.5 66.501s-20.833 25 -35.5 25c-20 0 -37 -14.333 -51 -43s-22.667 -77.334 -26 -146.001l4 -7
c-1.33301 -7.33301 -2 -14.833 -2 -22.5v-24.5c0 -46 6.16699 -82.667 18.5 -110s27.833 -46.666 46.5 -57.999s38 -17 58 -17c16.667 0 36.5 4.16699 59.5 12.5s45.167 28.5 66.5 60.5l17 -6c-7.33301 -26 -19.833 -51.5 -37.5 -76.5s-40.167 -45.667 -67.5 -62
s-60.333 -24.5 -99 -24.5c-44 0 -83.333 9.16699 -118 27.5s-62.167 47.333 -82.5 87s-30.5 91.5 -30.5 155.5c0 63.333 11 115.333 33 156s52 70.834 90 90.501s80.667 29.5 128 29.5zM151 818.997c14 12 29.833 16.499 47.5 13.499s31.834 -10.833 42.501 -23.5
c12 -13.333 21 -28.666 27 -45.999l21.5 -63c8.33301 -24.667 22.166 -55.334 41.499 -92.001l-11 -9c-30 26.667 -55.833 47.334 -77.5 62.001l-55.5 37.5c-15.333 10.333 -28.333 21.833 -39 34.5c-11.333 14 -16.833 29.167 -16.5 45.5s6.83301 29.833 19.5 40.5z" />
    <glyph glyph-name="eacute" unicode="&#xe9;" horiz-adv-x="504" 
d="M285 532c58.667 0 104.667 -17.3359 138 -52.0029s50 -91.667 50 -171h-321l-1 19h186c1.33301 32.667 0 62.834 -4 90.501s-10.5 49.834 -19.5 66.501s-20.833 25 -35.5 25c-20 0 -37 -14.333 -51 -43s-22.667 -77.334 -26 -146.001l4 -7
c-1.33301 -7.33301 -2 -14.833 -2 -22.5v-24.5c0 -46 6.16699 -82.667 18.5 -110s27.833 -46.666 46.5 -57.999s38 -17 58 -17c16.667 0 36.5 4.16699 59.5 12.5s45.167 28.5 66.5 60.5l17 -6c-7.33301 -26 -19.833 -51.5 -37.5 -76.5s-40.167 -45.667 -67.5 -62
s-60.333 -24.5 -99 -24.5c-44 0 -83.333 9.16699 -118 27.5s-62.167 47.333 -82.5 87s-30.5 91.5 -30.5 155.5c0 63.333 11 115.333 33 156s52 70.834 90 90.501s80.667 29.5 128 29.5zM387 818.997c12.667 -10 19.167 -23.334 19.5 -40.001s-5.16699 -32 -16.5 -46
c-10 -12.667 -22.833 -24.167 -38.5 -34.5l-55.5 -37.5c-21.333 -14.667 -47.333 -35.334 -78 -62.001l-11 9c19.333 36.667 33.166 67.334 41.499 92.001l21.5 63c6 17.333 15 32.666 27 45.999c10.667 12.667 24.834 20.334 42.501 23.001s33.5 -1.66602 47.5 -12.999z
" />
    <glyph glyph-name="ecircumflex" unicode="&#xea;" horiz-adv-x="504" 
d="M285 532c58.667 0 104.667 -17.3359 138 -52.0029s50 -91.667 50 -171h-321l-1 19h186c1.33301 32.667 0 62.834 -4 90.501s-10.5 49.834 -19.5 66.501s-20.833 25 -35.5 25c-20 0 -37 -14.333 -51 -43s-22.667 -77.334 -26 -146.001l4 -7
c-1.33301 -7.33301 -2 -14.833 -2 -22.5v-24.5c0 -46 6.16699 -82.667 18.5 -110s27.833 -46.666 46.5 -57.999s38 -17 58 -17c16.667 0 36.5 4.16699 59.5 12.5s45.167 28.5 66.5 60.5l17 -6c-7.33301 -26 -19.833 -51.5 -37.5 -76.5s-40.167 -45.667 -67.5 -62
s-60.333 -24.5 -99 -24.5c-44 0 -83.333 9.16699 -118 27.5s-62.167 47.333 -82.5 87s-30.5 91.5 -30.5 155.5c0 63.333 11 115.333 33 156s52 70.834 90 90.501s80.667 29.5 128 29.5zM286 825.997c19.333 -38 45.168 -75.5 77.501 -112.5s67.5 -67.5 105.5 -91.5l-8 -14
c-39.333 8.66699 -77.5 19.167 -114.5 31.5s-66.833 24.5 -89.5 36.5c-18 -12 -42 -24.167 -72 -36.5s-60.667 -22.833 -92 -31.5l-8 14c37.333 23.333 72.166 53.5 104.499 90.5s58.5 74.833 78.5 113.5h18z" />
    <glyph glyph-name="edieresis" unicode="&#xeb;" horiz-adv-x="504" 
d="M285 532c58.667 0 104.667 -17.3359 138 -52.0029s50 -91.667 50 -171h-321l-1 19h186c1.33301 32.667 0 62.834 -4 90.501s-10.5 49.834 -19.5 66.501s-20.833 25 -35.5 25c-20 0 -37 -14.333 -51 -43s-22.667 -77.334 -26 -146.001l4 -7
c-1.33301 -7.33301 -2 -14.833 -2 -22.5v-24.5c0 -46 6.16699 -82.667 18.5 -110s27.833 -46.666 46.5 -57.999s38 -17 58 -17c16.667 0 36.5 4.16699 59.5 12.5s45.167 28.5 66.5 60.5l17 -6c-7.33301 -26 -19.833 -51.5 -37.5 -76.5s-40.167 -45.667 -67.5 -62
s-60.333 -24.5 -99 -24.5c-44 0 -83.333 9.16699 -118 27.5s-62.167 47.333 -82.5 87s-30.5 91.5 -30.5 155.5c0 63.333 11 115.333 33 156s52 70.834 90 90.501s80.667 29.5 128 29.5zM395 765.997c21.333 0 40.167 -8.16699 56.5 -24.5s24.5 -35.166 24.5 -56.499
c0 -22.667 -8.16699 -41.834 -24.5 -57.501s-35.5 -23.5 -57.5 -23.5s-41 8 -57 24s-24 35 -24 57s8 41 24 57s35.333 24 58 24zM162.001 765.997c21.333 0 40.166 -8.16699 56.499 -24.5s24.5 -35.166 24.5 -56.499c0 -22.667 -8.16699 -41.834 -24.5 -57.501
s-35.166 -23.5 -56.499 -23.5c-22.667 0 -42 8 -58 24s-24 35 -24 57s8 41 24 57s35.333 24 58 24z" />
    <glyph glyph-name="igrave" unicode="&#xec;" horiz-adv-x="323" 
d="M245 529l0.00195312 -436c0 -28 4.5 -47 13.5 -57s24.5 -15 46.5 -15v-21c-13.333 0.666992 -33 1.5 -59 2.5s-52.333 1.5 -79 1.5s-53.834 -0.5 -81.501 -1.5s-48.5 -1.83301 -62.5 -2.5v21c22 0 37.5 5 46.5 15s13.5 29 13.5 57v316c0 30 -4.33301 52.167 -13 66.5
s-24.334 21.5 -47.001 21.5v21c21.333 -2 42 -3 62 -3c30 0 58.5 1.16699 85.5 3.5s51.833 5.83301 74.5 10.5zM37.002 819c14 12 29.833 16.499 47.5 13.499s31.834 -10.833 42.501 -23.5c12 -13.333 21 -28.666 27 -45.999l21.5 -63
c8.33301 -24.667 22.166 -55.334 41.499 -92.001l-11 -9c-30 26.667 -55.833 47.334 -77.5 62.001l-55.5 37.5c-15.333 10.333 -28.333 21.833 -39 34.5c-11.333 14 -16.833 29.167 -16.5 45.5s6.83301 29.833 19.5 40.5z" />
    <glyph glyph-name="iacute" unicode="&#xed;" horiz-adv-x="323" 
d="M245 529l0.00195312 -436c0 -28 4.5 -47 13.5 -57s24.5 -15 46.5 -15v-21c-13.333 0.666992 -33 1.5 -59 2.5s-52.333 1.5 -79 1.5s-53.834 -0.5 -81.501 -1.5s-48.5 -1.83301 -62.5 -2.5v21c22 0 37.5 5 46.5 15s13.5 29 13.5 57v316c0 30 -4.33301 52.167 -13 66.5
s-24.334 21.5 -47.001 21.5v21c21.333 -2 42 -3 62 -3c30 0 58.5 1.16699 85.5 3.5s51.833 5.83301 74.5 10.5zM273.002 819c12.667 -10 19.167 -23.334 19.5 -40.001s-5.16699 -32 -16.5 -46c-10 -12.667 -22.833 -24.167 -38.5 -34.5l-55.5 -37.5
c-21.333 -14.667 -47.333 -35.334 -78 -62.001l-11 9c19.333 36.667 33.166 67.334 41.499 92.001l21.5 63c6 17.333 15 32.666 27 45.999c10.667 12.667 24.834 20.334 42.501 23.001s33.5 -1.66602 47.5 -12.999z" />
    <glyph glyph-name="icircumflex" unicode="&#xee;" horiz-adv-x="323" 
d="M245 529l0.00195312 -436c0 -28 4.5 -47 13.5 -57s24.5 -15 46.5 -15v-21c-13.333 0.666992 -33 1.5 -59 2.5s-52.333 1.5 -79 1.5s-53.834 -0.5 -81.501 -1.5s-48.5 -1.83301 -62.5 -2.5v21c22 0 37.5 5 46.5 15s13.5 29 13.5 57v316c0 30 -4.33301 52.167 -13 66.5
s-24.334 21.5 -47.001 21.5v21c21.333 -2 42 -3 62 -3c30 0 58.5 1.16699 85.5 3.5s51.833 5.83301 74.5 10.5zM172.002 826c19.333 -38 45.168 -75.5 77.501 -112.5s67.5 -67.5 105.5 -91.5l-8 -14c-39.333 8.66699 -77.5 19.167 -114.5 31.5s-66.833 24.5 -89.5 36.5
c-18 -12 -42 -24.167 -72 -36.5s-60.667 -22.833 -92 -31.5l-8 14c37.333 23.333 72.166 53.5 104.499 90.5s58.5 74.833 78.5 113.5h18z" />
    <glyph glyph-name="idieresis" unicode="&#xef;" horiz-adv-x="323" 
d="M245 529l0.00195312 -436c0 -28 4.5 -47 13.5 -57s24.5 -15 46.5 -15v-21c-13.333 0.666992 -33 1.5 -59 2.5s-52.333 1.5 -79 1.5s-53.834 -0.5 -81.501 -1.5s-48.5 -1.83301 -62.5 -2.5v21c22 0 37.5 5 46.5 15s13.5 29 13.5 57v316c0 30 -4.33301 52.167 -13 66.5
s-24.334 21.5 -47.001 21.5v21c21.333 -2 42 -3 62 -3c30 0 58.5 1.16699 85.5 3.5s51.833 5.83301 74.5 10.5zM281.002 766c21.333 0 40.167 -8.16699 56.5 -24.5s24.5 -35.166 24.5 -56.499c0 -22.667 -8.16699 -41.834 -24.5 -57.501s-35.5 -23.5 -57.5 -23.5
s-41 8 -57 24s-24 35 -24 57s8 41 24 57s35.333 24 58 24zM48.0029 766c21.333 0 40.166 -8.16699 56.499 -24.5s24.5 -35.166 24.5 -56.499c0 -22.667 -8.16699 -41.834 -24.5 -57.501s-35.166 -23.5 -56.499 -23.5c-22.667 0 -42 8 -58 24s-24 35 -24 57s8 41 24 57
s35.333 24 58 24z" />
    <glyph glyph-name="eth" unicode="&#xf0;" horiz-adv-x="571" 
d="M136 782c72.667 -23.333 139.163 -56.498 199.496 -99.498s108.5 -95.833 144.5 -158.5s54 -135.667 54 -219c0 -73.333 -10.5 -133.833 -31.5 -181.5s-50.167 -82.834 -87.5 -105.501s-80.666 -34 -129.999 -34s-92.666 8.66699 -129.999 26s-66.5 45.166 -87.5 83.499
s-31.833 89.166 -32.5 152.499c0 67.333 10.333 122 31 164s48.5 72.833 83.5 92.5s73.5 29.5 115.5 29.5c28.667 0 53.334 -5.66699 74.001 -17s37.667 -29.666 51 -54.999l-13 -3c-5.33301 14 -12.166 24.5 -20.499 31.5s-17 12 -26 15s-18.167 4.5 -27.5 4.5
c-21.333 0 -39.333 -8.83301 -54 -26.5s-25.834 -44.667 -33.501 -81s-11.5 -83.5 -11.5 -141.5c0 -60 3.5 -108.667 10.5 -146s16.667 -64.833 29 -82.5s25.833 -26.5 40.5 -26.5c15.333 0 29.333 9.16699 42 27.5s22.834 49 30.501 92s11.5 101.5 11.5 175.5
c0 56 -3.83301 107.667 -11.5 155s-20.5 90.333 -38.5 129s-42.5 73 -73.5 103s-69.833 56.333 -116.5 79zM296.996 695.002l17 -14l-199 -97l-9 18zM452.996 771.002l9 -18l-148 -72l-17 14z" />
    <glyph glyph-name="ntilde" unicode="&#xf1;" horiz-adv-x="619" 
d="M406 532c29.333 0 52.8311 -3.66895 70.498 -11.002s31.167 -16.666 40.5 -27.999c10.667 -12.667 18.5 -29 23.5 -49s7.5 -47 7.5 -81v-270c0 -28 4.5 -47 13.5 -57s24.5 -15 46.5 -15v-21c-13.333 0.666992 -33.166 1.5 -59.499 2.5s-51.833 1.5 -76.5 1.5
c-27.333 0 -53.666 -0.5 -78.999 -1.5s-44.333 -1.83301 -57 -2.5v21c18.667 0 31.667 5 39 15s11 29 11 57v318c0 15.333 -1.66699 28.5 -5 39.5s-9 19.333 -17 25s-19.333 8.5 -34 8.5c-23.333 0 -43.333 -8.83301 -60 -26.5s-25 -40.167 -25 -67.5v-297
c0 -28 3.66699 -47 11 -57s20.333 -15 39 -15v-21c-12.667 0.666992 -31 1.5 -55 2.5s-48.333 1.5 -73 1.5c-27.333 0 -54.666 -0.5 -81.999 -1.5s-48 -1.83301 -62 -2.5v21c22 0 37.5 5 46.5 15s13.5 29 13.5 57v316c0 30 -4.33301 52.167 -13 66.5
s-24.334 21.5 -47.001 21.5v21c21.333 -2 42 -3 62 -3c30 0 58.5 1.16699 85.5 3.5s51.833 5.83301 74.5 10.5v-81c16 30.667 37.833 52.334 65.5 65.001s59.5 19 95.5 19zM240.998 791.998c21.333 0 39.333 -3.33203 54 -9.99902s28 -14.334 40 -23.001
s24.333 -16.334 37 -23.001s27.334 -10 44.001 -10c14 0 27.5 4.16699 40.5 12.5s25.167 21.833 36.5 40.5l14 -7c-11.333 -54 -28.333 -92.667 -51 -116s-47.667 -35 -75 -35c-21.333 0 -39.5 3.33301 -54.5 10s-28.5 14.5 -40.5 23.5s-24.333 16.833 -37 23.5
s-27.334 10 -44.001 10c-14 0 -27.5 -4.16699 -40.5 -12.5s-25.167 -22.166 -36.5 -41.499l-14 7c11.333 54 28.5 92.667 51.5 116s48.167 35 75.5 35z" />
    <glyph glyph-name="ograve" unicode="&#xf2;" horiz-adv-x="570" 
d="M285 532c50 0 93.833 -8.83301 131.5 -26.5s67 -46.5 88 -86.5s31.5 -93.333 31.5 -160s-10.5 -120 -31.5 -160s-50.333 -68.833 -88 -86.5s-81.5 -26.5 -131.5 -26.5c-49.333 0 -92.833 8.83301 -130.5 26.5s-67.167 46.5 -88.5 86.5s-32 93.333 -32 160
s10.667 120 32 160s50.833 68.833 88.5 86.5s81.167 26.5 130.5 26.5zM285 512c-23.333 0 -42.833 -19.833 -58.5 -59.5s-23.5 -104.167 -23.5 -193.5s7.83301 -153.833 23.5 -193.5s35.167 -59.5 58.5 -59.5c24 0 43.667 19.833 59 59.5s23 104.167 23 193.5
s-7.66699 153.833 -23 193.5s-35 59.5 -59 59.5zM160 819c14 12 29.833 16.499 47.5 13.499s31.834 -10.833 42.501 -23.5c12 -13.333 21 -28.666 27 -45.999l21.5 -63c8.33301 -24.667 22.166 -55.334 41.499 -92.001l-11 -9c-30 26.667 -55.833 47.334 -77.5 62.001
l-55.5 37.5c-15.333 10.333 -28.333 21.833 -39 34.5c-11.333 14 -16.833 29.167 -16.5 45.5s6.83301 29.833 19.5 40.5z" />
    <glyph glyph-name="oacute" unicode="&#xf3;" horiz-adv-x="570" 
d="M285 532c50 0 93.833 -8.83301 131.5 -26.5s67 -46.5 88 -86.5s31.5 -93.333 31.5 -160s-10.5 -120 -31.5 -160s-50.333 -68.833 -88 -86.5s-81.5 -26.5 -131.5 -26.5c-49.333 0 -92.833 8.83301 -130.5 26.5s-67.167 46.5 -88.5 86.5s-32 93.333 -32 160
s10.667 120 32 160s50.833 68.833 88.5 86.5s81.167 26.5 130.5 26.5zM285 512c-23.333 0 -42.833 -19.833 -58.5 -59.5s-23.5 -104.167 -23.5 -193.5s7.83301 -153.833 23.5 -193.5s35.167 -59.5 58.5 -59.5c24 0 43.667 19.833 59 59.5s23 104.167 23 193.5
s-7.66699 153.833 -23 193.5s-35 59.5 -59 59.5zM396 819c12.667 -10 19.167 -23.334 19.5 -40.001s-5.16699 -32 -16.5 -46c-10 -12.667 -22.833 -24.167 -38.5 -34.5l-55.5 -37.5c-21.333 -14.667 -47.333 -35.334 -78 -62.001l-11 9
c19.333 36.667 33.166 67.334 41.499 92.001l21.5 63c6 17.333 15 32.666 27 45.999c10.667 12.667 24.834 20.334 42.501 23.001s33.5 -1.66602 47.5 -12.999z" />
    <glyph glyph-name="ocircumflex" unicode="&#xf4;" horiz-adv-x="570" 
d="M285 532c50 0 93.833 -8.83301 131.5 -26.5s67 -46.5 88 -86.5s31.5 -93.333 31.5 -160s-10.5 -120 -31.5 -160s-50.333 -68.833 -88 -86.5s-81.5 -26.5 -131.5 -26.5c-49.333 0 -92.833 8.83301 -130.5 26.5s-67.167 46.5 -88.5 86.5s-32 93.333 -32 160
s10.667 120 32 160s50.833 68.833 88.5 86.5s81.167 26.5 130.5 26.5zM285 512c-23.333 0 -42.833 -19.833 -58.5 -59.5s-23.5 -104.167 -23.5 -193.5s7.83301 -153.833 23.5 -193.5s35.167 -59.5 58.5 -59.5c24 0 43.667 19.833 59 59.5s23 104.167 23 193.5
s-7.66699 153.833 -23 193.5s-35 59.5 -59 59.5zM295 826c19.333 -38 45.168 -75.5 77.501 -112.5s67.5 -67.5 105.5 -91.5l-8 -14c-39.333 8.66699 -77.5 19.167 -114.5 31.5s-66.833 24.5 -89.5 36.5c-18 -12 -42 -24.167 -72 -36.5s-60.667 -22.833 -92 -31.5l-8 14
c37.333 23.333 72.166 53.5 104.499 90.5s58.5 74.833 78.5 113.5h18z" />
    <glyph glyph-name="otilde" unicode="&#xf5;" horiz-adv-x="570" 
d="M285 532c50 0 93.833 -8.83301 131.5 -26.5s67 -46.5 88 -86.5s31.5 -93.333 31.5 -160s-10.5 -120 -31.5 -160s-50.333 -68.833 -88 -86.5s-81.5 -26.5 -131.5 -26.5c-49.333 0 -92.833 8.83301 -130.5 26.5s-67.167 46.5 -88.5 86.5s-32 93.333 -32 160
s10.667 120 32 160s50.833 68.833 88.5 86.5s81.167 26.5 130.5 26.5zM285 512c-23.333 0 -42.833 -19.833 -58.5 -59.5s-23.5 -104.167 -23.5 -193.5s7.83301 -153.833 23.5 -193.5s35.167 -59.5 58.5 -59.5c24 0 43.667 19.833 59 59.5s23 104.167 23 193.5
s-7.66699 153.833 -23 193.5s-35 59.5 -59 59.5zM211 792c21.333 0 39.333 -3.33203 54 -9.99902s28 -14.334 40 -23.001s24.333 -16.334 37 -23.001s27.334 -10 44.001 -10c14 0 27.5 4.16699 40.5 12.5s25.167 21.833 36.5 40.5l14 -7
c-11.333 -54 -28.333 -92.667 -51 -116s-47.667 -35 -75 -35c-21.333 0 -39.5 3.33301 -54.5 10s-28.5 14.5 -40.5 23.5s-24.333 16.833 -37 23.5s-27.334 10 -44.001 10c-14 0 -27.5 -4.16699 -40.5 -12.5s-25.167 -22.166 -36.5 -41.499l-14 7
c11.333 54 28.5 92.667 51.5 116s48.167 35 75.5 35z" />
    <glyph glyph-name="odieresis" unicode="&#xf6;" horiz-adv-x="570" 
d="M285 532c50 0 93.833 -8.83301 131.5 -26.5s67 -46.5 88 -86.5s31.5 -93.333 31.5 -160s-10.5 -120 -31.5 -160s-50.333 -68.833 -88 -86.5s-81.5 -26.5 -131.5 -26.5c-49.333 0 -92.833 8.83301 -130.5 26.5s-67.167 46.5 -88.5 86.5s-32 93.333 -32 160
s10.667 120 32 160s50.833 68.833 88.5 86.5s81.167 26.5 130.5 26.5zM285 512c-23.333 0 -42.833 -19.833 -58.5 -59.5s-23.5 -104.167 -23.5 -193.5s7.83301 -153.833 23.5 -193.5s35.167 -59.5 58.5 -59.5c24 0 43.667 19.833 59 59.5s23 104.167 23 193.5
s-7.66699 153.833 -23 193.5s-35 59.5 -59 59.5zM404 766c21.333 0 40.167 -8.16699 56.5 -24.5s24.5 -35.166 24.5 -56.499c0 -22.667 -8.16699 -41.834 -24.5 -57.501s-35.5 -23.5 -57.5 -23.5s-41 8 -57 24s-24 35 -24 57s8 41 24 57s35.333 24 58 24zM171.001 766
c21.333 0 40.166 -8.16699 56.499 -24.5s24.5 -35.166 24.5 -56.499c0 -22.667 -8.16699 -41.834 -24.5 -57.501s-35.166 -23.5 -56.499 -23.5c-22.667 0 -42 8 -58 24s-24 35 -24 57s8 41 24 57s35.333 24 58 24z" />
    <glyph glyph-name="divide" unicode="&#xf7;" horiz-adv-x="628" 
d="M315 266c15.333 0 28.5 -5.33301 39.5 -16s16.5 -23.667 16.5 -39s-5.5 -28.5 -16.5 -39.5s-24.167 -16.5 -39.5 -16.5c-14.667 0 -27.5 5.5 -38.5 16.5s-16.5 24.167 -16.5 39.5s5.5 28.333 16.5 39s23.833 16 38.5 16zM315 554c15.333 0 28.5 -5.33301 39.5 -16
s16.5 -23.667 16.5 -39s-5.5 -28.333 -16.5 -39s-24.167 -16 -39.5 -16c-14.667 0 -27.5 5.33301 -38.5 16s-16.5 23.667 -16.5 39s5.5 28.333 16.5 39s23.833 16 38.5 16zM567 370v-30h-501v30h501z" />
    <glyph glyph-name="oslash" unicode="&#xf8;" horiz-adv-x="570" 
d="M285 532c50 0 93.833 -8.83301 131.5 -26.5s67 -46.5 88 -86.5s31.5 -93.333 31.5 -160s-10.5 -120 -31.5 -160s-50.333 -68.833 -88 -86.5s-81.5 -26.5 -131.5 -26.5c-49.333 0 -92.833 8.83301 -130.5 26.5s-67.167 46.5 -88.5 86.5s-32 93.333 -32 160
s10.667 120 32 160s50.833 68.833 88.5 86.5s81.167 26.5 130.5 26.5zM285 512c-23.333 0 -42.833 -19.833 -58.5 -59.5s-23.5 -104.167 -23.5 -193.5s7.83301 -153.833 23.5 -193.5s35.167 -59.5 58.5 -59.5c24 0 43.667 19.833 59 59.5s23 104.167 23 193.5
s-7.66699 153.833 -23 193.5s-35 59.5 -59 59.5zM390 466l15 -20l-218 -383l-16 21zM147 75l15 -20l-89 -128l-19 13zM497 591l19 -13l-91 -132l-15 20z" />
    <glyph glyph-name="ugrave" unicode="&#xf9;" horiz-adv-x="614" 
d="M535 529l-0.000976562 -419.999c0 -30 4.5 -52.167 13.5 -66.5s24.5 -21.5 46.5 -21.5v-21c-20.667 2 -41.334 3 -62.001 3c-30.667 0 -59.167 -1 -85.5 -3s-51.166 -5.66699 -74.499 -11v81c-16 -30 -37.833 -51.5 -65.5 -64.5s-59.167 -19.5 -94.5 -19.5
c-29.333 0 -52.833 3.66699 -70.5 11s-31.167 17 -40.5 29c-10.667 12 -18.334 28.167 -23.001 48.5s-7 47.166 -7 80.499v254c0 30 -4.33301 52.167 -13 66.5s-24.334 21.5 -47.001 21.5v21c21.333 -2 42 -3 62 -3c30.667 0 59.334 1.16699 86.001 3.5
s51.334 5.83301 74.001 10.5v-422c0 -15.333 1.66699 -28.333 5 -39s9 -19 17 -25s18.667 -9 32 -9c23.333 0 43.333 9 60 27s25 40.333 25 67v281c0 30 -4.33301 52.167 -13 66.5s-24.334 21.5 -47.001 21.5v21c21.333 -2 42 -3 62 -3c30.667 0 59.334 1.16699 86.001 3.5
s51.334 5.83301 74.001 10.5zM165.999 819.001c14 12 29.833 16.499 47.5 13.499s31.834 -10.833 42.501 -23.5c12 -13.333 21 -28.666 27 -45.999l21.5 -63c8.33301 -24.667 22.166 -55.334 41.499 -92.001l-11 -9c-30 26.667 -55.833 47.334 -77.5 62.001l-55.5 37.5
c-15.333 10.333 -28.333 21.833 -39 34.5c-11.333 14 -16.833 29.167 -16.5 45.5s6.83301 29.833 19.5 40.5z" />
    <glyph glyph-name="uacute" unicode="&#xfa;" horiz-adv-x="614" 
d="M535 529l-0.000976562 -419.999c0 -30 4.5 -52.167 13.5 -66.5s24.5 -21.5 46.5 -21.5v-21c-20.667 2 -41.334 3 -62.001 3c-30.667 0 -59.167 -1 -85.5 -3s-51.166 -5.66699 -74.499 -11v81c-16 -30 -37.833 -51.5 -65.5 -64.5s-59.167 -19.5 -94.5 -19.5
c-29.333 0 -52.833 3.66699 -70.5 11s-31.167 17 -40.5 29c-10.667 12 -18.334 28.167 -23.001 48.5s-7 47.166 -7 80.499v254c0 30 -4.33301 52.167 -13 66.5s-24.334 21.5 -47.001 21.5v21c21.333 -2 42 -3 62 -3c30.667 0 59.334 1.16699 86.001 3.5
s51.334 5.83301 74.001 10.5v-422c0 -15.333 1.66699 -28.333 5 -39s9 -19 17 -25s18.667 -9 32 -9c23.333 0 43.333 9 60 27s25 40.333 25 67v281c0 30 -4.33301 52.167 -13 66.5s-24.334 21.5 -47.001 21.5v21c21.333 -2 42 -3 62 -3c30.667 0 59.334 1.16699 86.001 3.5
s51.334 5.83301 74.001 10.5zM401.999 819.001c12.667 -10 19.167 -23.334 19.5 -40.001s-5.16699 -32 -16.5 -46c-10 -12.667 -22.833 -24.167 -38.5 -34.5l-55.5 -37.5c-21.333 -14.667 -47.333 -35.334 -78 -62.001l-11 9c19.333 36.667 33.166 67.334 41.499 92.001
l21.5 63c6 17.333 15 32.666 27 45.999c10.667 12.667 24.834 20.334 42.501 23.001s33.5 -1.66602 47.5 -12.999z" />
    <glyph glyph-name="ucircumflex" unicode="&#xfb;" horiz-adv-x="614" 
d="M535 529l-0.000976562 -419.999c0 -30 4.5 -52.167 13.5 -66.5s24.5 -21.5 46.5 -21.5v-21c-20.667 2 -41.334 3 -62.001 3c-30.667 0 -59.167 -1 -85.5 -3s-51.166 -5.66699 -74.499 -11v81c-16 -30 -37.833 -51.5 -65.5 -64.5s-59.167 -19.5 -94.5 -19.5
c-29.333 0 -52.833 3.66699 -70.5 11s-31.167 17 -40.5 29c-10.667 12 -18.334 28.167 -23.001 48.5s-7 47.166 -7 80.499v254c0 30 -4.33301 52.167 -13 66.5s-24.334 21.5 -47.001 21.5v21c21.333 -2 42 -3 62 -3c30.667 0 59.334 1.16699 86.001 3.5
s51.334 5.83301 74.001 10.5v-422c0 -15.333 1.66699 -28.333 5 -39s9 -19 17 -25s18.667 -9 32 -9c23.333 0 43.333 9 60 27s25 40.333 25 67v281c0 30 -4.33301 52.167 -13 66.5s-24.334 21.5 -47.001 21.5v21c21.333 -2 42 -3 62 -3c30.667 0 59.334 1.16699 86.001 3.5
s51.334 5.83301 74.001 10.5zM300.999 826.001c19.333 -38 45.168 -75.5 77.501 -112.5s67.5 -67.5 105.5 -91.5l-8 -14c-39.333 8.66699 -77.5 19.167 -114.5 31.5s-66.833 24.5 -89.5 36.5c-18 -12 -42 -24.167 -72 -36.5s-60.667 -22.833 -92 -31.5l-8 14
c37.333 23.333 72.166 53.5 104.499 90.5s58.5 74.833 78.5 113.5h18z" />
    </font>
</defs>
</svg>
